<svg width="500" height="200" viewBox="0 0 500 200" fill="none" xmlns="http://www.w3.org/2000/svg">
<rect width="500" height="200" fill="white"/>
<path d="M126.852 143.715C126.005 144.138 125.201 144.519 124.439 144.857C123.762 145.196 122.958 145.365 122.027 145.365C118.727 142.911 116.992 138.637 116.822 132.543C116.738 126.449 118.049 118.705 120.758 109.311C121.181 109.057 121.393 108.549 121.393 107.787L120.25 106.518C119.911 106.518 119.573 106.56 119.234 106.645C118.98 106.729 118.769 107.025 118.6 107.533C116.399 109.141 113.987 110.834 111.363 112.611C108.74 114.304 105.989 115.912 103.111 117.436C100.318 118.874 97.4408 120.059 94.4785 120.99C91.6009 121.921 88.7656 122.387 85.9727 122.387C78.8633 122.387 73.5312 118.79 69.9766 111.596L68.9609 109.691L67.9453 111.342C67.6914 111.68 67.3105 112.4 66.8027 113.5C66.2949 114.516 65.7871 115.701 65.2793 117.055C64.7715 118.409 64.306 119.805 63.8828 121.244C63.5443 122.598 63.4173 123.783 63.502 124.799C62.7402 125.561 61.9362 126.449 61.0898 127.465C60.2435 128.48 59.6087 129.623 59.1855 130.893C59.0163 131.57 59.1009 132.204 59.4395 132.797C59.2702 133.559 58.8893 134.151 58.2969 134.574C57.9583 134.997 57.5775 135.421 57.1543 135.844C56.8158 136.182 56.5195 136.563 56.2656 136.986C56.0964 137.41 55.9694 137.833 55.8848 138.256C55.8848 138.679 55.8424 139.102 55.7578 139.525C55.7578 140.118 55.6732 140.668 55.5039 141.176C54.0651 144.138 52.9225 146.042 52.0762 146.889C51.2298 147.82 50.0872 148.285 48.6484 148.285C47.9714 148.285 46.8711 148.158 45.3477 147.904C44.2474 146.719 43.2318 145.111 42.3008 143.08C41.4544 140.964 40.7773 138.721 40.2695 136.352C39.8464 133.982 39.6348 131.612 39.6348 129.242C39.7194 126.788 40.1426 124.672 40.9043 122.895C40.9043 122.81 41.2428 121.964 41.9199 120.355C42.597 118.747 43.4434 116.674 44.459 114.135C45.5592 111.596 46.7865 108.803 48.1406 105.756C49.4948 102.624 50.849 99.6198 52.2031 96.7422C53.5573 93.7799 54.8268 91.0716 56.0117 88.6172C57.2812 86.1628 58.3392 84.3008 59.1855 83.0312C59.8626 82.0156 60.4551 81.0846 60.9629 80.2383C61.5553 79.3073 62.1055 78.4186 62.6133 77.5723C64.1367 74.9486 65.5755 72.7904 66.9297 71.0977C68.3685 69.3203 70.4421 67.9238 73.1504 66.9082C75.0124 67.6699 76.3665 68.5586 77.2129 69.5742L77.4668 70.9707C77.8053 71.8171 78.3132 72.2402 78.9902 72.2402C79.9212 72.4941 80.6829 72.748 81.2754 73.002C81.9525 73.1712 82.6719 73.3405 83.4336 73.5098C84.026 74.1868 84.5762 74.9909 85.084 75.9219C85.7611 76.9375 86.3958 77.9531 86.9883 78.9688C87.6654 79.8997 88.1732 80.873 88.5117 81.8887C88.9349 82.8197 89.1465 83.793 89.1465 84.8086C89.2311 85.8242 89.0618 86.8822 88.6387 87.9824L88.7656 89.252C89.1888 90.0137 89.2734 91.0716 89.0195 92.4258C88.9349 93.0182 88.8926 93.653 88.8926 94.3301C88.8926 94.9225 88.9772 95.5996 89.1465 96.3613C90.6699 97.5462 92.0241 98.1387 93.209 98.1387C94.5632 98.1387 95.7904 97.8424 96.8906 97.25C98.0755 96.5729 99.1758 95.8958 100.191 95.2188C100.868 94.7109 101.546 94.2878 102.223 93.9492C102.9 93.526 103.577 93.2721 104.254 93.1875C105.777 91.7487 107.132 90.4792 108.316 89.3789C109.586 88.2786 110.898 87.1784 112.252 86.0781C114.791 84.0469 117.245 81.8464 119.615 79.4766C121.985 77.1068 123.889 74.1445 125.328 70.5898C126.174 70.082 127.063 69.8281 127.994 69.8281C128.925 69.8281 129.898 70.0397 130.914 70.4629C131.93 70.8861 132.903 71.3092 133.834 71.7324C134.088 71.9017 134.299 72.0286 134.469 72.1133C134.723 72.1979 134.934 72.2826 135.104 72.3672C135.104 73.2135 135.442 73.9329 136.119 74.5254C136.458 74.7793 136.669 74.9486 136.754 75.0332C136.839 75.1178 136.965 75.2025 137.135 75.2871C138.404 75.9642 139.208 76.6413 139.547 77.3184C140.139 79.265 141.197 80.7461 142.721 81.7617C142.551 82.6081 142.551 83.4121 142.721 84.1738C142.975 84.8509 143.271 85.5703 143.609 86.332C143.694 86.5859 143.779 86.8398 143.863 87.0938C143.948 87.3477 144.075 87.6439 144.244 87.9824L141.832 87.7285L142.213 90.1406C142.382 91.3255 142.255 92.6374 141.832 94.0762C141.493 95.515 141.07 96.6576 140.562 97.5039C140.647 99.7044 140.689 101.439 140.689 102.709C140.774 103.894 140.732 105.036 140.562 106.137C140.393 107.152 140.139 108.126 139.801 109.057C139.547 109.988 139.166 111.003 138.658 112.104C138.997 117.52 138.362 122.471 136.754 126.957C135.23 131.358 133.622 135.505 131.93 139.398C131.76 139.822 131.549 140.245 131.295 140.668C131.126 141.091 130.956 141.514 130.787 141.938C130.025 142.191 129.348 142.488 128.756 142.826C128.163 143.08 127.529 143.376 126.852 143.715ZM231.537 135.336C231.029 136.775 230.268 138.256 229.252 139.779C228.321 141.218 227.178 142.53 225.824 143.715C224.555 144.815 223.116 145.746 221.508 146.508C219.9 147.27 218.207 147.693 216.43 147.777C215.329 147.523 214.568 147.227 214.145 146.889C213.806 146.635 213.425 146.381 213.002 146.127C212.748 145.958 212.494 145.831 212.24 145.746C212.071 145.577 211.902 145.45 211.732 145.365L210.209 144.73L210.717 143.08C210.886 142.403 210.844 141.895 210.59 141.557C210.336 141.133 209.828 140.583 209.066 139.906C208.812 139.652 208.559 139.398 208.305 139.145C208.051 138.891 207.839 138.637 207.67 138.383L205.512 135.971L208.939 135.082C211.055 134.49 212.452 133.728 213.129 132.797C213.891 131.866 214.187 130.3 214.018 128.1C212.325 127.761 210.886 127.719 209.701 127.973C208.601 128.227 207.458 128.523 206.273 128.861C204.75 129.285 203.184 129.665 201.576 130.004C200.053 130.258 198.36 130.385 196.498 130.385C195.821 130.385 195.186 130.385 194.594 130.385C194.001 130.3 193.367 130.215 192.689 130.131L191.42 129.877C191.251 128.946 191.081 128.438 190.912 128.354C190.743 128.184 190.574 128.015 190.404 127.846C189.981 127.423 189.516 126.872 189.008 126.195C188.585 125.434 188.5 124.503 188.754 123.402C188.331 122.641 188.077 121.879 187.992 121.117C187.484 122.133 187.104 123.191 186.85 124.291L186.342 125.561L185.072 125.814C184.903 125.899 184.776 126.111 184.691 126.449C184.607 126.703 184.564 126.915 184.564 127.084L183.93 129.242C183.76 129.411 183.591 129.581 183.422 129.75C183.253 129.835 183.083 129.962 182.914 130.131C182.745 130.893 182.533 131.654 182.279 132.416C182.025 133.178 181.771 133.897 181.518 134.574C181.094 135.674 180.714 136.775 180.375 137.875C180.121 138.891 180.036 139.906 180.121 140.922L179.613 142.318C179.19 142.826 178.725 143.249 178.217 143.588C177.709 143.842 177.201 144.096 176.693 144.35C176.524 144.519 176.27 144.688 175.932 144.857C175.678 144.942 175.466 145.027 175.297 145.111L174.916 146.508L173.393 146.762C172.462 146.931 171.785 147.058 171.361 147.143C171.023 147.227 170.6 147.27 170.092 147.27L168.822 147.143C167.891 146.381 167.172 145.788 166.664 145.365C166.156 144.857 165.564 144.392 164.887 143.969C164.125 142.953 163.702 142.191 163.617 141.684C163.533 141.176 163.448 140.71 163.363 140.287C163.194 139.779 163.109 139.356 163.109 139.018C163.025 138.679 162.898 138.425 162.729 138.256L161.078 136.732L162.475 135.59L162.602 133.432C164.294 129.115 166.072 124.968 167.934 120.99C169.88 117.012 171.869 112.95 173.9 108.803C174.577 107.449 175.212 106.094 175.805 104.74C176.482 103.386 177.159 102.032 177.836 100.678C177.751 100.424 177.709 100.128 177.709 99.7891C177.709 99.4505 177.794 99.0697 177.963 98.6465C178.894 97.2077 179.656 95.9382 180.248 94.8379C180.84 93.653 181.433 92.4681 182.025 91.2832C182.702 89.8444 183.38 88.4479 184.057 87.0938C184.818 85.7396 185.749 84.3431 186.85 82.9043L188.881 82.0156C189.135 81.931 189.431 81.8464 189.77 81.7617C190.108 81.5924 190.489 81.5078 190.912 81.5078L192.816 81.7617C195.186 80.6615 197.26 79.138 199.037 77.1914C200.814 75.1602 202.634 72.748 204.496 69.9551L205.766 68.1777L207.416 69.1934C207.839 69.4473 208.432 69.7012 209.193 69.9551C209.955 70.1243 210.759 70.3359 211.605 70.5898C213.129 70.9284 214.568 71.3092 215.922 71.7324C217.276 72.1556 218.376 72.7904 219.223 73.6367C219.73 74.9909 220.027 76.0065 220.111 76.6836C220.196 77.3607 220.323 78.0378 220.492 78.7148C220.746 80.1536 220.958 81.5924 221.127 83.0312C221.381 84.4701 221.55 86.0781 221.635 87.8555C222.058 89.2943 222.396 90.7331 222.65 92.1719C222.989 93.526 223.285 94.9225 223.539 96.3613C223.962 98.3926 224.385 100.382 224.809 102.328C225.232 104.19 225.782 105.967 226.459 107.66C227.136 107.66 227.559 107.702 227.729 107.787C228.152 107.618 228.575 107.491 228.998 107.406C229.506 107.322 230.056 107.237 230.648 107.152L232.045 107.025L232.553 108.295C232.637 108.718 233.061 109.141 233.822 109.564C234.923 109.649 235.727 109.903 236.234 110.326C236.742 110.665 237.208 111.046 237.631 111.469C237.969 111.807 238.308 112.061 238.646 112.23L240.551 112.992L239.535 114.896C238.689 116.42 237.462 117.901 235.854 119.34C234.33 120.694 232.595 121.837 230.648 122.768C230.733 123.275 230.775 123.783 230.775 124.291C230.86 124.714 230.987 125.18 231.156 125.688C231.41 127.126 231.622 128.607 231.791 130.131C231.96 131.654 231.96 133.22 231.791 134.828L231.537 135.336ZM194.848 113.373C197.387 113.204 199.672 113.035 201.703 112.865C203.819 112.611 206.146 112.23 208.686 111.723C208.093 109.184 207.458 106.56 206.781 103.852C206.104 101.059 205.385 98.3079 204.623 95.5996L203.861 96.8691C202.169 98.6465 200.518 100.635 198.91 102.836C197.387 105.036 196.075 107.11 194.975 109.057C194.467 109.818 193.959 110.58 193.451 111.342C192.943 112.104 192.478 112.865 192.055 113.627C192.562 113.542 193.028 113.5 193.451 113.5C193.959 113.5 194.424 113.458 194.848 113.373ZM347.268 143.715C346.421 144.138 345.617 144.519 344.855 144.857C344.178 145.196 343.374 145.365 342.443 145.365C339.143 142.911 337.408 138.637 337.238 132.543C337.154 126.449 338.465 118.705 341.174 109.311C341.597 109.057 341.809 108.549 341.809 107.787L340.666 106.518C340.327 106.518 339.989 106.56 339.65 106.645C339.396 106.729 339.185 107.025 339.016 107.533C336.815 109.141 334.403 110.834 331.779 112.611C329.156 114.304 326.405 115.912 323.527 117.436C320.734 118.874 317.857 120.059 314.895 120.99C312.017 121.921 309.182 122.387 306.389 122.387C299.279 122.387 293.947 118.79 290.393 111.596L289.377 109.691L288.361 111.342C288.107 111.68 287.727 112.4 287.219 113.5C286.711 114.516 286.203 115.701 285.695 117.055C285.188 118.409 284.722 119.805 284.299 121.244C283.96 122.598 283.833 123.783 283.918 124.799C283.156 125.561 282.352 126.449 281.506 127.465C280.66 128.48 280.025 129.623 279.602 130.893C279.432 131.57 279.517 132.204 279.855 132.797C279.686 133.559 279.305 134.151 278.713 134.574C278.374 134.997 277.993 135.421 277.57 135.844C277.232 136.182 276.936 136.563 276.682 136.986C276.512 137.41 276.385 137.833 276.301 138.256C276.301 138.679 276.258 139.102 276.174 139.525C276.174 140.118 276.089 140.668 275.92 141.176C274.481 144.138 273.339 146.042 272.492 146.889C271.646 147.82 270.503 148.285 269.064 148.285C268.387 148.285 267.287 148.158 265.764 147.904C264.663 146.719 263.648 145.111 262.717 143.08C261.87 140.964 261.193 138.721 260.686 136.352C260.262 133.982 260.051 131.612 260.051 129.242C260.135 126.788 260.559 124.672 261.32 122.895C261.32 122.81 261.659 121.964 262.336 120.355C263.013 118.747 263.859 116.674 264.875 114.135C265.975 111.596 267.202 108.803 268.557 105.756C269.911 102.624 271.265 99.6198 272.619 96.7422C273.973 93.7799 275.243 91.0716 276.428 88.6172C277.697 86.1628 278.755 84.3008 279.602 83.0312C280.279 82.0156 280.871 81.0846 281.379 80.2383C281.971 79.3073 282.521 78.4186 283.029 77.5723C284.553 74.9486 285.992 72.7904 287.346 71.0977C288.785 69.3203 290.858 67.9238 293.566 66.9082C295.428 67.6699 296.783 68.5586 297.629 69.5742L297.883 70.9707C298.221 71.8171 298.729 72.2402 299.406 72.2402C300.337 72.4941 301.099 72.748 301.691 73.002C302.368 73.1712 303.088 73.3405 303.85 73.5098C304.442 74.1868 304.992 74.9909 305.5 75.9219C306.177 76.9375 306.812 77.9531 307.404 78.9688C308.081 79.8997 308.589 80.873 308.928 81.8887C309.351 82.8197 309.562 83.793 309.562 84.8086C309.647 85.8242 309.478 86.8822 309.055 87.9824L309.182 89.252C309.605 90.0137 309.689 91.0716 309.436 92.4258C309.351 93.0182 309.309 93.653 309.309 94.3301C309.309 94.9225 309.393 95.5996 309.562 96.3613C311.086 97.5462 312.44 98.1387 313.625 98.1387C314.979 98.1387 316.206 97.8424 317.307 97.25C318.492 96.5729 319.592 95.8958 320.607 95.2188C321.285 94.7109 321.962 94.2878 322.639 93.9492C323.316 93.526 323.993 93.2721 324.67 93.1875C326.193 91.7487 327.548 90.4792 328.732 89.3789C330.002 88.2786 331.314 87.1784 332.668 86.0781C335.207 84.0469 337.661 81.8464 340.031 79.4766C342.401 77.1068 344.305 74.1445 345.744 70.5898C346.59 70.082 347.479 69.8281 348.41 69.8281C349.341 69.8281 350.314 70.0397 351.33 70.4629C352.346 70.8861 353.319 71.3092 354.25 71.7324C354.504 71.9017 354.715 72.0286 354.885 72.1133C355.139 72.1979 355.35 72.2826 355.52 72.3672C355.52 73.2135 355.858 73.9329 356.535 74.5254C356.874 74.7793 357.085 74.9486 357.17 75.0332C357.255 75.1178 357.382 75.2025 357.551 75.2871C358.82 75.9642 359.624 76.6413 359.963 77.3184C360.555 79.265 361.613 80.7461 363.137 81.7617C362.967 82.6081 362.967 83.4121 363.137 84.1738C363.391 84.8509 363.687 85.5703 364.025 86.332C364.11 86.5859 364.195 86.8398 364.279 87.0938C364.364 87.3477 364.491 87.6439 364.66 87.9824L362.248 87.7285L362.629 90.1406C362.798 91.3255 362.671 92.6374 362.248 94.0762C361.91 95.515 361.486 96.6576 360.979 97.5039C361.063 99.7044 361.105 101.439 361.105 102.709C361.19 103.894 361.148 105.036 360.979 106.137C360.809 107.152 360.555 108.126 360.217 109.057C359.963 109.988 359.582 111.003 359.074 112.104C359.413 117.52 358.778 122.471 357.17 126.957C355.646 131.358 354.038 135.505 352.346 139.398C352.176 139.822 351.965 140.245 351.711 140.668C351.542 141.091 351.372 141.514 351.203 141.938C350.441 142.191 349.764 142.488 349.172 142.826C348.579 143.08 347.945 143.376 347.268 143.715ZM451.953 135.336C451.445 136.775 450.684 138.256 449.668 139.779C448.737 141.218 447.594 142.53 446.24 143.715C444.971 144.815 443.532 145.746 441.924 146.508C440.316 147.27 438.623 147.693 436.846 147.777C435.745 147.523 434.984 147.227 434.561 146.889C434.222 146.635 433.841 146.381 433.418 146.127C433.164 145.958 432.91 145.831 432.656 145.746C432.487 145.577 432.318 145.45 432.148 145.365L430.625 144.73L431.133 143.08C431.302 142.403 431.26 141.895 431.006 141.557C430.752 141.133 430.244 140.583 429.482 139.906C429.229 139.652 428.975 139.398 428.721 139.145C428.467 138.891 428.255 138.637 428.086 138.383L425.928 135.971L429.355 135.082C431.471 134.49 432.868 133.728 433.545 132.797C434.307 131.866 434.603 130.3 434.434 128.1C432.741 127.761 431.302 127.719 430.117 127.973C429.017 128.227 427.874 128.523 426.689 128.861C425.166 129.285 423.6 129.665 421.992 130.004C420.469 130.258 418.776 130.385 416.914 130.385C416.237 130.385 415.602 130.385 415.01 130.385C414.417 130.3 413.783 130.215 413.105 130.131L411.836 129.877C411.667 128.946 411.497 128.438 411.328 128.354C411.159 128.184 410.99 128.015 410.82 127.846C410.397 127.423 409.932 126.872 409.424 126.195C409.001 125.434 408.916 124.503 409.17 123.402C408.747 122.641 408.493 121.879 408.408 121.117C407.9 122.133 407.52 123.191 407.266 124.291L406.758 125.561L405.488 125.814C405.319 125.899 405.192 126.111 405.107 126.449C405.023 126.703 404.98 126.915 404.98 127.084L404.346 129.242C404.176 129.411 404.007 129.581 403.838 129.75C403.669 129.835 403.499 129.962 403.33 130.131C403.161 130.893 402.949 131.654 402.695 132.416C402.441 133.178 402.188 133.897 401.934 134.574C401.51 135.674 401.13 136.775 400.791 137.875C400.537 138.891 400.452 139.906 400.537 140.922L400.029 142.318C399.606 142.826 399.141 143.249 398.633 143.588C398.125 143.842 397.617 144.096 397.109 144.35C396.94 144.519 396.686 144.688 396.348 144.857C396.094 144.942 395.882 145.027 395.713 145.111L395.332 146.508L393.809 146.762C392.878 146.931 392.201 147.058 391.777 147.143C391.439 147.227 391.016 147.27 390.508 147.27L389.238 147.143C388.307 146.381 387.588 145.788 387.08 145.365C386.572 144.857 385.98 144.392 385.303 143.969C384.541 142.953 384.118 142.191 384.033 141.684C383.949 141.176 383.864 140.71 383.779 140.287C383.61 139.779 383.525 139.356 383.525 139.018C383.441 138.679 383.314 138.425 383.145 138.256L381.494 136.732L382.891 135.59L383.018 133.432C384.71 129.115 386.488 124.968 388.35 120.99C390.296 117.012 392.285 112.95 394.316 108.803C394.993 107.449 395.628 106.094 396.221 104.74C396.898 103.386 397.575 102.032 398.252 100.678C398.167 100.424 398.125 100.128 398.125 99.7891C398.125 99.4505 398.21 99.0697 398.379 98.6465C399.31 97.2077 400.072 95.9382 400.664 94.8379C401.257 93.653 401.849 92.4681 402.441 91.2832C403.118 89.8444 403.796 88.4479 404.473 87.0938C405.234 85.7396 406.165 84.3431 407.266 82.9043L409.297 82.0156C409.551 81.931 409.847 81.8464 410.186 81.7617C410.524 81.5924 410.905 81.5078 411.328 81.5078L413.232 81.7617C415.602 80.6615 417.676 79.138 419.453 77.1914C421.23 75.1602 423.05 72.748 424.912 69.9551L426.182 68.1777L427.832 69.1934C428.255 69.4473 428.848 69.7012 429.609 69.9551C430.371 70.1243 431.175 70.3359 432.021 70.5898C433.545 70.9284 434.984 71.3092 436.338 71.7324C437.692 72.1556 438.792 72.7904 439.639 73.6367C440.146 74.9909 440.443 76.0065 440.527 76.6836C440.612 77.3607 440.739 78.0378 440.908 78.7148C441.162 80.1536 441.374 81.5924 441.543 83.0312C441.797 84.4701 441.966 86.0781 442.051 87.8555C442.474 89.2943 442.812 90.7331 443.066 92.1719C443.405 93.526 443.701 94.9225 443.955 96.3613C444.378 98.3926 444.801 100.382 445.225 102.328C445.648 104.19 446.198 105.967 446.875 107.66C447.552 107.66 447.975 107.702 448.145 107.787C448.568 107.618 448.991 107.491 449.414 107.406C449.922 107.322 450.472 107.237 451.064 107.152L452.461 107.025L452.969 108.295C453.053 108.718 453.477 109.141 454.238 109.564C455.339 109.649 456.143 109.903 456.65 110.326C457.158 110.665 457.624 111.046 458.047 111.469C458.385 111.807 458.724 112.061 459.062 112.23L460.967 112.992L459.951 114.896C459.105 116.42 457.878 117.901 456.27 119.34C454.746 120.694 453.011 121.837 451.064 122.768C451.149 123.275 451.191 123.783 451.191 124.291C451.276 124.714 451.403 125.18 451.572 125.688C451.826 127.126 452.038 128.607 452.207 130.131C452.376 131.654 452.376 133.22 452.207 134.828L451.953 135.336ZM415.264 113.373C417.803 113.204 420.088 113.035 422.119 112.865C424.235 112.611 426.562 112.23 429.102 111.723C428.509 109.184 427.874 106.56 427.197 103.852C426.52 101.059 425.801 98.3079 425.039 95.5996L424.277 96.8691C422.585 98.6465 420.934 100.635 419.326 102.836C417.803 105.036 416.491 107.11 415.391 109.057C414.883 109.818 414.375 110.58 413.867 111.342C413.359 112.104 412.894 112.865 412.471 113.627C412.979 113.542 413.444 113.5 413.867 113.5C414.375 113.5 414.84 113.458 415.264 113.373Z" fill="black"/>
</svg>
