<svg width="500" height="200" viewBox="0 0 500 200" fill="none" xmlns="http://www.w3.org/2000/svg">
<g clip-path="url(#clip0_5_873)">
<rect width="500" height="200" fill="white"/>
<path d="M98.2667 103.867H123.867L111.333 68.9333L98.2667 103.867ZM126.267 136.4L133.733 135.6C134.089 135.6 134.533 135.422 135.067 135.067V133.2L126.267 109.467H96.1333L87.3333 133.2V134C87.3333 134.356 87.6 134.711 88.1333 135.067V135.333C88.1333 135.511 88.3111 135.6 88.6667 135.6H88.9333L96.4 136.4V142H70.5333V136.4L78 135.067L108.133 52.1333H118.267L148.933 132.667C148.933 133.2 148.933 133.644 148.933 134C149.111 134.178 149.2 134.356 149.2 134.533C149.733 134.889 150.089 135.067 150.267 135.067C150.622 135.067 150.889 135.244 151.067 135.6L156.933 136.4V142H126.267V136.4ZM218.448 62C217.915 62 217.648 62.5333 217.648 63.6V133.2C217.648 133.733 217.915 134.356 218.448 135.067C218.448 135.422 219.071 135.6 220.315 135.6L228.582 136.4V142H193.648V136.4L201.648 135.6H202.982C203.337 135.6 203.515 135.422 203.515 135.067C203.871 134.711 204.048 134.089 204.048 133.2V62C203.337 61.2889 202.537 60.9333 201.648 60.9333L193.648 60.1333V54.2667H228.582V60.1333L220.315 60.9333C219.071 60.9333 218.448 61.2889 218.448 62ZM289.712 103.867H315.312L302.779 68.9333L289.712 103.867ZM317.712 136.4L325.179 135.6C325.534 135.6 325.979 135.422 326.512 135.067V133.2L317.712 109.467H287.579L278.779 133.2V134C278.779 134.356 279.045 134.711 279.579 135.067V135.333C279.579 135.511 279.756 135.6 280.112 135.6H280.379L287.845 136.4V142H261.979V136.4L269.445 135.067L299.579 52.1333H309.712L340.379 132.667C340.379 133.2 340.379 133.644 340.379 134C340.556 134.178 340.645 134.356 340.645 134.533C341.179 134.889 341.534 135.067 341.712 135.067C342.068 135.067 342.334 135.244 342.512 135.6L348.379 136.4V142H317.712V136.4ZM409.894 62C409.36 62 409.094 62.5333 409.094 63.6V133.2C409.094 133.733 409.36 134.356 409.894 135.067C409.894 135.422 410.516 135.6 411.76 135.6L420.027 136.4V142H385.094V136.4L393.094 135.6H394.427C394.783 135.6 394.96 135.422 394.96 135.067C395.316 134.711 395.494 134.089 395.494 133.2V62C394.783 61.2889 393.983 60.9333 393.094 60.9333L385.094 60.1333V54.2667H420.027V60.1333L411.76 60.9333C410.516 60.9333 409.894 61.2889 409.894 62Z" fill="black"/>
</g>
<defs>
<clipPath id="clip0_5_873">
<rect width="500" height="200" fill="white"/>
</clipPath>
</defs>
</svg>
