<svg width="500" height="200" viewBox="0 0 500 200" fill="none" xmlns="http://www.w3.org/2000/svg">
<rect width="500" height="200" fill="white"/>
<path d="M129.55 124.765L127.074 130.668C122.123 133.165 117.278 134.963 112.538 136.063C107.799 137.206 102.636 137.777 97.0498 137.777C90.4906 137.777 84.3968 136.952 78.7686 135.302C73.1403 133.651 68.2103 131.303 63.9785 128.256C59.7891 125.167 56.3613 121.718 53.6953 117.909C51.0293 114.101 48.998 109.975 47.6016 105.531C46.2051 101.046 45.5068 96.1367 45.5068 90.8047C45.5068 77.3053 50.2041 66.1335 59.5986 57.2891C69.0355 48.4023 81.9001 43.959 98.1924 43.959C102.043 43.959 105.598 44.1917 108.856 44.6572C112.157 45.0804 116.156 45.9268 120.854 47.1963C125.593 48.4235 128.492 49.1429 129.55 49.3545C128.619 51.682 127.921 53.9671 127.455 56.21C126.778 59.807 126.312 63.9753 126.059 68.7148H122.06L121.996 61.2246C121.573 57.0775 119.267 53.9883 115.077 51.957C110.93 49.9258 104.836 48.9102 96.7959 48.9102C90.7868 48.9948 85.6875 49.7777 81.498 51.2588C77.3086 52.6976 73.6058 55.0039 70.3896 58.1777C67.2158 61.3092 64.6133 65.3083 62.582 70.1748C60.5508 74.999 59.514 81.0716 59.4717 88.3926C59.4717 101.215 63.3861 111.54 71.2148 119.369C79.0436 127.156 89.3903 131.049 102.255 131.049C108.052 131.049 113.427 130.245 118.378 128.637C121.763 127.536 125.128 125.801 128.471 123.432L129.55 124.765ZM155.524 49.8623V45.7998C157.175 45.8421 159.693 45.9056 163.078 45.9902L175.266 46.3076C177.678 46.3076 181.423 46.223 186.501 46.0537C193.103 45.7998 196.932 45.6729 197.99 45.6729C206.073 45.6729 211.955 46.3923 215.637 47.8311C219.361 49.2699 222.238 51.6185 224.27 54.877C226.301 58.0931 227.316 61.6055 227.316 65.4141C227.316 68.9688 226.364 72.5023 224.46 76.0146C222.556 79.527 219.784 82.4469 216.145 84.7744C212.548 87.1019 207.85 88.9004 202.053 90.1699C203.111 91.651 205.607 94.9518 209.543 100.072L225.539 121.146C230.109 127.029 232.775 130.308 233.537 130.985C233.918 131.282 234.299 131.493 234.68 131.62C235.314 131.832 236.711 131.938 238.869 131.938V136C235.653 135.746 232.839 135.619 230.427 135.619C227.93 135.619 224.862 135.746 221.223 136C218.472 132.826 213.859 126.627 207.385 117.401C203.788 112.281 200.614 108.007 197.863 104.579C193.42 98.9085 189.188 93.7669 185.168 89.1543L185.803 87.25C188.003 87.377 189.675 87.4404 190.817 87.4404C198.519 87.4404 204.359 85.6208 208.337 81.9814C212.315 78.3421 214.304 73.5391 214.304 67.5723C214.304 62.3672 212.59 58.2412 209.162 55.1943C205.734 52.1051 200.55 50.5605 193.61 50.5605C189.252 50.5605 184.978 51.2165 180.788 52.5283C180.619 54.8135 180.492 56.9505 180.407 58.9395C180.365 59.5319 180.217 65.6891 179.963 77.4111V105.595C179.963 111.35 180.048 116.957 180.217 122.416C180.301 126.436 180.576 128.827 181.042 129.589C181.55 130.351 182.354 130.922 183.454 131.303C184.554 131.641 187.601 131.853 192.595 131.938V136C186.586 135.661 181.063 135.492 176.027 135.492C171.965 135.492 165.131 135.661 155.524 136V131.938C160.518 131.853 163.565 131.641 164.665 131.303C165.765 130.922 166.527 130.414 166.95 129.779C167.458 128.933 167.775 126.881 167.902 123.622C167.945 122.733 168.029 116.724 168.156 105.595V76.2051C168.156 70.4499 168.093 64.8216 167.966 59.3203C167.839 55.3001 167.521 52.9303 167.014 52.2109C166.548 51.4492 165.765 50.8991 164.665 50.5605C163.607 50.1797 160.56 49.9469 155.524 49.8623ZM261.226 136V131.684C264.569 131.641 266.642 131.514 267.446 131.303C268.293 131.049 269.054 130.604 269.731 129.97C270.451 129.293 271.466 127.579 272.778 124.828C273.54 123.262 276.291 117.317 281.03 106.991L296.899 71.1904C298.634 67.2549 302.337 58.4951 308.008 44.9111H312.134L339.238 108.578C343.639 118.904 346.559 125.378 347.998 128.002C348.802 129.483 349.67 130.456 350.601 130.922C351.574 131.387 353.732 131.641 357.075 131.684V136C350.474 135.577 345.861 135.365 343.237 135.365L322.798 136V131.684C327.537 131.599 330.415 131.451 331.431 131.239C332.446 131.028 333.123 130.731 333.462 130.351C333.843 129.927 334.033 129.42 334.033 128.827C334.033 127.896 333.737 126.69 333.145 125.209L325.337 105.785H288.584L281.665 122.099C280.438 125.019 279.824 127.156 279.824 128.51C279.824 129.102 279.993 129.589 280.332 129.97C280.798 130.52 281.517 130.901 282.49 131.112C284.056 131.451 286.807 131.641 290.742 131.684V136C283.59 135.619 278.237 135.429 274.683 135.429C270.578 135.429 266.092 135.619 261.226 136ZM290.742 100.39H322.798L306.929 62.1133L290.742 100.39ZM384.192 136V132.001C388.636 131.959 391.556 131.62 392.952 130.985C393.545 130.731 393.968 130.329 394.222 129.779C394.645 128.933 394.941 126.711 395.11 123.114C395.364 117.528 395.491 112.704 395.491 108.642V76.2051C395.491 70.4499 395.428 64.8216 395.301 59.3203C395.174 55.3001 394.856 52.9303 394.349 52.2109C393.883 51.4492 393.1 50.8991 392 50.5605C390.942 50.1797 387.895 49.9469 382.859 49.8623V45.7998L400.95 46.1807L420.12 45.8633C429.303 45.7363 435.968 45.6729 440.115 45.6729C444.305 45.6729 448.261 45.9056 451.985 46.3711C451.308 48.7832 450.843 50.8779 450.589 52.6553C450.504 53.0361 450.123 57.4372 449.446 65.8584H445.447C445.49 61.542 445.215 57.6064 444.622 54.0518C442.295 53.0785 439.734 52.4225 436.941 52.084C432.202 51.4915 427.462 51.1953 422.723 51.1953C421.707 51.1953 419.443 51.2799 415.931 51.4492C412.418 51.6185 409.9 51.7666 408.377 51.8936C408.208 56.5908 408.081 60.9919 407.996 65.0967L407.742 86.5518C412.693 86.8057 417.243 86.9326 421.39 86.9326C426.425 86.9326 430.721 86.6999 434.275 86.2344C435.63 86.0651 436.497 85.7266 436.878 85.2188C437.259 84.7109 437.597 82.9759 437.894 80.0137L438.274 75.5703H442.083V76.7764L441.766 89.9795L442.083 104.77H437.64L437.449 100.453C437.365 97.3216 437.068 95.375 436.561 94.6133C436.095 93.8516 435.185 93.3226 433.831 93.0264C431.419 92.5186 426.743 92.2646 419.803 92.2646C416.967 92.2646 412.947 92.3704 407.742 92.582C407.531 96.8138 407.425 103.098 407.425 111.435C407.425 119.263 407.531 125.209 407.742 129.271C413.836 129.737 420.67 129.97 428.245 129.97C433.619 129.97 437.449 129.8 439.734 129.462C442.02 129.123 444.135 128.552 446.082 127.748C446.59 126.436 447.098 124.659 447.605 122.416C448.536 118.65 449.15 115.814 449.446 113.91H453.636C452.535 122.458 451.985 129.547 451.985 135.175C448.346 135.725 443.924 136 438.719 136L400.823 135.492C400.273 135.492 394.729 135.661 384.192 136Z" fill="black"/>
</svg>
