<svg width="150" height="40" viewBox="0 0 150 40" fill="none" xmlns="http://www.w3.org/2000/svg">
<path d="M28.7039 19.2998C28.5737 19.3975 28.4353 19.5033 28.2889 19.6172C28.1424 19.7311 28.0447 19.8776 27.9959 20.0566C27.9633 20.2357 27.9145 20.4391 27.8494 20.667C27.7843 20.8786 27.6378 21.0251 27.41 21.1064C27.296 21.139 27.0031 21.1797 26.531 21.2285C26.059 21.2611 25.5138 21.3018 24.8953 21.3506C24.2768 21.3994 23.6258 21.4401 22.9422 21.4727C22.2749 21.5052 21.6808 21.5133 21.16 21.4971C20.7368 21.4971 20.2241 21.5133 19.6219 21.5459C19.101 21.5785 18.45 21.6273 17.6687 21.6924C16.9038 21.7412 16.0005 21.8307 14.9588 21.9609C14.91 22.8887 14.8774 23.8571 14.8611 24.8662C14.8449 25.859 14.8286 26.8438 14.8123 27.8203C14.796 28.7969 14.7879 29.7327 14.7879 30.6279C14.7879 31.5068 14.7879 32.2799 14.7879 32.9473V35.2422C14.8204 35.5514 14.7716 35.8932 14.6414 36.2676C14.5275 36.6257 14.3322 36.8535 14.0555 36.9512C13.795 37.0326 13.5753 37.1139 13.3963 37.1953C13.2335 37.293 13.0545 37.3581 12.8592 37.3906C12.7615 37.4069 12.6232 37.415 12.4441 37.415C12.2814 37.415 12.1105 37.3988 11.9314 37.3662C11.7687 37.3337 11.6141 37.2686 11.4676 37.1709C11.3374 37.0732 11.2478 36.9349 11.199 36.7559C11.1339 36.5605 11.0607 36.3734 10.9793 36.1943C10.9142 35.999 10.8491 35.7223 10.784 35.3643C10.7189 34.9899 10.6538 34.4854 10.5887 33.8506C10.5236 33.2158 10.4747 32.3695 10.4422 31.3115C10.4096 30.4652 10.4178 29.3991 10.4666 28.1133C10.5317 26.8275 10.6131 25.4521 10.7107 23.9873C10.8247 22.5225 10.9467 21.0332 11.0769 19.5195C11.2234 17.9896 11.3618 16.5654 11.492 15.2471C11.6222 13.9287 11.7361 12.7731 11.8338 11.7803C11.9314 10.7874 12.0047 10.0794 12.0535 9.65625C12.0861 9.33073 12.1186 8.99707 12.1512 8.65527C12.1837 8.3623 12.2163 8.04492 12.2488 7.70312C12.2814 7.36133 12.3139 7.02767 12.3465 6.70215C12.0535 6.70215 11.7524 6.70215 11.4432 6.70215C11.1502 6.70215 10.9549 6.68587 10.8572 6.65332C10.6131 6.62077 10.3771 6.55566 10.1492 6.45801C9.92139 6.36035 9.71794 6.25456 9.5389 6.14062C9.35987 6.01042 9.20524 5.88021 9.07504 5.75C8.94483 5.61979 8.87158 5.48958 8.85531 5.35938C8.83903 5.26172 8.84717 5.1722 8.87972 5.09082C8.91227 5.00944 8.9611 4.94434 9.02621 4.89551C9.09131 4.8304 9.19711 4.78158 9.34359 4.74902C9.24593 4.47233 9.22966 4.27702 9.29476 4.16309C9.31104 4.09798 9.34359 4.05729 9.39242 4.04102C9.49007 4.00846 9.62028 3.96777 9.78304 3.91895C9.96208 3.85384 10.1004 3.7806 10.198 3.69922C10.2306 3.65039 10.2957 3.59342 10.3934 3.52832C10.5073 3.46322 10.6212 3.40625 10.7352 3.35742C10.8491 3.29232 10.9549 3.23535 11.0525 3.18652C11.1665 3.1377 11.2478 3.10514 11.2967 3.08887C11.3292 3.07259 11.492 3.04004 11.785 2.99121C12.0942 2.92611 12.4686 2.861 12.908 2.7959C13.3637 2.71452 13.852 2.63314 14.3728 2.55176C14.91 2.47038 15.4227 2.40527 15.9109 2.35645C16.2527 2.32389 16.8305 2.29134 17.6443 2.25879C18.4744 2.20996 19.4184 2.16927 20.4764 2.13672C21.5343 2.08789 22.6411 2.05534 23.7967 2.03906C24.9523 2.00651 26.0346 1.99023 27.0437 1.99023C27.9227 1.99023 28.6876 2.00651 29.3387 2.03906C29.9897 2.05534 30.4454 2.09603 30.7059 2.16113C31.0965 2.24251 31.4057 2.33203 31.6336 2.42969C31.8777 2.51107 32.0649 2.59245 32.1951 2.67383C32.3253 2.75521 32.4067 2.83659 32.4393 2.91797C32.4881 2.98307 32.5044 3.02376 32.4881 3.04004C32.4881 3.07259 32.4799 3.11328 32.4637 3.16211C32.4311 3.25977 32.3904 3.34115 32.3416 3.40625C32.5044 3.50391 32.602 3.60156 32.6346 3.69922C32.6508 3.76432 32.659 3.81315 32.659 3.8457C32.6427 3.91081 32.6102 4.0166 32.5613 4.16309C32.5288 4.30957 32.4962 4.47233 32.4637 4.65137C32.4311 4.81413 32.3986 4.98503 32.366 5.16406C32.3497 5.32682 32.3579 5.45703 32.3904 5.55469C32.4393 5.75 32.4718 5.91276 32.4881 6.04297C32.5044 6.17318 32.4718 6.27897 32.3904 6.36035C32.3579 6.3929 32.309 6.40918 32.2439 6.40918C32.1626 6.42546 32.0161 6.40918 31.8045 6.36035C31.8208 6.40918 31.7638 6.44987 31.6336 6.48242C31.5685 6.4987 31.5034 6.50684 31.4383 6.50684C31.3569 6.50684 31.0883 6.4987 30.6326 6.48242C30.1769 6.44987 29.5991 6.41732 28.8992 6.38477C28.1993 6.33594 27.4181 6.30339 26.5555 6.28711C25.6928 6.25456 24.8221 6.23828 23.9432 6.23828C23.3735 6.23828 22.8038 6.25456 22.2342 6.28711C21.6808 6.30339 21.1518 6.3278 20.6473 6.36035C19.8497 6.40918 19.0359 6.45801 18.2059 6.50684C17.3758 6.53939 16.5701 6.57194 15.7889 6.60449C15.6098 9.12728 15.4715 11.3164 15.3738 13.1719C15.2762 15.0273 15.2029 16.5329 15.1541 17.6885C16.0493 17.5094 16.8794 17.3792 17.6443 17.2979C18.4093 17.2002 19.0766 17.1188 19.6463 17.0537C20.2973 16.9886 20.8995 16.9398 21.4529 16.9072C22.1691 16.891 22.8527 16.891 23.5037 16.9072C24.1547 16.9235 24.7407 16.9479 25.2615 16.9805C25.7986 17.013 26.2544 17.0537 26.6287 17.1025C27.0193 17.1514 27.296 17.2002 27.4588 17.249C27.7518 17.3304 27.9715 17.4443 28.118 17.5908C28.2644 17.7373 28.3947 17.9408 28.5086 18.2012C28.6062 18.4453 28.6876 18.6732 28.7527 18.8848C28.8178 19.0801 28.8016 19.2184 28.7039 19.2998ZM45.2566 19.4463C45.2404 19.9183 45.1915 20.3903 45.1102 20.8623C45.045 21.318 44.9474 21.7575 44.8172 22.1807C44.687 22.5876 44.5242 22.9538 44.3289 23.2793C44.1499 23.6048 43.9464 23.8652 43.7186 24.0605C43.5232 24.2233 43.3686 24.3047 43.2547 24.3047C43.1408 24.3047 43.0431 24.2721 42.9617 24.207C42.8966 24.1419 42.8396 24.0687 42.7908 23.9873C42.742 23.9059 42.6769 23.8571 42.5955 23.8408C42.5304 23.8245 42.4409 23.8327 42.3269 23.8652C42.2293 23.8815 42.1235 23.8815 42.0096 23.8652C41.9119 23.849 41.8143 23.792 41.7166 23.6943C41.6352 23.5804 41.5783 23.3851 41.5457 23.1084C41.5131 22.7992 41.5213 22.4004 41.5701 21.9121C41.6352 21.4076 41.6678 20.9193 41.6678 20.4473C41.6678 20.0241 41.6189 19.6742 41.5213 19.3975C41.4399 19.1045 41.2853 18.958 41.0574 18.958C40.9435 18.958 40.74 19.0475 40.4471 19.2266C40.1704 19.3893 39.8611 19.7474 39.5193 20.3008C39.1775 20.8542 38.8357 21.6598 38.4939 22.7178C38.1521 23.7594 37.8755 25.151 37.6639 26.8926C37.6639 29.1387 37.6801 30.9453 37.7127 32.3125C37.7452 33.6797 37.7615 34.7458 37.7615 35.5107C37.7615 36.1618 37.7452 36.6257 37.7127 36.9023C37.6801 37.179 37.5988 37.3581 37.4686 37.4395C37.3872 37.4883 37.2244 37.5452 36.9803 37.6104C36.7524 37.6917 36.5001 37.765 36.2234 37.8301C35.963 37.8952 35.7107 37.9521 35.4666 38.001C35.2225 38.0498 35.0678 38.0661 35.0027 38.0498C34.9539 38.0335 34.8644 37.9766 34.7342 37.8789C34.604 37.7975 34.4656 37.6917 34.3191 37.5615C34.1889 37.4313 34.0669 37.293 33.9529 37.1465C33.839 37.0163 33.7739 36.9023 33.7576 36.8047C33.7251 36.6419 33.7088 36.2757 33.7088 35.7061C33.7251 35.1201 33.7332 34.4202 33.7332 33.6064C33.7495 32.7926 33.7658 31.9056 33.782 30.9453C33.7983 29.9688 33.8064 29.0003 33.8064 28.04C33.8064 27.4215 33.8227 26.738 33.8553 25.9893C33.9041 25.2243 33.9529 24.4512 34.0018 23.6699C34.0669 22.8887 34.132 22.1237 34.1971 21.375C34.2622 20.6263 34.3191 19.959 34.368 19.373C34.4331 18.7708 34.4819 18.2744 34.5144 17.8838C34.5633 17.4769 34.5958 17.2327 34.6121 17.1514C34.6284 17.0212 34.6853 16.9723 34.783 17.0049C34.8969 17.0374 35.0109 17.0944 35.1248 17.1758C35.255 17.2572 35.3689 17.3304 35.4666 17.3955C35.5643 17.4606 35.6294 17.4606 35.6619 17.3955C35.6945 17.249 35.8165 17.2327 36.0281 17.3467C36.2397 17.4443 36.435 17.5583 36.6141 17.6885C36.6792 17.7699 36.7524 17.8431 36.8338 17.9082C36.9314 17.957 37.021 18.0303 37.1023 18.1279C37.1837 18.2093 37.2488 18.3232 37.2977 18.4697C37.3628 18.6162 37.3953 18.8115 37.3953 19.0557C37.3953 19.2835 37.4116 19.6253 37.4441 20.0811C37.4767 20.5368 37.5174 21.0739 37.5662 21.6924C37.7452 21.1064 37.9568 20.488 38.201 19.8369C38.4614 19.1859 38.7706 18.5918 39.1287 18.0547C39.4868 17.5013 39.91 17.0456 40.3982 16.6875C40.8865 16.3294 41.4725 16.1504 42.156 16.1504C42.5304 16.1504 42.9047 16.2236 43.2791 16.3701C43.6534 16.5166 43.9871 16.7363 44.2801 17.0293C44.5893 17.306 44.8335 17.6478 45.0125 18.0547C45.1915 18.4616 45.2729 18.9255 45.2566 19.4463ZM62.615 36.8535C62.615 37 62.493 37.179 62.2488 37.3906C62.0047 37.6022 61.6954 37.708 61.3211 37.708C61.2072 37.708 60.9956 37.651 60.6863 37.5371C60.3934 37.4232 60.0841 37.2523 59.7586 37.0244C59.4331 36.8128 59.1401 36.5524 58.8797 36.2432C58.6193 35.9176 58.4809 35.5514 58.4646 35.1445C58.4321 34.9655 58.4158 34.7214 58.4158 34.4121C58.4158 34.0866 58.4158 33.7122 58.4158 33.2891C58.4158 32.638 58.4158 31.9137 58.4158 31.1162C58.4158 30.3187 58.4321 29.513 58.4646 28.6992C58.3507 29.2852 58.2124 29.8955 58.0496 30.5303C57.8868 31.1488 57.6834 31.7673 57.4393 32.3857C57.1951 33.0042 56.9103 33.6146 56.5848 34.2168C56.2592 34.819 55.8849 35.3968 55.4617 35.9502C55.2338 36.2432 54.9897 36.4954 54.7293 36.707C54.4852 36.9023 54.241 37.0651 53.9969 37.1953C53.7527 37.3418 53.5249 37.4476 53.3133 37.5127C53.1017 37.5778 52.9389 37.6104 52.825 37.6104C52.7599 37.6104 52.6053 37.5371 52.3611 37.3906C52.1333 37.2604 51.8566 37.0895 51.531 36.8779C51.2218 36.6501 50.8881 36.4059 50.5301 36.1455C50.172 35.8688 49.8302 35.6003 49.5047 35.3398C49.1792 35.0632 48.8862 34.8109 48.6258 34.583C48.3654 34.3389 48.1782 34.1436 48.0643 33.9971C47.9503 33.8343 47.8445 33.5576 47.7469 33.167C47.6655 32.7764 47.5922 32.2962 47.5271 31.7266C47.462 31.1569 47.4051 30.514 47.3562 29.7979C47.3237 29.0817 47.3074 28.3167 47.3074 27.5029C47.3074 27.0635 47.3156 26.4938 47.3318 25.7939C47.3481 25.0941 47.3807 24.3454 47.4295 23.5479C47.4783 22.734 47.5353 21.9202 47.6004 21.1064C47.6818 20.2764 47.7713 19.5358 47.8689 18.8848C47.9829 18.2174 48.1131 17.6803 48.2596 17.2734C48.406 16.8503 48.5769 16.6387 48.7723 16.6387C48.9025 16.6387 49.1303 16.6794 49.4559 16.7607C49.7814 16.8258 50.115 16.8584 50.4568 16.8584C50.9614 16.8584 51.3113 16.8177 51.5066 16.7363C51.7182 16.6387 51.8728 16.5898 51.9705 16.5898C52.1333 16.5898 52.2146 16.7282 52.2146 17.0049C52.2146 17.0863 52.2146 17.1676 52.2146 17.249C52.2146 17.3141 52.1984 17.3955 52.1658 17.4932C52.1495 17.5908 52.1088 17.8431 52.0437 18.25C51.9949 18.6569 51.9298 19.1777 51.8484 19.8125C51.7671 20.4473 51.6857 21.1634 51.6043 21.9609C51.5229 22.7422 51.4415 23.5641 51.3602 24.4268C51.295 25.2894 51.2381 26.1602 51.1893 27.0391C51.1404 27.918 51.116 28.7562 51.116 29.5537C51.116 30.0908 51.1241 30.6279 51.1404 31.165C51.173 31.7021 51.2218 32.1904 51.2869 32.6299C51.352 33.0693 51.4415 33.4274 51.5555 33.7041C51.6694 33.9645 51.8077 34.0947 51.9705 34.0947C52.117 34.0947 52.3204 34.0296 52.5809 33.8994C52.8575 33.7529 53.1749 33.4681 53.533 33.0449C53.9074 32.6217 54.3143 32.0195 54.7537 31.2383C55.1932 30.457 55.6652 29.4235 56.1697 28.1377C56.6906 26.8356 57.2277 25.2487 57.781 23.377C58.3507 21.4889 58.9285 19.2428 59.5144 16.6387C59.5144 16.5898 59.5389 16.5573 59.5877 16.541C59.6528 16.5085 59.726 16.4922 59.8074 16.4922C60.019 16.4922 60.2876 16.5166 60.6131 16.5654C60.9386 16.598 61.2478 16.6549 61.5408 16.7363C61.8501 16.8014 62.1105 16.8828 62.3221 16.9805C62.5499 17.0781 62.6639 17.1839 62.6639 17.2979C62.6639 18.0303 62.6313 18.8278 62.5662 19.6904C62.5011 20.5531 62.4279 21.4482 62.3465 22.376C62.2651 23.2874 62.1919 24.2233 62.1268 25.1836C62.0616 26.1439 62.0291 27.096 62.0291 28.04C62.0291 29.7327 62.0779 31.3522 62.1756 32.8984C62.2895 34.4284 62.436 35.7467 62.615 36.8535ZM93.4012 32.459C93.4012 32.5241 93.3605 32.6462 93.2791 32.8252C93.1977 33.0042 93.1001 33.1914 92.9861 33.3867C92.8885 33.582 92.7745 33.7692 92.6443 33.9482C92.5304 34.111 92.4327 34.2087 92.3514 34.2412C92.3025 34.2738 92.0828 34.3633 91.6922 34.5098C91.3178 34.64 90.8133 34.8027 90.1785 34.998C89.5437 35.1771 88.795 35.3724 87.9324 35.584C87.0861 35.7956 86.1583 35.999 85.1492 36.1943C84.1564 36.3734 83.0903 36.528 81.951 36.6582C80.8279 36.7721 79.6805 36.8372 78.5086 36.8535C77.532 36.8861 76.6206 36.9186 75.7742 36.9512C74.9279 36.9837 74.1385 37 73.406 37C72.9991 37 72.6085 36.9919 72.2342 36.9756C71.8761 36.9593 71.5343 36.9349 71.2088 36.9023C70.7531 36.8535 70.3136 36.7965 69.8904 36.7314C69.5161 36.6663 69.1255 36.585 68.7186 36.4873C68.3279 36.3896 67.9861 36.2594 67.6932 36.0967C67.6118 36.0804 67.5385 36.0397 67.4734 35.9746C67.3432 35.877 67.2863 35.7386 67.3025 35.5596C67.156 35.4782 67.0503 35.3887 66.9852 35.291C66.9526 35.2422 66.9282 35.2096 66.9119 35.1934C66.9119 35.1608 66.92 35.1201 66.9363 35.0713C66.9526 35.0062 67.0258 34.8841 67.156 34.7051C67.0421 34.6888 66.9526 34.6562 66.8875 34.6074C66.8387 34.5586 66.798 34.5016 66.7654 34.4365C66.7166 34.3714 66.6922 34.29 66.6922 34.1924C66.6922 34.0947 66.7085 33.9971 66.741 33.8994C66.7736 33.818 66.8143 33.7285 66.8631 33.6309C66.9282 33.5169 67.0258 33.403 67.156 33.2891C67.156 33.0775 67.1805 32.9229 67.2293 32.8252C67.2456 32.7601 67.27 32.7194 67.3025 32.7031C67.3188 32.6543 67.3839 32.6055 67.4978 32.5566C67.6118 32.5078 67.742 32.4671 67.8885 32.4346C68.035 32.402 68.1814 32.3776 68.3279 32.3613C68.4907 32.3451 68.629 32.3451 68.743 32.3613L68.7918 32.4102C68.8243 31.3359 68.865 30.1722 68.9139 28.9189C68.9627 27.6657 69.0115 26.502 69.0603 25.4277C69.1255 24.1745 69.1906 22.9294 69.2557 21.6924C69.3208 20.1624 69.4184 18.5511 69.5486 16.8584C69.6626 15.4098 69.8009 13.7822 69.9637 11.9756C70.1264 10.1689 70.338 8.32975 70.5984 6.45801L67.7908 6.50684C67.6118 6.50684 67.4409 6.48242 67.2781 6.43359C67.1479 6.40104 67.0096 6.34408 66.8631 6.2627C66.7166 6.18132 66.6108 6.05924 66.5457 5.89648C66.2853 5.86393 66.09 5.8151 65.9598 5.75C65.8458 5.6849 65.7563 5.61979 65.6912 5.55469C65.6261 5.48958 65.5936 5.4082 65.5936 5.31055C65.6261 5.13151 65.6831 4.99316 65.7644 4.89551C65.8458 4.79785 66.0086 4.68392 66.2527 4.55371C66.5294 4.45605 66.7247 4.33398 66.8387 4.1875C66.9689 4.02474 67.1072 3.92708 67.2537 3.89453C67.3188 3.87826 67.7013 3.80501 68.4012 3.6748C69.101 3.52832 69.9881 3.36556 71.0623 3.18652C72.1365 2.99121 73.3409 2.81217 74.6756 2.64941C76.0102 2.47038 77.3367 2.34017 78.6551 2.25879C79.7781 2.17741 80.893 2.12858 81.9998 2.1123C83.1228 2.09603 84.1727 2.08789 85.1492 2.08789C86.4838 2.08789 87.6069 2.10417 88.5184 2.13672C89.4298 2.16927 89.9751 2.20996 90.1541 2.25879C90.268 2.29134 90.382 2.34831 90.4959 2.42969C90.5773 2.51107 90.6668 2.625 90.7644 2.77148C90.8621 2.90169 90.9435 3.08073 91.0086 3.30859C91.1388 3.3737 91.2283 3.4388 91.2771 3.50391C91.3422 3.55273 91.3911 3.60156 91.4236 3.65039L91.4969 3.79688C91.4969 3.89453 91.4969 4.0166 91.4969 4.16309C91.4969 4.29329 91.4806 4.40723 91.448 4.50488C91.4318 4.53743 91.3992 4.56999 91.3504 4.60254C91.3178 4.63509 91.269 4.66764 91.2039 4.7002C91.1551 4.73275 91.09 4.7653 91.0086 4.79785C91.0249 5.02572 91.0249 5.20475 91.0086 5.33496C90.9923 5.46517 90.9679 5.57096 90.9353 5.65234C90.9028 5.73372 90.8621 5.79883 90.8133 5.84766C90.6993 5.92904 90.504 5.99414 90.2273 6.04297C89.9669 6.07552 89.4786 6.0918 88.7625 6.0918L73.6502 6.40918C73.6014 6.88118 73.5525 7.44271 73.5037 8.09375C73.4712 8.72852 73.4305 9.41211 73.3816 10.1445C73.3491 10.877 73.3084 11.6257 73.2596 12.3906C73.227 13.1556 73.1945 13.8962 73.1619 14.6123C73.1294 15.3122 73.0968 15.9632 73.0643 16.5654C73.0317 17.1676 73.0073 17.6641 72.991 18.0547C73.6095 17.8757 74.2931 17.7373 75.0418 17.6396C75.7905 17.5257 76.4904 17.4362 77.1414 17.3711C77.9064 17.306 78.6632 17.249 79.4119 17.2002C79.8839 17.1676 80.3396 17.1514 80.7791 17.1514C81.2186 17.1514 81.6417 17.1514 82.0486 17.1514C83.6762 17.1514 84.9295 17.1839 85.8084 17.249C86.7036 17.3141 87.2163 17.363 87.3465 17.3955C87.4441 17.4118 87.5499 17.4769 87.6639 17.5908C87.7778 17.7048 87.8836 17.8431 87.9812 18.0059C88.0789 18.1523 88.1603 18.3232 88.2254 18.5186C88.3068 18.6976 88.3475 18.8604 88.3475 19.0068C88.3475 19.2835 88.2742 19.5765 88.1277 19.8857C87.9812 20.195 87.8592 20.4473 87.7615 20.6426C87.6313 20.8542 87.4604 21.0576 87.2488 21.2529C87.0372 21.4482 86.8582 21.5296 86.7117 21.4971C86.6629 21.4971 86.4594 21.4889 86.1014 21.4727C85.7433 21.4564 85.2957 21.4401 84.7586 21.4238C84.2378 21.3913 83.6681 21.3669 83.0496 21.3506C82.4311 21.3343 81.8289 21.318 81.243 21.3018C80.657 21.2855 80.1281 21.2773 79.656 21.2773C79.2003 21.2611 78.8667 21.2529 78.6551 21.2529C78.3947 21.2529 78.0122 21.2773 77.5076 21.3262C77.0844 21.3587 76.4985 21.4157 75.7498 21.4971C75.0011 21.5785 74.049 21.6924 72.8934 21.8389C72.8608 22.5062 72.8445 23.2061 72.8445 23.9385C72.8445 24.6709 72.8445 25.444 72.8445 26.2578C72.8445 27.3809 72.8608 28.4958 72.8934 29.6025C72.9259 30.693 72.9829 31.6777 73.0643 32.5566H75.701C76.6287 32.5566 77.5483 32.5485 78.4598 32.5322C79.3712 32.4997 80.2013 32.459 80.95 32.4102C82.0405 32.3288 83.074 32.2393 84.0506 32.1416C85.0434 32.0439 85.9305 31.9544 86.7117 31.873C87.493 31.7917 88.144 31.7347 88.6648 31.7021C89.1857 31.6533 89.5112 31.637 89.6414 31.6533C89.7716 31.6859 89.9425 31.694 90.1541 31.6777C90.382 31.6615 90.618 31.637 90.8621 31.6045C91.1062 31.5719 91.3422 31.5394 91.5701 31.5068C91.798 31.4743 91.977 31.4417 92.1072 31.4092C92.2212 31.3929 92.3514 31.4255 92.4978 31.5068C92.6443 31.5719 92.7827 31.6696 92.9129 31.7998C93.0431 31.9137 93.1489 32.0358 93.2303 32.166C93.3279 32.2962 93.3849 32.3939 93.4012 32.459ZM110.027 22.6934C110.044 23.263 109.995 23.9629 109.881 24.793C109.767 25.6068 109.637 26.4857 109.49 27.4297C109.344 28.3574 109.205 29.3096 109.075 30.2861C108.945 31.2627 108.88 32.1823 108.88 33.0449C108.88 33.6146 108.921 34.1598 109.002 34.6807C109.083 35.1852 109.222 35.6247 109.417 35.999C109.531 36.2106 109.588 36.3978 109.588 36.5605C109.604 36.7233 109.596 36.8698 109.563 37C109.531 37.1139 109.498 37.2116 109.466 37.293C109.433 37.3906 109.433 37.4801 109.466 37.5615C109.498 37.6429 109.49 37.7324 109.441 37.8301C109.393 37.944 109.319 38.0417 109.222 38.123C109.124 38.2207 109.01 38.2858 108.88 38.3184C108.766 38.3672 108.66 38.359 108.562 38.2939C108.383 38.18 108.237 38.1149 108.123 38.0986C108.025 38.0824 107.936 38.0824 107.854 38.0986C107.789 38.1312 107.724 38.1637 107.659 38.1963C107.61 38.2288 107.545 38.2288 107.464 38.1963C107.187 38.0498 106.886 37.8789 106.561 37.6836C106.235 37.4883 106.023 37.2767 105.926 37.0488C105.861 36.9512 105.796 36.7884 105.73 36.5605C105.682 36.3327 105.633 36.0641 105.584 35.7549C105.551 35.4456 105.519 35.112 105.486 34.7539C105.454 34.3958 105.429 34.0459 105.413 33.7041C104.876 34.7132 104.298 35.5514 103.68 36.2188C103.077 36.8861 102.467 37.415 101.849 37.8057C101.246 38.2126 100.644 38.4974 100.042 38.6602C99.4559 38.8229 98.9187 38.9043 98.4305 38.9043C97.9259 38.9043 97.4783 38.8392 97.0877 38.709C96.7133 38.5788 96.4204 38.4242 96.2088 38.2451C95.4113 37.4476 94.8416 36.8047 94.4998 36.3164C94.1743 35.8118 94.0278 35.4049 94.0603 35.0957C94.1417 34.054 94.394 33.0938 94.8172 32.2148C95.2404 31.3359 95.7693 30.5303 96.4041 29.7979C97.0389 29.0492 97.7469 28.3818 98.5281 27.7959C99.3256 27.1937 100.132 26.6647 100.945 26.209C101.775 25.737 102.589 25.3464 103.387 25.0371C104.184 24.7116 104.909 24.4512 105.56 24.2559C105.527 23.377 105.486 22.612 105.438 21.9609C105.405 21.2936 105.348 20.8053 105.267 20.4961C105.022 19.487 104.648 18.7383 104.144 18.25C103.639 17.7454 103.029 17.4932 102.312 17.4932C101.857 17.4932 101.393 17.6641 100.921 18.0059C100.465 18.3477 100.05 18.8115 99.6756 19.3975C99.3012 19.9834 98.992 20.6589 98.7478 21.4238C98.52 22.1888 98.3979 22.9945 98.3816 23.8408C98.3816 24.0524 98.3898 24.2559 98.406 24.4512C98.4223 24.6465 98.4467 24.8499 98.4793 25.0615C98.4956 25.1755 98.4549 25.2568 98.3572 25.3057C98.2758 25.3545 98.17 25.3952 98.0398 25.4277C97.9096 25.444 97.7713 25.4603 97.6248 25.4766C97.4783 25.4928 97.3562 25.5173 97.2586 25.5498C97.1772 25.5824 97.1121 25.6068 97.0633 25.623C97.0144 25.623 96.9656 25.6149 96.9168 25.5986C96.868 25.5661 96.8029 25.5173 96.7215 25.4521C96.6564 25.387 96.5587 25.3057 96.4285 25.208C96.2983 25.1104 96.16 25.029 96.0135 24.9639C95.8833 24.8988 95.7612 24.8418 95.6473 24.793C95.5496 24.7441 95.4601 24.7035 95.3787 24.6709C95.3136 24.6221 95.281 24.5651 95.281 24.5C95.281 23.4909 95.5008 22.4492 95.9402 21.375C96.396 20.3008 96.9982 19.3242 97.7469 18.4453C98.5118 17.5501 99.3908 16.8177 100.384 16.248C101.393 15.6784 102.459 15.3936 103.582 15.3936C104.493 15.3936 105.283 15.5319 105.95 15.8086C106.618 16.0853 107.187 16.4434 107.659 16.8828C108.131 17.3223 108.514 17.8105 108.807 18.3477C109.116 18.8848 109.352 19.43 109.515 19.9834C109.694 20.5205 109.816 21.0332 109.881 21.5215C109.962 21.9935 110.011 22.3841 110.027 22.6934ZM105.608 27.0391C105.12 27.2181 104.583 27.4541 103.997 27.7471C103.411 28.04 102.817 28.39 102.215 28.7969C101.613 29.1875 101.01 29.6432 100.408 30.1641C99.8058 30.6849 99.2443 31.2627 98.7234 31.8975C98.1049 32.6299 97.6574 33.2809 97.3807 33.8506C97.104 34.4202 96.9331 34.9085 96.868 35.3154C96.8029 35.7061 96.8191 36.0153 96.9168 36.2432C97.0144 36.471 97.1284 36.6094 97.2586 36.6582C97.7631 36.8535 98.284 36.8779 98.8211 36.7314C99.3745 36.5687 99.9197 36.292 100.457 35.9014C101.01 35.4945 101.539 35.0143 102.044 34.4609C102.565 33.8913 103.053 33.3135 103.509 32.7275C103.965 32.1253 104.371 31.5394 104.729 30.9697C105.088 30.3838 105.381 29.8792 105.608 29.4561V27.0391ZM120.77 8.28906C120.77 8.38672 120.753 8.64714 120.721 9.07031C120.688 9.47721 120.639 10.0225 120.574 10.7061C120.525 11.3896 120.46 12.1872 120.379 13.0986C120.298 13.9938 120.216 14.9622 120.135 16.0039C121.16 15.8737 122.129 15.776 123.04 15.7109C123.968 15.6296 124.749 15.5889 125.384 15.5889C125.595 15.5889 125.783 15.6296 125.945 15.7109C126.108 15.7923 126.238 15.89 126.336 16.0039C126.45 16.1016 126.539 16.2155 126.604 16.3457C126.67 16.4596 126.71 16.5573 126.727 16.6387C126.727 16.7201 126.735 16.8014 126.751 16.8828C126.767 16.9479 126.775 17.0212 126.775 17.1025C126.775 17.4281 126.629 17.7536 126.336 18.0791C126.059 18.4046 125.636 18.6081 125.066 18.6895L119.866 19.251C119.785 20.4229 119.712 21.6273 119.646 22.8643C119.581 24.1012 119.516 25.3382 119.451 26.5752C119.402 27.7959 119.362 29.0003 119.329 30.1885C119.297 31.3766 119.28 32.4997 119.28 33.5576C119.28 34.2412 119.297 34.7946 119.329 35.2178C119.362 35.641 119.378 35.9176 119.378 36.0479C119.378 36.3245 119.321 36.6012 119.207 36.8779C119.109 37.1383 118.987 37.3743 118.841 37.5859C118.711 37.8138 118.564 37.9928 118.401 38.123C118.255 38.2695 118.133 38.3428 118.035 38.3428C117.449 38.3428 116.985 38.1556 116.644 37.7812C116.302 37.4232 116.041 36.9349 115.862 36.3164C115.7 35.6979 115.594 34.9899 115.545 34.1924C115.496 33.3949 115.472 32.5648 115.472 31.7021C115.472 29.6676 115.529 27.6331 115.643 25.5986C115.757 23.5479 115.919 21.5785 116.131 19.6904L113.079 20.0566C113.03 20.0566 112.981 20.0648 112.933 20.0811C112.884 20.0973 112.827 20.1055 112.762 20.1055C112.452 20.1055 112.208 20.0322 112.029 19.8857C111.834 19.7393 111.688 19.5684 111.59 19.373C111.492 19.1777 111.435 18.9824 111.419 18.7871C111.386 18.5755 111.37 18.4128 111.37 18.2988C111.37 18.071 111.403 17.8594 111.468 17.6641C111.533 17.4688 111.655 17.3467 111.834 17.2979C112.176 17.1676 112.77 17.0293 113.616 16.8828C114.479 16.7201 115.447 16.5573 116.521 16.3945C116.701 15.0762 116.88 13.8717 117.059 12.7812C117.254 11.6745 117.441 10.7223 117.62 9.9248C117.799 9.111 117.962 8.48438 118.108 8.04492C118.271 7.58919 118.41 7.36133 118.523 7.36133C118.556 7.36133 118.597 7.36947 118.646 7.38574C118.694 7.40202 118.735 7.41016 118.768 7.41016C118.865 7.41016 118.938 7.36133 118.987 7.26367C119.052 7.14974 119.166 7.09277 119.329 7.09277C119.476 7.09277 119.63 7.1416 119.793 7.23926C119.972 7.32064 120.127 7.42643 120.257 7.55664C120.403 7.68685 120.525 7.8252 120.623 7.97168C120.721 8.10189 120.77 8.20768 120.77 8.28906ZM141.277 17.8105C141.326 17.9082 141.351 18.0059 141.351 18.1035C141.367 18.2012 141.375 18.3151 141.375 18.4453C141.375 18.9661 141.098 19.5114 140.545 20.0811C140.008 20.6507 139.153 21.1715 137.981 21.6436C137.737 21.7412 137.518 21.79 137.322 21.79C137.078 21.79 136.867 21.7249 136.688 21.5947C136.525 21.4482 136.443 21.3018 136.443 21.1553C136.443 21.0576 136.5 20.9437 136.614 20.8135C136.744 20.6833 136.875 20.5531 137.005 20.4229C137.151 20.2926 137.282 20.1706 137.396 20.0566C137.526 19.9427 137.591 19.8532 137.591 19.7881C137.591 19.6579 137.485 19.5928 137.273 19.5928C136.948 19.5928 136.533 19.6904 136.028 19.8857C135.524 20.0648 134.987 20.3089 134.417 20.6182C133.864 20.9111 133.294 21.2367 132.708 21.5947C132.138 21.9365 131.626 22.2783 131.17 22.6201C130.714 22.9456 130.34 23.2386 130.047 23.499C129.77 23.7594 129.632 23.9466 129.632 24.0605C129.632 24.1257 129.697 24.1582 129.827 24.1582H130.535C130.975 24.1582 131.536 24.1826 132.22 24.2314C132.92 24.2803 133.652 24.3779 134.417 24.5244C135.182 24.6546 135.947 24.8499 136.712 25.1104C137.493 25.3545 138.185 25.6882 138.787 26.1113C139.406 26.5345 139.91 27.0472 140.301 27.6494C140.691 28.2516 140.887 28.9678 140.887 29.7979C140.887 30.221 140.813 30.6768 140.667 31.165C140.537 31.637 140.293 32.1253 139.935 32.6299C139.593 33.1182 139.121 33.6227 138.519 34.1436C137.916 34.6481 137.151 35.1527 136.224 35.6572C134.824 36.4059 133.514 36.9593 132.293 37.3174C131.089 37.6755 129.998 37.8545 129.021 37.8545C127.752 37.8545 126.751 37.5697 126.019 37C125.286 36.4303 124.92 35.6165 124.92 34.5586C124.92 33.7773 125.066 33.11 125.359 32.5566C125.669 32.0033 126.027 31.5475 126.434 31.1895C126.84 30.8151 127.247 30.5465 127.654 30.3838C128.061 30.2048 128.37 30.1071 128.582 30.0908C128.68 30.0908 128.761 30.0827 128.826 30.0664C128.908 30.0501 128.989 30.042 129.07 30.042C129.217 30.042 129.29 30.1315 129.29 30.3105V30.5547C129.29 30.6523 129.314 30.7419 129.363 30.8232C129.412 30.8883 129.437 30.9616 129.437 31.043C129.437 31.1406 129.314 31.2871 129.07 31.4824C128.842 31.6777 128.59 31.9056 128.313 32.166C128.037 32.4264 127.776 32.7031 127.532 32.9961C127.304 33.2891 127.19 33.5739 127.19 33.8506C127.19 34.1761 127.451 34.3389 127.972 34.3389C128.623 34.3389 129.306 34.2168 130.022 33.9727C130.755 33.7122 131.463 33.3867 132.146 32.9961C132.846 32.6055 133.506 32.166 134.124 31.6777C134.759 31.1732 135.312 30.6849 135.784 30.2129C136.256 29.7409 136.631 29.3014 136.907 28.8945C137.184 28.4714 137.322 28.1377 137.322 27.8936C137.322 27.6006 137.151 27.3646 136.81 27.1855C136.484 27.0065 136.028 26.86 135.442 26.7461C134.873 26.6322 134.205 26.5589 133.44 26.5264C132.675 26.4775 131.87 26.4531 131.023 26.4531C130.145 26.4531 129.412 26.4938 128.826 26.5752C128.257 26.6566 127.907 26.6973 127.776 26.6973C127.679 26.6973 127.516 26.6891 127.288 26.6729C127.076 26.6403 126.857 26.5671 126.629 26.4531C126.417 26.3229 126.23 26.1357 126.067 25.8916C125.905 25.6475 125.823 25.2975 125.823 24.8418C125.823 24.5326 125.888 24.1826 126.019 23.792C126.165 23.4014 126.409 22.9863 126.751 22.5469C127.109 22.0911 127.589 21.6029 128.191 21.082C128.81 20.5612 129.591 20.016 130.535 19.4463C131.528 18.8441 132.456 18.3558 133.318 17.9814C134.197 17.5908 134.987 17.2897 135.687 17.0781C136.403 16.8665 137.029 16.7282 137.566 16.6631C138.104 16.5817 138.527 16.541 138.836 16.541C139.568 16.541 140.114 16.6387 140.472 16.834C140.83 17.013 141.098 17.3385 141.277 17.8105Z" fill="#EC6C4E"/>
</svg>
