<svg width="21" height="355" viewBox="0 0 21 355" fill="none" xmlns="http://www.w3.org/2000/svg">
<path d="M9.16621 10.5695C10.7248 10.5695 12.1635 9.76022 12.6131 8.0218C13.0327 9.31063 14.2616 9.97003 15.7602 9.97003C18.158 9.97003 19.327 8.38147 19.327 5.14441V0.798365L5 0.798365V5.17439C5 9.28065 6.61853 10.5695 9.16621 10.5695ZM15.7902 8.47139C13.812 8.47139 13.1826 7.30245 13.1826 4.75477V2.35695H17.9482V5.23433C17.9482 7.30245 17.3188 8.47139 15.7902 8.47139ZM9.22616 9.0109C6.91826 9.0109 6.34877 7.84196 6.34877 5.11444V2.35695H11.8338V5.3842C11.8338 7.66213 11.0245 9.0109 9.22616 9.0109ZM10.0654 23.2708C13.752 23.4207 15.6104 21.9221 15.6104 19.1046C15.6104 16.3171 13.752 14.3989 10.2153 14.3989C6.40872 14.3989 4.70027 16.5569 4.70027 19.7041C4.70027 20.873 4.94005 21.7422 5.3297 22.4316H6.85831C6.28883 21.7122 5.9891 20.6932 5.9891 19.7041C5.9891 17.3362 7.45777 15.8676 10.0654 15.8376V23.2708ZM11.2943 15.9275C13.2125 16.1073 14.3215 17.4861 14.3215 19.0746C14.3215 20.843 13.2125 21.7422 11.2943 21.8321V15.9275ZM5 36.0603C5 36.0603 6.25886 35.6407 7.3079 35.6407H12.8229C14.7112 35.6407 15.6104 33.5426 15.6104 31.4744C15.6104 29.8559 15.2207 28.627 14.6213 27.7878H13.2725C13.9619 28.8668 14.3515 30.1257 14.3515 31.3845C14.3515 32.8832 13.8719 34.202 12.733 34.202C10.2153 34.202 12.8229 26.6788 8.05722 26.6788C5.62943 26.6788 4.70027 28.5071 4.70027 30.3355C4.70027 32.0739 5.29973 33.3627 6.22888 34.3219C5.62943 34.3818 5 34.5616 5 34.5616V36.0603ZM8.44687 34.172C7.06812 34.172 5.92916 32.3436 5.92916 30.5453C5.92916 29.3763 6.40872 28.1175 7.99728 28.1175C10.8147 28.1175 9.70572 32.7033 10.7248 34.172H8.44687ZM5 49.0091H15.4605V47.5704H9.46594C7.6376 47.5704 5.9891 45.802 5.9891 44.1835C5.9891 42.3851 7.09809 41.6658 8.44687 41.6658H15.4605V40.1971H8.26703C6.10899 40.1971 4.73025 41.6358 4.73025 44.0636C4.73025 45.5023 5.47956 46.7312 6.58856 47.5704H5V49.0091ZM6.43869 59.301C6.07902 58.2819 6.01907 57.8323 6.01907 57.2628C6.01907 56.0639 6.70845 55.7642 7.99728 55.7642H14.1717V58.7615H15.4605V55.7642H18.5477V54.2955H15.4605V52.7969H14.1717V54.2955H7.72752C5.92916 54.2955 4.79019 55.0748 4.79019 57.2029C4.79019 57.8024 4.91008 58.5517 5.14986 59.301H6.43869ZM15.4605 71.35V69.8513L7.00817 66.4344L15.4605 63.0175V61.4889L5.14986 65.6851L4.31063 65.3554C2.39237 64.5761 1.55313 64.1265 1.55313 62.9576C1.55313 62.5979 1.67302 61.9085 1.91281 61.0993H0.623978C0.414169 61.5788 0.264305 62.2682 0.264305 62.8677C0.264305 64.6361 1.22343 65.5352 3.3515 66.4045L15.4605 71.35ZM6.55858 92.0471C6.13896 90.9981 5.9891 90.0689 5.9891 89.1098C5.9891 86.8019 7.39782 85.2433 10.1253 85.2433C12.733 85.2433 14.2916 86.3223 14.2916 89.0498C14.2916 89.7692 14.2616 90.6684 13.8719 92.0471H15.2507C15.4905 91.028 15.6104 90.0689 15.6104 89.1098C15.6104 85.573 13.6022 83.8046 10.1253 83.8046C6.37875 83.8046 4.70027 85.9926 4.70027 89.0199C4.70027 90.1288 4.88011 91.088 5.11989 92.0471H6.55858ZM10.1553 105.618C14.0218 105.618 15.6403 103.34 15.6403 100.612C15.6403 97.8548 14.0218 95.6368 10.1553 95.6368C6.34877 95.6368 4.70027 97.8548 4.70027 100.612C4.70027 103.34 6.34877 105.618 10.1553 105.618ZM10.1553 104.149C7.09809 104.149 5.95913 102.56 5.95913 100.612C5.95913 98.6341 7.09809 97.0755 10.1553 97.0755C13.2725 97.0755 14.3515 98.6341 14.3515 100.612C14.3515 102.56 13.2725 104.149 10.1553 104.149ZM5 124.619H12.1335C14.3215 124.619 15.6104 123.3 15.6104 120.933C15.6104 119.524 14.891 118.295 13.9319 117.576C14.951 117.066 15.6104 116.017 15.6104 114.548C15.6104 113.26 14.921 112.061 13.9319 111.281H15.4605V109.813H5V111.281H10.9046C12.6131 111.281 14.3215 112.87 14.3215 114.339C14.3215 116.077 13.1526 116.557 11.8038 116.557H5V118.025H11.4142C13.0327 118.025 14.3215 119.464 14.3215 120.963C14.3215 122.491 13.3924 123.18 12.1035 123.18H5V124.619ZM10.0654 137.66C13.752 137.81 15.6104 136.311 15.6104 133.493C15.6104 130.706 13.752 128.788 10.2153 128.788C6.40872 128.788 4.70027 130.946 4.70027 134.093C4.70027 135.262 4.94005 136.131 5.3297 136.82H6.85831C6.28883 136.101 5.9891 135.082 5.9891 134.093C5.9891 131.725 7.45777 130.256 10.0654 130.226V137.66ZM11.2943 130.316C13.2125 130.496 14.3215 131.875 14.3215 133.463C14.3215 135.232 13.2125 136.131 11.2943 136.221V130.316ZM18.188 144.604C19.5068 144.604 20.1063 143.825 20.1063 143.016C20.1063 142.237 19.5368 141.547 18.6975 141.547C17.7984 141.547 17.2888 142.237 17.2888 143.016C17.2888 143.136 17.3488 143.376 17.4087 143.465C16.7193 143.346 15.9101 142.776 15.4305 142.177L14.9809 142.986C15.4305 143.585 16.6594 144.604 18.188 144.604ZM7.45777 155.508C10.9346 155.508 10.9046 149.963 13.0627 149.963C13.9319 149.963 14.3515 150.832 14.3515 152.361C14.3515 153.26 14.1717 154.309 13.8719 155.118H15.2507C15.4305 154.429 15.6403 153.35 15.6403 152.241C15.6403 149.753 14.4414 148.524 13.0327 148.524C9.85559 148.524 9.82561 154.039 7.48774 154.039C6.55858 154.039 5.95913 153.23 5.95913 151.702C5.95913 150.712 6.10899 149.813 6.76839 148.405H5.26975C4.88011 149.394 4.70027 150.742 4.70027 151.911C4.70027 154.249 6.01907 155.508 7.45777 155.508ZM18.9673 174.132C19.2071 173.383 19.267 172.694 19.267 172.184C19.267 169.966 18.218 169.277 15.8801 169.277H15.4605V167.958H14.1717V169.277H5V170.745H14.1717V173.443H15.4605V170.745H15.8202C17.3188 170.745 18.0082 170.895 18.0082 172.304C18.0082 172.724 17.9482 173.173 17.7084 174.132H18.9673ZM15.5504 181.866C15.5504 181.866 15.6104 181.536 15.6104 181.026C15.6104 179.857 15.0109 178.898 13.9918 178.419H15.4605V177.01H5V178.479H10.6649C12.0736 178.479 14.3515 179.108 14.3515 180.996C14.3515 181.476 14.2016 181.866 14.2016 181.866H15.5504ZM10.1553 193.926C14.0218 193.926 15.6403 191.648 15.6403 188.921C15.6403 186.163 14.0218 183.945 10.1553 183.945C6.34877 183.945 4.70027 186.163 4.70027 188.921C4.70027 191.648 6.34877 193.926 10.1553 193.926ZM10.1553 192.458C7.09809 192.458 5.95913 190.869 5.95913 188.921C5.95913 186.943 7.09809 185.384 10.1553 185.384C13.2725 185.384 14.3515 186.943 14.3515 188.921C14.3515 190.869 13.2725 192.458 10.1553 192.458ZM5 212.928H12.1335C14.3215 212.928 15.6104 211.609 15.6104 209.241C15.6104 207.832 14.891 206.603 13.9319 205.884C14.951 205.375 15.6104 204.326 15.6104 202.857C15.6104 201.568 14.921 200.369 13.9319 199.59H15.4605V198.121H5V199.59H10.9046C12.6131 199.59 14.3215 201.178 14.3215 202.647C14.3215 204.385 13.1526 204.865 11.8038 204.865H5V206.334H11.4142C13.0327 206.334 14.3215 207.772 14.3215 209.271C14.3215 210.8 13.3924 211.489 12.1035 211.489H5V212.928ZM5 235.977H12.0436C14.4414 235.977 15.6104 234.508 15.6104 232.17C15.6104 230.701 14.8311 229.413 13.9319 228.633H15.4605V227.165H5V228.633H10.9346C12.7629 228.633 14.3215 230.372 14.3215 232.17C14.3215 233.669 13.4823 234.538 11.8038 234.538H5V235.977ZM17.139 242.072H19.0272V240.604H17.139V242.072ZM5 242.072H15.4605V240.604H5V242.072ZM6.55858 254.531C6.13896 253.482 5.9891 252.553 5.9891 251.594C5.9891 249.286 7.39782 247.727 10.1253 247.727C12.733 247.727 14.2916 248.806 14.2916 251.534C14.2916 252.253 14.2616 253.152 13.8719 254.531H15.2507C15.4905 253.512 15.6104 252.553 15.6104 251.594C15.6104 248.057 13.6022 246.288 10.1253 246.288C6.37875 246.288 4.70027 248.476 4.70027 251.504C4.70027 252.613 4.88011 253.572 5.11989 254.531H6.55858ZM10.0654 267.082C13.752 267.232 15.6104 265.734 15.6104 262.916C15.6104 260.129 13.752 258.21 10.2153 258.21C6.40872 258.21 4.70027 260.368 4.70027 263.516C4.70027 264.685 4.94005 265.554 5.3297 266.243H6.85831C6.28883 265.524 5.9891 264.505 5.9891 263.516C5.9891 261.148 7.45777 259.679 10.0654 259.649V267.082ZM11.2943 259.739C13.2125 259.919 14.3215 261.298 14.3215 262.886C14.3215 264.655 13.2125 265.554 11.2943 265.644V259.739ZM7.45777 287.273C10.9346 287.273 10.9046 281.728 13.0627 281.728C13.9319 281.728 14.3515 282.597 14.3515 284.125C14.3515 285.025 14.1717 286.074 13.8719 286.883H15.2507C15.4305 286.194 15.6403 285.115 15.6403 284.006C15.6403 281.518 14.4414 280.289 13.0327 280.289C9.85559 280.289 9.82561 285.804 7.48774 285.804C6.55858 285.804 5.95913 284.995 5.95913 283.466C5.95913 282.477 6.10899 281.578 6.76839 280.169H5.26975C4.88011 281.158 4.70027 282.507 4.70027 283.676C4.70027 286.014 6.01907 287.273 7.45777 287.273ZM5 300.205H12.0436C14.4414 300.205 15.6104 298.736 15.6104 296.398C15.6104 294.929 14.8311 293.641 13.9319 292.861H15.4605V291.393H5V292.861H10.9346C12.7629 292.861 14.3215 294.6 14.3215 296.398C14.3215 297.897 13.4823 298.766 11.8038 298.766H5V300.205ZM5 313.404C5 313.404 6.25886 312.984 7.3079 312.984H12.8229C14.7112 312.984 15.6104 310.886 15.6104 308.818C15.6104 307.199 15.2207 305.971 14.6213 305.131H13.2725C13.9619 306.21 14.3515 307.469 14.3515 308.728C14.3515 310.227 13.8719 311.545 12.733 311.545C10.2153 311.545 12.8229 304.022 8.05722 304.022C5.62943 304.022 4.70027 305.851 4.70027 307.679C4.70027 309.417 5.29973 310.706 6.22888 311.665C5.62943 311.725 5 311.905 5 311.905V313.404ZM8.44687 311.516C7.06812 311.516 5.92916 309.687 5.92916 307.889C5.92916 306.72 6.40872 305.461 7.99728 305.461C10.8147 305.461 9.70572 310.047 10.7248 311.516H8.44687ZM6.55858 325.483C6.13896 324.434 5.9891 323.505 5.9891 322.546C5.9891 320.238 7.39782 318.68 10.1253 318.68C12.733 318.68 14.2916 319.759 14.2916 322.486C14.2916 323.205 14.2616 324.105 13.8719 325.483H15.2507C15.4905 324.464 15.6104 323.505 15.6104 322.546C15.6104 319.009 13.6022 317.241 10.1253 317.241C6.37875 317.241 4.70027 319.429 4.70027 322.456C4.70027 323.565 4.88011 324.524 5.11989 325.483H6.55858ZM5 338.365L10.9646 332.97L15.4605 337.945V336.027L11.0245 331.141L5 336.566V338.365ZM5 331.141H19.327V329.673H5V331.141ZM7.45777 348.043C10.9346 348.043 10.9046 342.498 13.0627 342.498C13.9319 342.498 14.3515 343.368 14.3515 344.896C14.3515 345.795 14.1717 346.844 13.8719 347.654H15.2507C15.4305 346.964 15.6403 345.885 15.6403 344.776C15.6403 342.289 14.4414 341.06 13.0327 341.06C9.85559 341.06 9.82561 346.575 7.48774 346.575C6.55858 346.575 5.95913 345.765 5.95913 344.237C5.95913 343.248 6.10899 342.349 6.76839 340.94H5.26975C4.88011 341.929 4.70027 343.278 4.70027 344.447C4.70027 346.784 6.01907 348.043 7.45777 348.043ZM6.28883 352.103C5.56948 352.103 5 352.673 5 353.392C5 354.111 5.56948 354.681 6.28883 354.681C7.00817 354.681 7.57766 354.111 7.57766 353.392C7.57766 352.673 7.00817 352.103 6.28883 352.103Z" fill="white"/>
</svg>
