<svg width="74" height="258" viewBox="0 0 74 258" fill="none" xmlns="http://www.w3.org/2000/svg">
<g clip-path="url(#clip0_1_57)">
<path d="M62.584 7.168C62.584 6.656 62.5413 5.93067 62.456 4.992C60.664 5.07733 58.264 5.12 55.256 5.12C55.2133 5.80267 55.192 6.38933 55.192 6.88C55.192 10.848 56.408 12.832 58.84 12.832C61.336 12.832 62.584 10.944 62.584 7.168ZM44.632 8.704C44.632 10.0907 45.016 11.2533 45.784 12.192C46.5733 13.1307 47.672 13.6 49.08 13.6C50.5093 13.6 51.6187 13.0667 52.408 12C53.1973 10.9547 53.592 9.696 53.592 8.224C53.592 6.77333 53.5387 5.728 53.432 5.088C51.7253 5.088 49.176 4.94933 45.784 4.672C45.464 5.07733 45.1867 5.664 44.952 6.432C44.7387 7.22133 44.632 7.97867 44.632 8.704ZM44.696 2.208C47.128 2.54933 50.5093 2.72 54.84 2.72C59.1707 2.72 62.2747 2.58133 64.152 2.304C64.408 3.88267 64.536 5.70667 64.536 7.776C64.536 9.84533 64.1093 11.616 63.256 13.088C62.4027 14.56 60.952 15.296 58.904 15.296C56.856 15.296 55.416 14.368 54.584 12.512C53.5813 14.88 51.7573 16.064 49.112 16.064C47.0853 16.064 45.5067 15.4027 44.376 14.08C43.2453 12.7787 42.68 11.1787 42.68 9.28C42.68 6.18667 43.352 3.82933 44.696 2.208ZM58.2 26.076C58.2 27.5693 57.7733 28.7747 56.92 29.692C56.088 30.6307 55.1813 31.1 54.2 31.1C53.2187 31.1 52.4507 30.9507 51.896 30.652C51.3413 30.3533 50.904 29.9587 50.584 29.468C50.264 28.9987 50.0187 28.316 49.848 27.42C49.592 26.0547 49.464 24.0067 49.464 21.276C47.928 21.4467 46.712 21.9053 45.816 22.652C44.92 23.42 44.472 24.5507 44.472 26.044C44.472 27.5373 45.0267 28.5933 46.136 29.212C45.7947 30.0653 45.3253 30.492 44.728 30.492C44.1307 30.492 43.64 30.0013 43.256 29.02C42.872 28.06 42.68 26.9827 42.68 25.788C42.68 23.7827 43.3093 22.14 44.568 20.86C45.848 19.58 47.7573 18.94 50.296 18.94C52.856 18.94 54.808 19.644 56.152 21.052C57.5173 22.4813 58.2 24.156 58.2 26.076ZM56.44 25.948C56.44 24.668 56.0027 23.5693 55.128 22.652C54.2533 21.756 52.8987 21.2867 51.064 21.244C51.064 24.2947 51.288 26.3213 51.736 27.324C51.928 27.7507 52.2053 28.1133 52.568 28.412C52.9307 28.732 53.4107 28.892 54.008 28.892C54.6267 28.892 55.1813 28.604 55.672 28.028C56.184 27.4733 56.44 26.78 56.44 25.948ZM52.984 45.0753L48.664 45.0113C46.2107 45.0113 44.376 45.2139 43.16 45.6193C42.9893 45.2779 42.904 44.8619 42.904 44.3713C42.904 43.9019 43.0107 43.5713 43.224 43.3793C43.4587 43.1873 43.8213 43.0593 44.312 42.9953C43.224 41.6726 42.68 40.3073 42.68 38.8993C42.68 35.6139 44.184 33.9713 47.192 33.9713C48.28 33.9713 49.08 34.2273 49.592 34.7393C50.104 35.2513 50.488 35.9553 50.744 36.8513C51.1707 38.4513 51.4587 40.4779 51.608 42.9313C53.4213 42.9313 54.6693 42.7073 55.352 42.2593C56.056 41.8113 56.408 40.8619 56.408 39.4113C56.408 38.8139 56.216 38.1953 55.832 37.5553C55.448 36.9153 54.8933 36.4353 54.168 36.1153C54.36 35.1339 54.7867 34.6432 55.448 34.6432C56.28 34.6432 56.9413 35.1553 57.432 36.1793C57.944 37.2033 58.2 38.5153 58.2 40.1153C58.2 41.7153 57.816 42.9419 57.048 43.7953C56.3013 44.6486 54.9467 45.0753 52.984 45.0753ZM49.976 42.8993C49.912 42.2806 49.8587 41.8113 49.816 41.4913C49.7733 41.1926 49.72 40.7766 49.656 40.2433C49.592 39.7313 49.528 39.3473 49.464 39.0913C49.4 38.8353 49.3147 38.5153 49.208 38.1313C49.1013 37.7686 48.984 37.4913 48.856 37.2993C48.728 37.1286 48.5893 36.9473 48.44 36.7552C48.1413 36.3926 47.7253 36.2113 47.192 36.2113C46.232 36.2113 45.5173 36.4886 45.048 37.0433C44.6 37.5979 44.376 38.3019 44.376 39.1553C44.376 40.6059 44.856 41.8326 45.816 42.8353C46.1147 42.8139 46.6587 42.8033 47.448 42.8033C48.2373 42.8033 49.08 42.8353 49.976 42.8993ZM56.76 61.551L49.496 61.423C46.7867 61.423 44.6747 61.6257 43.16 62.031C42.9893 61.6043 42.904 61.2097 42.904 60.847C42.904 59.8657 43.4373 59.375 44.504 59.375C43.288 57.839 42.68 56.143 42.68 54.287C42.68 51.2577 44.184 49.743 47.192 49.743L52.888 49.839C54.8293 49.839 56.44 49.6577 57.72 49.295C57.8907 49.7217 57.976 50.1697 57.976 50.639C57.976 51.1297 57.848 51.4923 57.592 51.727C57.3573 51.983 56.9413 52.111 56.344 52.111C56.344 52.111 53.5813 52.047 48.056 51.919C46.904 51.919 46.0187 52.1963 45.4 52.751C44.7813 53.327 44.472 54.063 44.472 54.959C44.472 56.495 45.0587 57.935 46.232 59.279C47.1493 59.2577 48.856 59.247 51.352 59.247C53.848 59.247 56.024 59.1723 57.88 59.023C57.944 59.3643 57.976 59.727 57.976 60.111C57.976 61.071 57.5707 61.551 56.76 61.551ZM56.152 67.0095C56.152 66.9455 56.0773 65.9535 55.928 64.0335C56.12 63.9695 56.4187 63.9375 56.824 63.9375C57.2507 63.9375 57.528 64.0975 57.656 64.4175C57.8053 64.7375 57.88 65.2815 57.88 66.0495V66.9455C59.3093 66.9028 60.504 66.8388 61.464 66.7535C61.528 67.0735 61.56 67.4255 61.56 67.8095C61.56 68.8335 61.1547 69.3455 60.344 69.3455C60.0453 69.3455 59.2133 69.3028 57.848 69.2175C57.848 71.9268 57.9013 73.7188 58.008 74.5935C57.8373 74.6788 57.56 74.7215 57.176 74.7215C56.8133 74.7215 56.5573 74.6042 56.408 74.3695C56.2587 74.1562 56.1733 73.7402 56.152 73.1215C56.1307 72.5242 56.12 71.2015 56.12 69.1535C53.816 69.1108 51.5653 69.0895 49.368 69.0895C47.192 69.0895 45.816 69.2922 45.24 69.6975C44.664 70.1242 44.376 70.7962 44.376 71.7135C44.376 72.6522 44.696 73.4415 45.336 74.0815C44.9307 74.4655 44.5253 74.6575 44.12 74.6575C43.7147 74.6575 43.3733 74.3802 43.096 73.8255C42.8187 73.2708 42.68 72.5988 42.68 71.8095C42.68 70.0388 43.192 68.7802 44.216 68.0335C45.24 67.3082 46.7653 66.9455 48.792 66.9455C52.6533 66.9882 55.1067 67.0095 56.152 67.0095ZM58.2 87.2195C58.2 87.9662 57.7307 88.3395 56.792 88.3395C55.8747 88.3395 54.2107 87.9555 51.8 87.1875C49.4107 86.4408 47.1067 85.5448 44.888 84.4995C40.8987 82.6222 37.8693 80.8515 35.8 79.1875C35.2453 78.7608 34.968 78.3448 34.968 77.9395C34.968 77.3422 35.3947 76.7555 36.248 76.1795C36.6533 76.8195 37.4853 77.6728 38.744 78.7395C39.9813 79.8062 41.2293 80.7342 42.488 81.5235C44.9627 80.7768 47.7787 79.7635 50.936 78.4835C54.1147 77.2035 56.1413 76.1048 57.016 75.1875C57.6987 75.9342 58.04 76.5422 58.04 77.0115C58.04 77.5022 57.6987 77.9182 57.016 78.2595C55.992 78.7715 54.2 79.5288 51.64 80.5315C49.1013 81.5342 46.9893 82.2808 45.304 82.7715C47.288 83.6888 49.4213 84.4888 51.704 85.1715C53.9867 85.8755 55.7893 86.2275 57.112 86.2275C57.2187 86.2275 57.528 86.2062 58.04 86.1635C58.1467 86.4835 58.2 86.8355 58.2 87.2195ZM44.472 105.04C44.472 105.68 44.6107 106.33 44.888 106.992C45.1653 107.653 45.5813 108.122 46.136 108.4C45.7947 109.253 45.368 109.68 44.856 109.68C44.152 109.68 43.608 109.189 43.224 108.208C42.8613 107.248 42.68 106.16 42.68 104.944C42.68 103.002 43.3093 101.381 44.568 100.08C45.848 98.7782 47.7467 98.1275 50.264 98.1275C51.608 98.1275 52.8027 98.3408 53.848 98.7675C54.9147 99.1942 55.7573 99.7595 56.376 100.464C57.592 101.893 58.2 103.461 58.2 105.168C58.2 106.256 57.9547 107.29 57.464 108.272C56.9733 109.253 56.28 109.744 55.384 109.744C54.616 109.744 54.1573 109.232 54.008 108.208C54.776 107.994 55.3627 107.536 55.768 106.832C56.1947 106.149 56.408 105.424 56.408 104.656C56.408 103.461 55.8747 102.448 54.808 101.616C53.7627 100.805 52.28 100.4 50.36 100.4C48.44 100.4 46.9787 100.826 45.976 101.68C44.9733 102.554 44.472 103.674 44.472 105.04ZM50.424 126.36C48.0773 126.36 46.2 125.72 44.792 124.44C43.384 123.16 42.68 121.475 42.68 119.384C42.68 117.315 43.384 115.64 44.792 114.36C46.2 113.08 48.0773 112.44 50.424 112.44C52.7707 112.44 54.648 113.08 56.056 114.36C57.4853 115.64 58.2 117.315 58.2 119.384C58.2 121.475 57.4853 123.16 56.056 124.44C54.648 125.72 52.7707 126.36 50.424 126.36ZM44.472 119.384C44.472 120.877 44.9733 122.04 45.976 122.872C46.9787 123.704 48.3547 124.12 50.104 124.12C51.8533 124.12 53.336 123.693 54.552 122.84C55.7893 121.987 56.408 120.824 56.408 119.352C56.408 117.88 55.896 116.728 54.872 115.896C53.8693 115.085 52.4933 114.68 50.744 114.68C48.9947 114.68 47.512 115.096 46.296 115.928C45.08 116.76 44.472 117.912 44.472 119.384ZM44.536 147.812L52.824 148.005C54.04 148.005 54.936 147.749 55.512 147.237C56.1093 146.746 56.408 146.095 56.408 145.285C56.408 144.047 55.8427 142.725 54.712 141.317C51.8107 141.359 49.496 141.381 47.768 141.381C46.0613 141.381 44.4827 141.445 43.032 141.573C42.968 141.231 42.936 140.869 42.936 140.485C42.936 139.525 43.3413 139.045 44.152 139.045C44.2373 139.045 44.664 139.055 45.432 139.077C47.2667 139.162 49.7307 139.205 52.824 139.205C55.2133 139.205 56.408 138.266 56.408 136.389C56.408 135.173 55.8213 133.861 54.648 132.453C51.7467 132.495 49.4427 132.516 47.736 132.516C46.0507 132.516 44.4827 132.581 43.032 132.709C42.968 132.367 42.936 132.005 42.936 131.621C42.936 130.661 43.3413 130.181 44.152 130.181C44.2373 130.181 45.016 130.202 46.488 130.245C47.9813 130.309 49.464 130.341 50.936 130.341C54.4347 130.341 56.696 130.138 57.72 129.733C57.8907 130.159 57.976 130.543 57.976 130.885C57.976 131.866 57.4427 132.357 56.376 132.357C56.9093 133.018 57.3467 133.807 57.688 134.725C58.0293 135.642 58.2 136.527 58.2 137.381C58.2 139.13 57.5067 140.314 56.12 140.933C56.696 141.509 57.1867 142.309 57.592 143.333C57.9973 144.378 58.2 145.413 58.2 146.437C58.2 147.482 57.8373 148.367 57.112 149.093C56.408 149.818 55.2667 150.181 53.688 150.181L47.992 150.085C46.0293 150.085 44.4187 150.266 43.16 150.629C42.9893 150.202 42.904 149.743 42.904 149.253C42.904 148.783 43.0213 148.421 43.256 148.165C43.512 147.93 43.9387 147.812 44.536 147.812ZM58.2 161.139C58.2 162.632 57.7733 163.837 56.92 164.755C56.088 165.693 55.1813 166.163 54.2 166.163C53.2187 166.163 52.4507 166.013 51.896 165.715C51.3413 165.416 50.904 165.021 50.584 164.531C50.264 164.061 50.0187 163.379 49.848 162.483C49.592 161.117 49.464 159.069 49.464 156.339C47.928 156.509 46.712 156.968 45.816 157.715C44.92 158.483 44.472 159.613 44.472 161.107C44.472 162.6 45.0267 163.656 46.136 164.275C45.7947 165.128 45.3253 165.555 44.728 165.555C44.1307 165.555 43.64 165.064 43.256 164.083C42.872 163.123 42.68 162.045 42.68 160.851C42.68 158.845 43.3093 157.203 44.568 155.923C45.848 154.643 47.7573 154.003 50.296 154.003C52.856 154.003 54.808 154.707 56.152 156.115C57.5173 157.544 58.2 159.219 58.2 161.139ZM56.44 161.01C56.44 159.731 56.0027 158.632 55.128 157.715C54.2533 156.819 52.8987 156.349 51.064 156.307C51.064 159.357 51.288 161.384 51.736 162.387C51.928 162.813 52.2053 163.176 52.568 163.475C52.9307 163.795 53.4107 163.955 54.008 163.955C54.6267 163.955 55.1813 163.667 55.672 163.091C56.184 162.536 56.44 161.843 56.44 161.01ZM62.136 171.498C63.1813 171.498 63.8107 170.975 64.024 169.93C64.3653 169.716 64.7387 169.61 65.144 169.61C65.5493 169.61 65.9013 169.791 66.2 170.154C66.52 170.516 66.68 170.964 66.68 171.498C66.68 172.031 66.4347 172.49 65.944 172.874C65.4533 173.279 64.6107 173.482 63.416 173.482C62.2427 173.482 61.0907 173.108 59.96 172.362C58.8293 171.636 58.264 170.772 58.264 169.77C58.264 169.215 58.584 168.938 59.224 168.938C59.3947 168.938 59.5227 168.948 59.608 168.97V169.13C59.608 169.812 59.864 170.378 60.376 170.826C60.888 171.274 61.4747 171.498 62.136 171.498ZM54.328 184.108C54.9467 183.873 55.448 183.393 55.832 182.668C56.216 181.942 56.408 181.196 56.408 180.428C56.408 179.681 56.2053 179.041 55.8 178.508C55.416 177.974 54.8827 177.708 54.2 177.708C53.5173 177.708 52.9947 177.985 52.632 178.54C52.2693 179.116 51.992 179.809 51.8 180.62C51.608 181.43 51.384 182.241 51.128 183.052C50.8933 183.862 50.456 184.545 49.816 185.1C49.176 185.676 48.344 185.964 47.32 185.964C45.8053 185.964 44.6533 185.42 43.864 184.332C43.0747 183.244 42.68 181.996 42.68 180.588C42.68 179.201 42.9253 177.996 43.416 176.972C43.9067 175.969 44.5147 175.468 45.24 175.468C45.8587 175.468 46.3067 175.948 46.584 176.908C45.9013 177.142 45.3787 177.644 45.016 178.411C44.6533 179.201 44.472 180.054 44.472 180.972C44.472 181.889 44.6747 182.625 45.08 183.18C45.4853 183.756 46.0613 184.044 46.808 184.044C47.5547 184.044 48.0987 183.756 48.44 183.18C48.7813 182.625 49.0373 181.942 49.208 181.132C49.4 180.321 49.6133 179.51 49.848 178.7C50.104 177.889 50.5733 177.196 51.256 176.62C51.9387 176.065 52.8667 175.788 54.04 175.788C55.2347 175.788 56.2267 176.332 57.016 177.42C57.8053 178.529 58.2 179.681 58.2 180.876C58.2 182.07 57.976 183.148 57.528 184.108C57.08 185.068 56.4933 185.548 55.768 185.548C55.0427 185.548 54.5627 185.068 54.328 184.108ZM44.568 197.344L56.088 197.408C56.088 196.704 56.0347 195.872 55.928 194.912C56.1413 194.848 56.4293 194.816 56.792 194.816C57.3893 194.816 57.7307 195.211 57.816 196C57.8587 196.47 57.88 196.939 57.88 197.408C61.08 197.408 63.2453 197.878 64.376 198.816C65.3787 199.67 65.88 200.95 65.88 202.656C65.88 203.424 65.7627 204.086 65.528 204.64C65.2933 205.195 64.9733 205.472 64.568 205.472C64.1627 205.472 63.672 205.259 63.096 204.832C63.7573 204.107 64.088 203.211 64.088 202.144C64.088 201.078 63.7147 200.374 62.968 200.032C62.2213 199.691 61.0267 199.52 59.384 199.52H57.88C57.88 201.59 57.9227 203.04 58.008 203.872C57.8373 203.958 57.56 204 57.176 204C56.8133 204 56.5573 203.883 56.408 203.648C56.2587 203.435 56.1733 203.03 56.152 202.432C56.1307 201.856 56.12 200.886 56.12 199.52H49.464C46.6267 199.52 44.5253 199.723 43.16 200.128C42.9893 199.744 42.904 199.296 42.904 198.784C42.904 198.272 43.032 197.899 43.288 197.664C43.544 197.451 43.9707 197.344 44.568 197.344ZM44.728 206.424L50.392 206.488C53.4427 206.488 55.9387 206.413 57.88 206.264C57.944 206.605 57.976 206.968 57.976 207.352C57.976 208.269 57.5707 208.728 56.76 208.728C56.7173 208.728 56.568 208.717 56.312 208.696C56.0773 208.696 55.8533 208.696 55.64 208.696C56.3013 209.122 56.888 209.688 57.4 210.392C57.9333 211.117 58.2 211.778 58.2 212.376C58.2 213.528 57.784 214.104 56.952 214.104C56.5467 214.104 56.0667 213.89 55.512 213.464C55.9173 212.994 56.12 212.472 56.12 211.896C56.12 211.32 55.8853 210.733 55.416 210.136C54.9467 209.538 54.328 209.037 53.56 208.632C52.8347 208.61 51.256 208.6 48.824 208.6C46.392 208.6 44.504 208.802 43.16 209.208C42.9893 208.824 42.904 208.365 42.904 207.832C42.904 207.32 43.0427 206.957 43.32 206.744C43.5973 206.53 44.0667 206.424 44.728 206.424ZM50.424 228.923C48.0773 228.923 46.2 228.283 44.792 227.003C43.384 225.723 42.68 224.037 42.68 221.947C42.68 219.877 43.384 218.203 44.792 216.923C46.2 215.643 48.0773 215.003 50.424 215.003C52.7707 215.003 54.648 215.643 56.056 216.923C57.4853 218.203 58.2 219.877 58.2 221.947C58.2 224.037 57.4853 225.723 56.056 227.003C54.648 228.283 52.7707 228.923 50.424 228.923ZM44.472 221.947C44.472 223.44 44.9733 224.603 45.976 225.435C46.9787 226.267 48.3547 226.683 50.104 226.683C51.8533 226.683 53.336 226.256 54.552 225.403C55.7893 224.549 56.408 223.387 56.408 221.915C56.408 220.443 55.896 219.291 54.872 218.459C53.8693 217.648 52.4933 217.243 50.744 217.243C48.9947 217.243 47.512 217.659 46.296 218.491C45.08 219.323 44.472 220.475 44.472 221.947ZM44.536 250.375L52.824 250.567C54.04 250.567 54.936 250.311 55.512 249.799C56.1093 249.308 56.408 248.658 56.408 247.847C56.408 246.61 55.8427 245.287 54.712 243.879C51.8107 243.922 49.496 243.943 47.768 243.943C46.0613 243.943 44.4827 244.007 43.032 244.135C42.968 243.794 42.936 243.431 42.936 243.047C42.936 242.087 43.3413 241.607 44.152 241.607C44.2373 241.607 44.664 241.618 45.432 241.639C47.2667 241.724 49.7307 241.767 52.824 241.767C55.2133 241.767 56.408 240.828 56.408 238.951C56.408 237.735 55.8213 236.423 54.648 235.015C51.7467 235.058 49.4427 235.079 47.736 235.079C46.0507 235.079 44.4827 235.143 43.032 235.271C42.968 234.93 42.936 234.567 42.936 234.183C42.936 233.223 43.3413 232.743 44.152 232.743C44.2373 232.743 45.016 232.764 46.488 232.807C47.9813 232.871 49.464 232.903 50.936 232.903C54.4347 232.903 56.696 232.7 57.72 232.295C57.8907 232.722 57.976 233.106 57.976 233.447C57.976 234.428 57.4427 234.919 56.376 234.919C56.9093 235.58 57.3467 236.37 57.688 237.287C58.0293 238.204 58.2 239.09 58.2 239.943C58.2 241.692 57.5067 242.876 56.12 243.495C56.696 244.071 57.1867 244.871 57.592 245.895C57.9973 246.94 58.2 247.975 58.2 248.999C58.2 250.044 57.8373 250.93 57.112 251.655C56.408 252.38 55.2667 252.743 53.688 252.743L47.992 252.647C46.0293 252.647 44.4187 252.828 43.16 253.191C42.9893 252.764 42.904 252.306 42.904 251.815C42.904 251.346 43.0213 250.983 43.256 250.727C43.512 250.492 43.9387 250.375 44.536 250.375ZM5.536 11.872L13.824 12.064C15.0187 12.064 15.9147 11.7653 16.512 11.168C17.1093 10.592 17.408 9.84533 17.408 8.928C17.408 7.47733 16.8213 6.048 15.648 4.64C12.7467 4.68267 10.4427 4.704 8.736 4.704C7.05067 4.704 5.48267 4.768 4.032 4.896C3.968 4.55467 3.936 4.192 3.936 3.808C3.936 2.848 4.34133 2.368 5.152 2.368C5.23733 2.368 6.016 2.38933 7.488 2.432C8.98133 2.496 10.464 2.528 11.936 2.528C15.4347 2.528 17.696 2.32533 18.72 1.92C18.8907 2.34667 18.976 2.73067 18.976 3.072C18.976 4.05333 18.4427 4.544 17.376 4.544C17.8667 5.184 18.2933 6.00533 18.656 7.008C19.0187 8.01067 19.2 9.06667 19.2 10.176C19.2 11.2853 18.8373 12.2347 18.112 13.024C17.408 13.8347 16.2667 14.24 14.688 14.24L8.992 14.144C7.02933 14.144 5.41867 14.3253 4.16 14.688C3.98933 14.2613 3.904 13.8027 3.904 13.312C3.904 12.8427 4.02133 12.48 4.256 12.224C4.512 11.9893 4.93867 11.872 5.536 11.872ZM5.728 18.8658L11.392 18.9298C14.4427 18.9298 16.9387 18.8551 18.88 18.7057C18.944 19.0471 18.976 19.4098 18.976 19.7938C18.976 20.7964 18.5707 21.2977 17.76 21.2977C17.6533 21.2977 17.2267 21.2764 16.48 21.2338C14.1973 21.1058 11.904 21.0418 9.6 21.0418C7.31733 21.0418 5.504 21.2444 4.16 21.6498C3.98933 21.2658 3.904 20.8071 3.904 20.2738C3.904 19.7618 4.04267 19.3991 4.32 19.1858C4.59733 18.9724 5.06667 18.8658 5.728 18.8658ZM22.368 21.5858C21.8987 21.5858 21.4933 21.4151 21.152 21.0738C20.832 20.7324 20.672 20.3378 20.672 19.8898C20.672 19.4631 20.832 19.0898 21.152 18.7698C21.472 18.4498 21.8773 18.2898 22.368 18.2898C22.8587 18.2898 23.264 18.4604 23.584 18.8018C23.9253 19.1431 24.096 19.5271 24.096 19.9538C24.096 20.4018 23.9253 20.7858 23.584 21.1058C23.264 21.4258 22.8587 21.5858 22.368 21.5858ZM5.472 31.7583C5.472 32.3983 5.61067 33.0489 5.888 33.7103C6.16533 34.3716 6.58133 34.8409 7.136 35.1183C6.79467 35.9716 6.368 36.3983 5.856 36.3983C5.152 36.3983 4.608 35.9076 4.224 34.9263C3.86133 33.9663 3.68 32.8783 3.68 31.6623C3.68 29.7209 4.30933 28.0996 5.568 26.7983C6.848 25.4969 8.74667 24.8463 11.264 24.8463C12.608 24.8463 13.8027 25.0596 14.848 25.4863C15.9147 25.9129 16.7573 26.4783 17.376 27.1823C18.592 28.6116 19.2 30.1796 19.2 31.8863C19.2 32.9743 18.9547 34.0089 18.464 34.9903C17.9733 35.9716 17.28 36.4623 16.384 36.4623C15.616 36.4623 15.1573 35.9503 15.008 34.9263C15.776 34.7129 16.3627 34.2543 16.768 33.5503C17.1947 32.8676 17.408 32.1423 17.408 31.3743C17.408 30.1796 16.8747 29.1663 15.808 28.3343C14.7627 27.5236 13.28 27.1183 11.36 27.1183C9.44 27.1183 7.97867 27.5449 6.976 28.3983C5.97333 29.2729 5.472 30.3929 5.472 31.7583ZM19.2 46.2948C19.2 47.7881 18.7733 48.9934 17.92 49.9108C17.088 50.8494 16.1813 51.3188 15.2 51.3188C14.2187 51.3188 13.4507 51.1694 12.896 50.8708C12.3413 50.5721 11.904 50.1774 11.584 49.6868C11.264 49.2174 11.0187 48.5348 10.848 47.6388C10.592 46.2734 10.464 44.2254 10.464 41.4948C8.928 41.6654 7.712 42.1241 6.816 42.8708C5.92 43.6388 5.472 44.7694 5.472 46.2628C5.472 47.7561 6.02667 48.8121 7.136 49.4308C6.79467 50.2841 6.32533 50.7108 5.728 50.7108C5.13067 50.7108 4.64 50.2201 4.256 49.2388C3.872 48.2788 3.68 47.2014 3.68 46.0068C3.68 44.0014 4.30933 42.3588 5.568 41.0788C6.848 39.7988 8.75733 39.1588 11.296 39.1588C13.856 39.1588 15.808 39.8628 17.152 41.2708C18.5173 42.7001 19.2 44.3748 19.2 46.2948ZM17.44 46.1667C17.44 44.8868 17.0027 43.7881 16.128 42.8708C15.2533 41.9748 13.8987 41.5054 12.064 41.4628C12.064 44.5134 12.288 46.5401 12.736 47.5428C12.928 47.9694 13.2053 48.3321 13.568 48.6308C13.9307 48.9508 14.4107 49.1108 15.008 49.1108C15.6267 49.1108 16.1813 48.8228 16.672 48.2468C17.184 47.6921 17.44 46.9988 17.44 46.1667ZM15.328 70.045C15.9467 69.8103 16.448 69.3303 16.832 68.605C17.216 67.8797 17.408 67.133 17.408 66.365C17.408 65.6183 17.2053 64.9783 16.8 64.445C16.416 63.9117 15.8827 63.645 15.2 63.645C14.5173 63.645 13.9947 63.9223 13.632 64.477C13.2693 65.053 12.992 65.7463 12.8 66.557C12.608 67.3677 12.384 68.1783 12.128 68.989C11.8933 69.7997 11.456 70.4823 10.816 71.037C10.176 71.613 9.344 71.901 8.32 71.901C6.80533 71.901 5.65333 71.357 4.864 70.269C4.07467 69.181 3.68 67.933 3.68 66.525C3.68 65.1383 3.92533 63.933 4.416 62.909C4.90667 61.9063 5.51467 61.405 6.24 61.405C6.85867 61.405 7.30667 61.885 7.584 62.845C6.90133 63.0797 6.37867 63.581 6.016 64.349C5.65333 65.1383 5.472 65.9917 5.472 66.909C5.472 67.8263 5.67467 68.5623 6.08 69.117C6.48533 69.693 7.06133 69.981 7.808 69.981C8.55467 69.981 9.09867 69.693 9.44 69.117C9.78133 68.5623 10.0373 67.8797 10.208 67.069C10.4 66.2583 10.6133 65.4477 10.848 64.637C11.104 63.8263 11.5733 63.133 12.256 62.557C12.9387 62.0023 13.8667 61.725 15.04 61.725C16.2347 61.725 17.2267 62.269 18.016 63.357C18.8053 64.4663 19.2 65.6183 19.2 66.813C19.2 68.0077 18.976 69.085 18.528 70.045C18.08 71.005 17.4933 71.485 16.768 71.485C16.0427 71.485 15.5627 71.005 15.328 70.045ZM5.536 85.0908L13.824 85.2828C15.0187 85.2828 15.9147 84.9841 16.512 84.3868C17.1093 83.8108 17.408 83.0641 17.408 82.1468C17.408 80.6961 16.8213 79.2668 15.648 77.8588C12.7467 77.9014 10.4427 77.9227 8.736 77.9227C7.05067 77.9227 5.48267 77.9868 4.032 78.1148C3.968 77.7734 3.936 77.4108 3.936 77.0268C3.936 76.0668 4.34133 75.5868 5.152 75.5868C5.23733 75.5868 6.016 75.6081 7.488 75.6508C8.98133 75.7148 10.464 75.7468 11.936 75.7468C15.4347 75.7468 17.696 75.5441 18.72 75.1388C18.8907 75.5654 18.976 75.9494 18.976 76.2908C18.976 77.2721 18.4427 77.7628 17.376 77.7628C17.8667 78.4028 18.2933 79.2241 18.656 80.2268C19.0187 81.2294 19.2 82.2854 19.2 83.3948C19.2 84.5041 18.8373 85.4534 18.112 86.2428C17.408 87.0534 16.2667 87.4588 14.688 87.4588L8.992 87.3628C7.02933 87.3628 5.41867 87.5441 4.16 87.9068C3.98933 87.4801 3.904 87.0214 3.904 86.5308C3.904 86.0614 4.02133 85.6988 4.256 85.4428C4.512 85.2081 4.93867 85.0908 5.536 85.0908ZM13.984 102.357L9.664 102.293C7.21067 102.293 5.376 102.495 4.16 102.901C3.98933 102.559 3.904 102.143 3.904 101.653C3.904 101.183 4.01067 100.853 4.224 100.661C4.45867 100.469 4.82133 100.341 5.312 100.277C4.224 98.9538 3.68 97.5885 3.68 96.1805C3.68 92.8952 5.184 91.2525 8.192 91.2525C9.28 91.2525 10.08 91.5085 10.592 92.0205C11.104 92.5325 11.488 93.2365 11.744 94.1325C12.1707 95.7325 12.4587 97.7592 12.608 100.213C14.4213 100.213 15.6693 99.9885 16.352 99.5405C17.056 99.0925 17.408 98.1432 17.408 96.6925C17.408 96.0952 17.216 95.4765 16.832 94.8365C16.448 94.1965 15.8933 93.7165 15.168 93.3965C15.36 92.4152 15.7867 91.9245 16.448 91.9245C17.28 91.9245 17.9413 92.4365 18.432 93.4605C18.944 94.4845 19.2 95.7965 19.2 97.3965C19.2 98.9965 18.816 100.223 18.048 101.077C17.3013 101.93 15.9467 102.357 13.984 102.357ZM10.976 100.181C10.912 99.5618 10.8587 99.0925 10.816 98.7725C10.7733 98.4738 10.72 98.0578 10.656 97.5245C10.592 97.0125 10.528 96.6285 10.464 96.3725C10.4 96.1165 10.3147 95.7965 10.208 95.4125C10.1013 95.0498 9.984 94.7725 9.856 94.5805C9.728 94.4098 9.58933 94.2285 9.44 94.0365C9.14133 93.6738 8.72533 93.4925 8.192 93.4925C7.232 93.4925 6.51733 93.7698 6.048 94.3245C5.6 94.8792 5.376 95.5832 5.376 96.4365C5.376 97.8872 5.856 99.1138 6.816 100.117C7.11467 100.095 7.65867 100.085 8.448 100.085C9.23733 100.085 10.08 100.117 10.976 100.181ZM5.472 113.008C5.472 113.648 5.61067 114.299 5.888 114.96C6.16533 115.622 6.58133 116.091 7.136 116.368C6.79467 117.222 6.368 117.648 5.856 117.648C5.152 117.648 4.608 117.158 4.224 116.176C3.86133 115.216 3.68 114.128 3.68 112.912C3.68 110.971 4.30933 109.35 5.568 108.048C6.848 106.747 8.74667 106.096 11.264 106.096C12.608 106.096 13.8027 106.31 14.848 106.736C15.9147 107.163 16.7573 107.728 17.376 108.432C18.592 109.862 19.2 111.43 19.2 113.136C19.2 114.224 18.9547 115.259 18.464 116.24C17.9733 117.222 17.28 117.712 16.384 117.712C15.616 117.712 15.1573 117.2 15.008 116.176C15.776 115.963 16.3627 115.504 16.768 114.8C17.1947 114.118 17.408 113.392 17.408 112.624C17.408 111.43 16.8747 110.416 15.808 109.584C14.7627 108.774 13.28 108.368 11.36 108.368C9.44 108.368 7.97867 108.795 6.976 109.648C5.97333 110.523 5.472 111.643 5.472 113.008ZM5.568 121.081L14.72 121.145H18.432C23.4667 121.145 26.5493 121.059 27.68 120.889C27.744 121.23 27.776 121.603 27.776 122.009C27.776 122.99 27.3707 123.481 26.56 123.481C26.4747 123.481 25.984 123.47 25.088 123.449C21.8027 123.321 19.1253 123.257 17.056 123.257C18.4853 124.771 19.2 126.403 19.2 128.153C19.2 129.539 18.816 130.595 18.048 131.321C17.3013 132.046 16.32 132.409 15.104 132.409C13.9093 132.409 12.832 132.003 11.872 131.193C10.9333 130.403 10.3893 129.294 10.24 127.865C8.36267 128.995 7.12533 129.838 6.528 130.393C5.952 130.969 5.664 131.587 5.664 132.249C5.664 132.59 5.70667 132.867 5.792 133.081C5.408 133.273 5.056 133.369 4.736 133.369C4.43733 133.369 4.192 133.145 4 132.697C3.78667 132.249 3.68 131.822 3.68 131.417C3.68 130.585 4.064 129.817 4.832 129.113C5.6 128.409 6.38933 127.811 7.2 127.321C8.032 126.83 8.71467 126.425 9.248 126.105C9.78133 125.785 10.144 125.571 10.336 125.465C10.4 124.91 10.624 124.633 11.008 124.633C11.2427 124.633 11.4987 124.686 11.776 124.793C11.6267 125.475 11.552 126.019 11.552 126.425C11.552 127.598 11.872 128.505 12.512 129.145C13.1733 129.785 13.8987 130.105 14.688 130.105C15.4773 130.105 16.128 129.881 16.64 129.433C17.152 129.006 17.408 128.419 17.408 127.673C17.408 126.926 17.184 126.147 16.736 125.337C16.3093 124.526 15.7653 123.833 15.104 123.257H10.464C7.62667 123.257 5.52533 123.459 4.16 123.865C3.98933 123.481 3.904 123.033 3.904 122.521C3.904 122.009 4.032 121.635 4.288 121.401C4.544 121.187 4.97067 121.081 5.568 121.081ZM15.328 144.139C15.9467 143.904 16.448 143.424 16.832 142.699C17.216 141.973 17.408 141.227 17.408 140.459C17.408 139.712 17.2053 139.072 16.8 138.539C16.416 138.005 15.8827 137.739 15.2 137.739C14.5173 137.739 13.9947 138.016 13.632 138.571C13.2693 139.147 12.992 139.84 12.8 140.651C12.608 141.461 12.384 142.272 12.128 143.083C11.8933 143.893 11.456 144.576 10.816 145.131C10.176 145.707 9.344 145.995 8.32 145.995C6.80533 145.995 5.65333 145.451 4.864 144.363C4.07467 143.275 3.68 142.027 3.68 140.619C3.68 139.232 3.92533 138.027 4.416 137.003C4.90667 136 5.51467 135.499 6.24 135.499C6.85867 135.499 7.30667 135.979 7.584 136.939C6.90133 137.173 6.37867 137.675 6.016 138.443C5.65333 139.232 5.472 140.085 5.472 141.003C5.472 141.92 5.67467 142.656 6.08 143.211C6.48533 143.787 7.06133 144.075 7.808 144.075C8.55467 144.075 9.09867 143.787 9.44 143.211C9.78133 142.656 10.0373 141.973 10.208 141.163C10.4 140.352 10.6133 139.541 10.848 138.731C11.104 137.92 11.5733 137.227 12.256 136.651C12.9387 136.096 13.8667 135.819 15.04 135.819C16.2347 135.819 17.2267 136.363 18.016 137.451C18.8053 138.56 19.2 139.712 19.2 140.907C19.2 142.101 18.976 143.179 18.528 144.139C18.08 145.099 17.4933 145.579 16.768 145.579C16.0427 145.579 15.5627 145.099 15.328 144.139ZM4.256 152.209C3.872 151.846 3.68 151.398 3.68 150.865C3.68 150.331 3.872 149.873 4.256 149.489C4.64 149.105 5.12 148.913 5.696 148.913C6.272 148.913 6.752 149.105 7.136 149.489C7.54133 149.873 7.744 150.331 7.744 150.865C7.744 151.398 7.54133 151.846 7.136 152.209C6.752 152.593 6.272 152.785 5.696 152.785C5.12 152.785 4.64 152.593 4.256 152.209Z" fill="white"/>
</g>
<defs>
<clipPath id="clip0_1_57">
<rect width="258" height="74" fill="white" transform="matrix(0 1 -1 0 74 0)"/>
</clipPath>
</defs>
</svg>
