<svg width="150" height="40" viewBox="0 0 150 40" fill="none" xmlns="http://www.w3.org/2000/svg">
<path d="M28.7041 19.2998C28.5739 19.3975 28.4355 19.5033 28.2891 19.6172C28.1426 19.7311 28.0449 19.8776 27.9961 20.0566C27.9635 20.2357 27.9147 20.4391 27.8496 20.667C27.7845 20.8786 27.638 21.0251 27.4102 21.1064C27.2962 21.139 27.0033 21.1797 26.5312 21.2285C26.0592 21.2611 25.514 21.3018 24.8955 21.3506C24.277 21.3994 23.626 21.4401 22.9424 21.4727C22.2751 21.5052 21.681 21.5133 21.1602 21.4971C20.737 21.4971 20.2243 21.5133 19.6221 21.5459C19.1012 21.5785 18.4502 21.6273 17.6689 21.6924C16.904 21.7412 16.0007 21.8307 14.959 21.9609C14.9102 22.8887 14.8776 23.8571 14.8613 24.8662C14.8451 25.859 14.8288 26.8438 14.8125 27.8203C14.7962 28.7969 14.7881 29.7327 14.7881 30.6279C14.7881 31.5068 14.7881 32.2799 14.7881 32.9473V35.2422C14.8206 35.5514 14.7718 35.8932 14.6416 36.2676C14.5277 36.6257 14.3324 36.8535 14.0557 36.9512C13.7952 37.0326 13.5755 37.1139 13.3965 37.1953C13.2337 37.293 13.0547 37.3581 12.8594 37.3906C12.7617 37.4069 12.6234 37.415 12.4443 37.415C12.2816 37.415 12.1107 37.3988 11.9316 37.3662C11.7689 37.3337 11.6143 37.2686 11.4678 37.1709C11.3376 37.0732 11.248 36.9349 11.1992 36.7559C11.1341 36.5605 11.0609 36.3734 10.9795 36.1943C10.9144 35.999 10.8493 35.7223 10.7842 35.3643C10.7191 34.9899 10.654 34.4854 10.5889 33.8506C10.5238 33.2158 10.4749 32.3695 10.4424 31.3115C10.4098 30.4652 10.418 29.3991 10.4668 28.1133C10.5319 26.8275 10.6133 25.4521 10.7109 23.9873C10.8249 22.5225 10.9469 21.0332 11.0771 19.5195C11.2236 17.9896 11.362 16.5654 11.4922 15.2471C11.6224 13.9287 11.7363 12.7731 11.834 11.7803C11.9316 10.7874 12.0049 10.0794 12.0537 9.65625C12.0863 9.33073 12.1188 8.99707 12.1514 8.65527C12.1839 8.3623 12.2165 8.04492 12.249 7.70312C12.2816 7.36133 12.3141 7.02767 12.3467 6.70215C12.0537 6.70215 11.7526 6.70215 11.4434 6.70215C11.1504 6.70215 10.9551 6.68587 10.8574 6.65332C10.6133 6.62077 10.3773 6.55566 10.1494 6.45801C9.92155 6.36035 9.7181 6.25456 9.53906 6.14062C9.36003 6.01042 9.2054 5.88021 9.0752 5.75C8.94499 5.61979 8.87174 5.48958 8.85547 5.35938C8.83919 5.26172 8.84733 5.1722 8.87988 5.09082C8.91243 5.00944 8.96126 4.94434 9.02637 4.89551C9.09147 4.8304 9.19727 4.78158 9.34375 4.74902C9.24609 4.47233 9.22982 4.27702 9.29492 4.16309C9.3112 4.09798 9.34375 4.05729 9.39258 4.04102C9.49023 4.00846 9.62044 3.96777 9.7832 3.91895C9.96224 3.85384 10.1006 3.7806 10.1982 3.69922C10.2308 3.65039 10.2959 3.59342 10.3936 3.52832C10.5075 3.46322 10.6214 3.40625 10.7354 3.35742C10.8493 3.29232 10.9551 3.23535 11.0527 3.18652C11.1667 3.1377 11.248 3.10514 11.2969 3.08887C11.3294 3.07259 11.4922 3.04004 11.7852 2.99121C12.0944 2.92611 12.4688 2.861 12.9082 2.7959C13.3639 2.71452 13.8522 2.63314 14.373 2.55176C14.9102 2.47038 15.4229 2.40527 15.9111 2.35645C16.2529 2.32389 16.8307 2.29134 17.6445 2.25879C18.4746 2.20996 19.4186 2.16927 20.4766 2.13672C21.5345 2.08789 22.6413 2.05534 23.7969 2.03906C24.9525 2.00651 26.0348 1.99023 27.0439 1.99023C27.9229 1.99023 28.6878 2.00651 29.3389 2.03906C29.9899 2.05534 30.4456 2.09603 30.7061 2.16113C31.0967 2.24251 31.4059 2.33203 31.6338 2.42969C31.8779 2.51107 32.0651 2.59245 32.1953 2.67383C32.3255 2.75521 32.4069 2.83659 32.4395 2.91797C32.4883 2.98307 32.5046 3.02376 32.4883 3.04004C32.4883 3.07259 32.4801 3.11328 32.4639 3.16211C32.4313 3.25977 32.3906 3.34115 32.3418 3.40625C32.5046 3.50391 32.6022 3.60156 32.6348 3.69922C32.651 3.76432 32.6592 3.81315 32.6592 3.8457C32.6429 3.91081 32.6104 4.0166 32.5615 4.16309C32.529 4.30957 32.4964 4.47233 32.4639 4.65137C32.4313 4.81413 32.3988 4.98503 32.3662 5.16406C32.3499 5.32682 32.3581 5.45703 32.3906 5.55469C32.4395 5.75 32.472 5.91276 32.4883 6.04297C32.5046 6.17318 32.472 6.27897 32.3906 6.36035C32.3581 6.3929 32.3092 6.40918 32.2441 6.40918C32.1628 6.42546 32.0163 6.40918 31.8047 6.36035C31.821 6.40918 31.764 6.44987 31.6338 6.48242C31.5687 6.4987 31.5036 6.50684 31.4385 6.50684C31.3571 6.50684 31.0885 6.4987 30.6328 6.48242C30.1771 6.44987 29.5993 6.41732 28.8994 6.38477C28.1995 6.33594 27.4183 6.30339 26.5557 6.28711C25.693 6.25456 24.8223 6.23828 23.9434 6.23828C23.3737 6.23828 22.804 6.25456 22.2344 6.28711C21.681 6.30339 21.152 6.3278 20.6475 6.36035C19.8499 6.40918 19.0361 6.45801 18.2061 6.50684C17.376 6.53939 16.5703 6.57194 15.7891 6.60449C15.61 9.12728 15.4717 11.3164 15.374 13.1719C15.2764 15.0273 15.2031 16.5329 15.1543 17.6885C16.0495 17.5094 16.8796 17.3792 17.6445 17.2979C18.4095 17.2002 19.0768 17.1188 19.6465 17.0537C20.2975 16.9886 20.8997 16.9398 21.4531 16.9072C22.1693 16.891 22.8529 16.891 23.5039 16.9072C24.1549 16.9235 24.7409 16.9479 25.2617 16.9805C25.7988 17.013 26.2546 17.0537 26.6289 17.1025C27.0195 17.1514 27.2962 17.2002 27.459 17.249C27.752 17.3304 27.9717 17.4443 28.1182 17.5908C28.2646 17.7373 28.3949 17.9408 28.5088 18.2012C28.6064 18.4453 28.6878 18.6732 28.7529 18.8848C28.818 19.0801 28.8018 19.2184 28.7041 19.2998ZM45.2568 19.4463C45.2406 19.9183 45.1917 20.3903 45.1104 20.8623C45.0452 21.318 44.9476 21.7575 44.8174 22.1807C44.6872 22.5876 44.5244 22.9538 44.3291 23.2793C44.1501 23.6048 43.9466 23.8652 43.7188 24.0605C43.5234 24.2233 43.3688 24.3047 43.2549 24.3047C43.141 24.3047 43.0433 24.2721 42.9619 24.207C42.8968 24.1419 42.8398 24.0687 42.791 23.9873C42.7422 23.9059 42.6771 23.8571 42.5957 23.8408C42.5306 23.8245 42.4411 23.8327 42.3271 23.8652C42.2295 23.8815 42.1237 23.8815 42.0098 23.8652C41.9121 23.849 41.8145 23.792 41.7168 23.6943C41.6354 23.5804 41.5785 23.3851 41.5459 23.1084C41.5133 22.7992 41.5215 22.4004 41.5703 21.9121C41.6354 21.4076 41.668 20.9193 41.668 20.4473C41.668 20.0241 41.6191 19.6742 41.5215 19.3975C41.4401 19.1045 41.2855 18.958 41.0576 18.958C40.9437 18.958 40.7402 19.0475 40.4473 19.2266C40.1706 19.3893 39.8613 19.7474 39.5195 20.3008C39.1777 20.8542 38.8359 21.6598 38.4941 22.7178C38.1523 23.7594 37.8757 25.151 37.6641 26.8926C37.6641 29.1387 37.6803 30.9453 37.7129 32.3125C37.7454 33.6797 37.7617 34.7458 37.7617 35.5107C37.7617 36.1618 37.7454 36.6257 37.7129 36.9023C37.6803 37.179 37.599 37.3581 37.4688 37.4395C37.3874 37.4883 37.2246 37.5452 36.9805 37.6104C36.7526 37.6917 36.5003 37.765 36.2236 37.8301C35.9632 37.8952 35.7109 37.9521 35.4668 38.001C35.2227 38.0498 35.068 38.0661 35.0029 38.0498C34.9541 38.0335 34.8646 37.9766 34.7344 37.8789C34.6042 37.7975 34.4658 37.6917 34.3193 37.5615C34.1891 37.4313 34.0671 37.293 33.9531 37.1465C33.8392 37.0163 33.7741 36.9023 33.7578 36.8047C33.7253 36.6419 33.709 36.2757 33.709 35.7061C33.7253 35.1201 33.7334 34.4202 33.7334 33.6064C33.7497 32.7926 33.766 31.9056 33.7822 30.9453C33.7985 29.9688 33.8066 29.0003 33.8066 28.04C33.8066 27.4215 33.8229 26.738 33.8555 25.9893C33.9043 25.2243 33.9531 24.4512 34.002 23.6699C34.0671 22.8887 34.1322 22.1237 34.1973 21.375C34.2624 20.6263 34.3193 19.959 34.3682 19.373C34.4333 18.7708 34.4821 18.2744 34.5146 17.8838C34.5635 17.4769 34.596 17.2327 34.6123 17.1514C34.6286 17.0212 34.6855 16.9723 34.7832 17.0049C34.8971 17.0374 35.0111 17.0944 35.125 17.1758C35.2552 17.2572 35.3691 17.3304 35.4668 17.3955C35.5645 17.4606 35.6296 17.4606 35.6621 17.3955C35.6947 17.249 35.8167 17.2327 36.0283 17.3467C36.2399 17.4443 36.4352 17.5583 36.6143 17.6885C36.6794 17.7699 36.7526 17.8431 36.834 17.9082C36.9316 17.957 37.0212 18.0303 37.1025 18.1279C37.1839 18.2093 37.249 18.3232 37.2979 18.4697C37.363 18.6162 37.3955 18.8115 37.3955 19.0557C37.3955 19.2835 37.4118 19.6253 37.4443 20.0811C37.4769 20.5368 37.5176 21.0739 37.5664 21.6924C37.7454 21.1064 37.957 20.488 38.2012 19.8369C38.4616 19.1859 38.7708 18.5918 39.1289 18.0547C39.487 17.5013 39.9102 17.0456 40.3984 16.6875C40.8867 16.3294 41.4727 16.1504 42.1562 16.1504C42.5306 16.1504 42.9049 16.2236 43.2793 16.3701C43.6536 16.5166 43.9873 16.7363 44.2803 17.0293C44.5895 17.306 44.8337 17.6478 45.0127 18.0547C45.1917 18.4616 45.2731 18.9255 45.2568 19.4463ZM62.6152 36.8535C62.6152 37 62.4932 37.179 62.249 37.3906C62.0049 37.6022 61.6956 37.708 61.3213 37.708C61.2074 37.708 60.9958 37.651 60.6865 37.5371C60.3936 37.4232 60.0843 37.2523 59.7588 37.0244C59.4333 36.8128 59.1403 36.5524 58.8799 36.2432C58.6195 35.9176 58.4811 35.5514 58.4648 35.1445C58.4323 34.9655 58.416 34.7214 58.416 34.4121C58.416 34.0866 58.416 33.7122 58.416 33.2891C58.416 32.638 58.416 31.9137 58.416 31.1162C58.416 30.3187 58.4323 29.513 58.4648 28.6992C58.3509 29.2852 58.2126 29.8955 58.0498 30.5303C57.887 31.1488 57.6836 31.7673 57.4395 32.3857C57.1953 33.0042 56.9105 33.6146 56.585 34.2168C56.2594 34.819 55.8851 35.3968 55.4619 35.9502C55.234 36.2432 54.9899 36.4954 54.7295 36.707C54.4854 36.9023 54.2412 37.0651 53.9971 37.1953C53.7529 37.3418 53.5251 37.4476 53.3135 37.5127C53.1019 37.5778 52.9391 37.6104 52.8252 37.6104C52.7601 37.6104 52.6055 37.5371 52.3613 37.3906C52.1335 37.2604 51.8568 37.0895 51.5312 36.8779C51.222 36.6501 50.8883 36.4059 50.5303 36.1455C50.1722 35.8688 49.8304 35.6003 49.5049 35.3398C49.1794 35.0632 48.8864 34.8109 48.626 34.583C48.3656 34.3389 48.1784 34.1436 48.0645 33.9971C47.9505 33.8343 47.8447 33.5576 47.7471 33.167C47.6657 32.7764 47.5924 32.2962 47.5273 31.7266C47.4622 31.1569 47.4053 30.514 47.3564 29.7979C47.3239 29.0817 47.3076 28.3167 47.3076 27.5029C47.3076 27.0635 47.3158 26.4938 47.332 25.7939C47.3483 25.0941 47.3809 24.3454 47.4297 23.5479C47.4785 22.734 47.5355 21.9202 47.6006 21.1064C47.682 20.2764 47.7715 19.5358 47.8691 18.8848C47.9831 18.2174 48.1133 17.6803 48.2598 17.2734C48.4062 16.8503 48.5771 16.6387 48.7725 16.6387C48.9027 16.6387 49.1305 16.6794 49.4561 16.7607C49.7816 16.8258 50.1152 16.8584 50.457 16.8584C50.9616 16.8584 51.3115 16.8177 51.5068 16.7363C51.7184 16.6387 51.873 16.5898 51.9707 16.5898C52.1335 16.5898 52.2148 16.7282 52.2148 17.0049C52.2148 17.0863 52.2148 17.1676 52.2148 17.249C52.2148 17.3141 52.1986 17.3955 52.166 17.4932C52.1497 17.5908 52.109 17.8431 52.0439 18.25C51.9951 18.6569 51.93 19.1777 51.8486 19.8125C51.7673 20.4473 51.6859 21.1634 51.6045 21.9609C51.5231 22.7422 51.4417 23.5641 51.3604 24.4268C51.2952 25.2894 51.2383 26.1602 51.1895 27.0391C51.1406 27.918 51.1162 28.7562 51.1162 29.5537C51.1162 30.0908 51.1243 30.6279 51.1406 31.165C51.1732 31.7021 51.222 32.1904 51.2871 32.6299C51.3522 33.0693 51.4417 33.4274 51.5557 33.7041C51.6696 33.9645 51.8079 34.0947 51.9707 34.0947C52.1172 34.0947 52.3206 34.0296 52.5811 33.8994C52.8577 33.7529 53.1751 33.4681 53.5332 33.0449C53.9076 32.6217 54.3145 32.0195 54.7539 31.2383C55.1934 30.457 55.6654 29.4235 56.1699 28.1377C56.6908 26.8356 57.2279 25.2487 57.7812 23.377C58.3509 21.4889 58.9287 19.2428 59.5146 16.6387C59.5146 16.5898 59.5391 16.5573 59.5879 16.541C59.653 16.5085 59.7262 16.4922 59.8076 16.4922C60.0192 16.4922 60.2878 16.5166 60.6133 16.5654C60.9388 16.598 61.248 16.6549 61.541 16.7363C61.8503 16.8014 62.1107 16.8828 62.3223 16.9805C62.5501 17.0781 62.6641 17.1839 62.6641 17.2979C62.6641 18.0303 62.6315 18.8278 62.5664 19.6904C62.5013 20.5531 62.4281 21.4482 62.3467 22.376C62.2653 23.2874 62.1921 24.2233 62.127 25.1836C62.0618 26.1439 62.0293 27.096 62.0293 28.04C62.0293 29.7327 62.0781 31.3522 62.1758 32.8984C62.2897 34.4284 62.4362 35.7467 62.6152 36.8535ZM93.4014 32.459C93.4014 32.5241 93.3607 32.6462 93.2793 32.8252C93.1979 33.0042 93.1003 33.1914 92.9863 33.3867C92.8887 33.582 92.7747 33.7692 92.6445 33.9482C92.5306 34.111 92.4329 34.2087 92.3516 34.2412C92.3027 34.2738 92.083 34.3633 91.6924 34.5098C91.318 34.64 90.8135 34.8027 90.1787 34.998C89.5439 35.1771 88.7952 35.3724 87.9326 35.584C87.0863 35.7956 86.1585 35.999 85.1494 36.1943C84.1566 36.3734 83.0905 36.528 81.9512 36.6582C80.8281 36.7721 79.6807 36.8372 78.5088 36.8535C77.5322 36.8861 76.6208 36.9186 75.7744 36.9512C74.9281 36.9837 74.1387 37 73.4062 37C72.9993 37 72.6087 36.9919 72.2344 36.9756C71.8763 36.9593 71.5345 36.9349 71.209 36.9023C70.7533 36.8535 70.3138 36.7965 69.8906 36.7314C69.5163 36.6663 69.1257 36.585 68.7188 36.4873C68.3281 36.3896 67.9863 36.2594 67.6934 36.0967C67.612 36.0804 67.5387 36.0397 67.4736 35.9746C67.3434 35.877 67.2865 35.7386 67.3027 35.5596C67.1562 35.4782 67.0505 35.3887 66.9854 35.291C66.9528 35.2422 66.9284 35.2096 66.9121 35.1934C66.9121 35.1608 66.9202 35.1201 66.9365 35.0713C66.9528 35.0062 67.026 34.8841 67.1562 34.7051C67.0423 34.6888 66.9528 34.6562 66.8877 34.6074C66.8389 34.5586 66.7982 34.5016 66.7656 34.4365C66.7168 34.3714 66.6924 34.29 66.6924 34.1924C66.6924 34.0947 66.7087 33.9971 66.7412 33.8994C66.7738 33.818 66.8145 33.7285 66.8633 33.6309C66.9284 33.5169 67.026 33.403 67.1562 33.2891C67.1562 33.0775 67.1807 32.9229 67.2295 32.8252C67.2458 32.7601 67.2702 32.7194 67.3027 32.7031C67.319 32.6543 67.3841 32.6055 67.498 32.5566C67.612 32.5078 67.7422 32.4671 67.8887 32.4346C68.0352 32.402 68.1816 32.3776 68.3281 32.3613C68.4909 32.3451 68.6292 32.3451 68.7432 32.3613L68.792 32.4102C68.8245 31.3359 68.8652 30.1722 68.9141 28.9189C68.9629 27.6657 69.0117 26.502 69.0605 25.4277C69.1257 24.1745 69.1908 22.9294 69.2559 21.6924C69.321 20.1624 69.4186 18.5511 69.5488 16.8584C69.6628 15.4098 69.8011 13.7822 69.9639 11.9756C70.1266 10.1689 70.3382 8.32975 70.5986 6.45801L67.791 6.50684C67.612 6.50684 67.4411 6.48242 67.2783 6.43359C67.1481 6.40104 67.0098 6.34408 66.8633 6.2627C66.7168 6.18132 66.611 6.05924 66.5459 5.89648C66.2855 5.86393 66.0902 5.8151 65.96 5.75C65.846 5.6849 65.7565 5.61979 65.6914 5.55469C65.6263 5.48958 65.5938 5.4082 65.5938 5.31055C65.6263 5.13151 65.6833 4.99316 65.7646 4.89551C65.846 4.79785 66.0088 4.68392 66.2529 4.55371C66.5296 4.45605 66.7249 4.33398 66.8389 4.1875C66.9691 4.02474 67.1074 3.92708 67.2539 3.89453C67.319 3.87826 67.7015 3.80501 68.4014 3.6748C69.1012 3.52832 69.9883 3.36556 71.0625 3.18652C72.1367 2.99121 73.3411 2.81217 74.6758 2.64941C76.0104 2.47038 77.3369 2.34017 78.6553 2.25879C79.7783 2.17741 80.8932 2.12858 82 2.1123C83.123 2.09603 84.1729 2.08789 85.1494 2.08789C86.484 2.08789 87.6071 2.10417 88.5186 2.13672C89.43 2.16927 89.9753 2.20996 90.1543 2.25879C90.2682 2.29134 90.3822 2.34831 90.4961 2.42969C90.5775 2.51107 90.667 2.625 90.7646 2.77148C90.8623 2.90169 90.9437 3.08073 91.0088 3.30859C91.139 3.3737 91.2285 3.4388 91.2773 3.50391C91.3424 3.55273 91.3913 3.60156 91.4238 3.65039L91.4971 3.79688C91.4971 3.89453 91.4971 4.0166 91.4971 4.16309C91.4971 4.29329 91.4808 4.40723 91.4482 4.50488C91.432 4.53743 91.3994 4.56999 91.3506 4.60254C91.318 4.63509 91.2692 4.66764 91.2041 4.7002C91.1553 4.73275 91.0902 4.7653 91.0088 4.79785C91.0251 5.02572 91.0251 5.20475 91.0088 5.33496C90.9925 5.46517 90.9681 5.57096 90.9355 5.65234C90.903 5.73372 90.8623 5.79883 90.8135 5.84766C90.6995 5.92904 90.5042 5.99414 90.2275 6.04297C89.9671 6.07552 89.4788 6.0918 88.7627 6.0918L73.6504 6.40918C73.6016 6.88118 73.5527 7.44271 73.5039 8.09375C73.4714 8.72852 73.4307 9.41211 73.3818 10.1445C73.3493 10.877 73.3086 11.6257 73.2598 12.3906C73.2272 13.1556 73.1947 13.8962 73.1621 14.6123C73.1296 15.3122 73.097 15.9632 73.0645 16.5654C73.0319 17.1676 73.0075 17.6641 72.9912 18.0547C73.6097 17.8757 74.2933 17.7373 75.042 17.6396C75.7907 17.5257 76.4906 17.4362 77.1416 17.3711C77.9066 17.306 78.6634 17.249 79.4121 17.2002C79.8841 17.1676 80.3398 17.1514 80.7793 17.1514C81.2188 17.1514 81.6419 17.1514 82.0488 17.1514C83.6764 17.1514 84.9297 17.1839 85.8086 17.249C86.7038 17.3141 87.2165 17.363 87.3467 17.3955C87.4443 17.4118 87.5501 17.4769 87.6641 17.5908C87.778 17.7048 87.8838 17.8431 87.9814 18.0059C88.0791 18.1523 88.1605 18.3232 88.2256 18.5186C88.307 18.6976 88.3477 18.8604 88.3477 19.0068C88.3477 19.2835 88.2744 19.5765 88.1279 19.8857C87.9814 20.195 87.8594 20.4473 87.7617 20.6426C87.6315 20.8542 87.4606 21.0576 87.249 21.2529C87.0374 21.4482 86.8584 21.5296 86.7119 21.4971C86.6631 21.4971 86.4596 21.4889 86.1016 21.4727C85.7435 21.4564 85.2959 21.4401 84.7588 21.4238C84.238 21.3913 83.6683 21.3669 83.0498 21.3506C82.4313 21.3343 81.8291 21.318 81.2432 21.3018C80.6572 21.2855 80.1283 21.2773 79.6562 21.2773C79.2005 21.2611 78.8669 21.2529 78.6553 21.2529C78.3949 21.2529 78.0124 21.2773 77.5078 21.3262C77.0846 21.3587 76.4987 21.4157 75.75 21.4971C75.0013 21.5785 74.0492 21.6924 72.8936 21.8389C72.861 22.5062 72.8447 23.2061 72.8447 23.9385C72.8447 24.6709 72.8447 25.444 72.8447 26.2578C72.8447 27.3809 72.861 28.4958 72.8936 29.6025C72.9261 30.693 72.9831 31.6777 73.0645 32.5566H75.7012C76.6289 32.5566 77.5485 32.5485 78.46 32.5322C79.3714 32.4997 80.2015 32.459 80.9502 32.4102C82.0407 32.3288 83.0742 32.2393 84.0508 32.1416C85.0436 32.0439 85.9307 31.9544 86.7119 31.873C87.4932 31.7917 88.1442 31.7347 88.665 31.7021C89.1859 31.6533 89.5114 31.637 89.6416 31.6533C89.7718 31.6859 89.9427 31.694 90.1543 31.6777C90.3822 31.6615 90.6182 31.637 90.8623 31.6045C91.1064 31.5719 91.3424 31.5394 91.5703 31.5068C91.7982 31.4743 91.9772 31.4417 92.1074 31.4092C92.2214 31.3929 92.3516 31.4255 92.498 31.5068C92.6445 31.5719 92.7829 31.6696 92.9131 31.7998C93.0433 31.9137 93.1491 32.0358 93.2305 32.166C93.3281 32.2962 93.3851 32.3939 93.4014 32.459ZM110.027 22.6934C110.044 23.263 109.995 23.9629 109.881 24.793C109.767 25.6068 109.637 26.4857 109.49 27.4297C109.344 28.3574 109.205 29.3096 109.075 30.2861C108.945 31.2627 108.88 32.1823 108.88 33.0449C108.88 33.6146 108.921 34.1598 109.002 34.6807C109.083 35.1852 109.222 35.6247 109.417 35.999C109.531 36.2106 109.588 36.3978 109.588 36.5605C109.604 36.7233 109.596 36.8698 109.563 37C109.531 37.1139 109.498 37.2116 109.466 37.293C109.433 37.3906 109.433 37.4801 109.466 37.5615C109.498 37.6429 109.49 37.7324 109.441 37.8301C109.393 37.944 109.319 38.0417 109.222 38.123C109.124 38.2207 109.01 38.2858 108.88 38.3184C108.766 38.3672 108.66 38.359 108.562 38.2939C108.383 38.18 108.237 38.1149 108.123 38.0986C108.025 38.0824 107.936 38.0824 107.854 38.0986C107.789 38.1312 107.724 38.1637 107.659 38.1963C107.61 38.2288 107.545 38.2288 107.464 38.1963C107.187 38.0498 106.886 37.8789 106.561 37.6836C106.235 37.4883 106.023 37.2767 105.926 37.0488C105.861 36.9512 105.796 36.7884 105.73 36.5605C105.682 36.3327 105.633 36.0641 105.584 35.7549C105.551 35.4456 105.519 35.112 105.486 34.7539C105.454 34.3958 105.429 34.0459 105.413 33.7041C104.876 34.7132 104.298 35.5514 103.68 36.2188C103.077 36.8861 102.467 37.415 101.849 37.8057C101.246 38.2126 100.644 38.4974 100.042 38.6602C99.4561 38.8229 98.9189 38.9043 98.4307 38.9043C97.9261 38.9043 97.4785 38.8392 97.0879 38.709C96.7135 38.5788 96.4206 38.4242 96.209 38.2451C95.4115 37.4476 94.8418 36.8047 94.5 36.3164C94.1745 35.8118 94.028 35.4049 94.0605 35.0957C94.1419 34.054 94.3942 33.0938 94.8174 32.2148C95.2406 31.3359 95.7695 30.5303 96.4043 29.7979C97.0391 29.0492 97.7471 28.3818 98.5283 27.7959C99.3258 27.1937 100.132 26.6647 100.945 26.209C101.775 25.737 102.589 25.3464 103.387 25.0371C104.184 24.7116 104.909 24.4512 105.56 24.2559C105.527 23.377 105.486 22.612 105.438 21.9609C105.405 21.2936 105.348 20.8053 105.267 20.4961C105.022 19.487 104.648 18.7383 104.144 18.25C103.639 17.7454 103.029 17.4932 102.312 17.4932C101.857 17.4932 101.393 17.6641 100.921 18.0059C100.465 18.3477 100.05 18.8115 99.6758 19.3975C99.3014 19.9834 98.9922 20.6589 98.748 21.4238C98.5202 22.1888 98.3981 22.9945 98.3818 23.8408C98.3818 24.0524 98.39 24.2559 98.4062 24.4512C98.4225 24.6465 98.4469 24.8499 98.4795 25.0615C98.4958 25.1755 98.4551 25.2568 98.3574 25.3057C98.276 25.3545 98.1702 25.3952 98.04 25.4277C97.9098 25.444 97.7715 25.4603 97.625 25.4766C97.4785 25.4928 97.3564 25.5173 97.2588 25.5498C97.1774 25.5824 97.1123 25.6068 97.0635 25.623C97.0146 25.623 96.9658 25.6149 96.917 25.5986C96.8682 25.5661 96.8031 25.5173 96.7217 25.4521C96.6566 25.387 96.5589 25.3057 96.4287 25.208C96.2985 25.1104 96.1602 25.029 96.0137 24.9639C95.8835 24.8988 95.7614 24.8418 95.6475 24.793C95.5498 24.7441 95.4603 24.7035 95.3789 24.6709C95.3138 24.6221 95.2812 24.5651 95.2812 24.5C95.2812 23.4909 95.501 22.4492 95.9404 21.375C96.3962 20.3008 96.9984 19.3242 97.7471 18.4453C98.512 17.5501 99.391 16.8177 100.384 16.248C101.393 15.6784 102.459 15.3936 103.582 15.3936C104.493 15.3936 105.283 15.5319 105.95 15.8086C106.618 16.0853 107.187 16.4434 107.659 16.8828C108.131 17.3223 108.514 17.8105 108.807 18.3477C109.116 18.8848 109.352 19.43 109.515 19.9834C109.694 20.5205 109.816 21.0332 109.881 21.5215C109.962 21.9935 110.011 22.3841 110.027 22.6934ZM105.608 27.0391C105.12 27.2181 104.583 27.4541 103.997 27.7471C103.411 28.04 102.817 28.39 102.215 28.7969C101.613 29.1875 101.01 29.6432 100.408 30.1641C99.806 30.6849 99.2445 31.2627 98.7236 31.8975C98.1051 32.6299 97.6576 33.2809 97.3809 33.8506C97.1042 34.4202 96.9333 34.9085 96.8682 35.3154C96.8031 35.7061 96.8193 36.0153 96.917 36.2432C97.0146 36.471 97.1286 36.6094 97.2588 36.6582C97.7633 36.8535 98.2842 36.8779 98.8213 36.7314C99.3747 36.5687 99.9199 36.292 100.457 35.9014C101.01 35.4945 101.539 35.0143 102.044 34.4609C102.565 33.8913 103.053 33.3135 103.509 32.7275C103.965 32.1253 104.371 31.5394 104.729 30.9697C105.088 30.3838 105.381 29.8792 105.608 29.4561V27.0391ZM120.77 8.28906C120.77 8.38672 120.753 8.64714 120.721 9.07031C120.688 9.47721 120.639 10.0225 120.574 10.7061C120.525 11.3896 120.46 12.1872 120.379 13.0986C120.298 13.9938 120.216 14.9622 120.135 16.0039C121.16 15.8737 122.129 15.776 123.04 15.7109C123.968 15.6296 124.749 15.5889 125.384 15.5889C125.595 15.5889 125.783 15.6296 125.945 15.7109C126.108 15.7923 126.238 15.89 126.336 16.0039C126.45 16.1016 126.539 16.2155 126.604 16.3457C126.67 16.4596 126.71 16.5573 126.727 16.6387C126.727 16.7201 126.735 16.8014 126.751 16.8828C126.767 16.9479 126.775 17.0212 126.775 17.1025C126.775 17.4281 126.629 17.7536 126.336 18.0791C126.059 18.4046 125.636 18.6081 125.066 18.6895L119.866 19.251C119.785 20.4229 119.712 21.6273 119.646 22.8643C119.581 24.1012 119.516 25.3382 119.451 26.5752C119.402 27.7959 119.362 29.0003 119.329 30.1885C119.297 31.3766 119.28 32.4997 119.28 33.5576C119.28 34.2412 119.297 34.7946 119.329 35.2178C119.362 35.641 119.378 35.9176 119.378 36.0479C119.378 36.3245 119.321 36.6012 119.207 36.8779C119.109 37.1383 118.987 37.3743 118.841 37.5859C118.711 37.8138 118.564 37.9928 118.401 38.123C118.255 38.2695 118.133 38.3428 118.035 38.3428C117.449 38.3428 116.985 38.1556 116.644 37.7812C116.302 37.4232 116.041 36.9349 115.862 36.3164C115.7 35.6979 115.594 34.9899 115.545 34.1924C115.496 33.3949 115.472 32.5648 115.472 31.7021C115.472 29.6676 115.529 27.6331 115.643 25.5986C115.757 23.5479 115.919 21.5785 116.131 19.6904L113.079 20.0566C113.03 20.0566 112.981 20.0648 112.933 20.0811C112.884 20.0973 112.827 20.1055 112.762 20.1055C112.452 20.1055 112.208 20.0322 112.029 19.8857C111.834 19.7393 111.688 19.5684 111.59 19.373C111.492 19.1777 111.435 18.9824 111.419 18.7871C111.386 18.5755 111.37 18.4128 111.37 18.2988C111.37 18.071 111.403 17.8594 111.468 17.6641C111.533 17.4688 111.655 17.3467 111.834 17.2979C112.176 17.1676 112.77 17.0293 113.616 16.8828C114.479 16.7201 115.447 16.5573 116.521 16.3945C116.701 15.0762 116.88 13.8717 117.059 12.7812C117.254 11.6745 117.441 10.7223 117.62 9.9248C117.799 9.111 117.962 8.48438 118.108 8.04492C118.271 7.58919 118.41 7.36133 118.523 7.36133C118.556 7.36133 118.597 7.36947 118.646 7.38574C118.694 7.40202 118.735 7.41016 118.768 7.41016C118.865 7.41016 118.938 7.36133 118.987 7.26367C119.052 7.14974 119.166 7.09277 119.329 7.09277C119.476 7.09277 119.63 7.1416 119.793 7.23926C119.972 7.32064 120.127 7.42643 120.257 7.55664C120.403 7.68685 120.525 7.8252 120.623 7.97168C120.721 8.10189 120.77 8.20768 120.77 8.28906ZM141.277 17.8105C141.326 17.9082 141.351 18.0059 141.351 18.1035C141.367 18.2012 141.375 18.3151 141.375 18.4453C141.375 18.9661 141.098 19.5114 140.545 20.0811C140.008 20.6507 139.153 21.1715 137.981 21.6436C137.737 21.7412 137.518 21.79 137.322 21.79C137.078 21.79 136.867 21.7249 136.688 21.5947C136.525 21.4482 136.443 21.3018 136.443 21.1553C136.443 21.0576 136.5 20.9437 136.614 20.8135C136.744 20.6833 136.875 20.5531 137.005 20.4229C137.151 20.2926 137.282 20.1706 137.396 20.0566C137.526 19.9427 137.591 19.8532 137.591 19.7881C137.591 19.6579 137.485 19.5928 137.273 19.5928C136.948 19.5928 136.533 19.6904 136.028 19.8857C135.524 20.0648 134.987 20.3089 134.417 20.6182C133.864 20.9111 133.294 21.2367 132.708 21.5947C132.138 21.9365 131.626 22.2783 131.17 22.6201C130.714 22.9456 130.34 23.2386 130.047 23.499C129.77 23.7594 129.632 23.9466 129.632 24.0605C129.632 24.1257 129.697 24.1582 129.827 24.1582H130.535C130.975 24.1582 131.536 24.1826 132.22 24.2314C132.92 24.2803 133.652 24.3779 134.417 24.5244C135.182 24.6546 135.947 24.8499 136.712 25.1104C137.493 25.3545 138.185 25.6882 138.787 26.1113C139.406 26.5345 139.91 27.0472 140.301 27.6494C140.691 28.2516 140.887 28.9678 140.887 29.7979C140.887 30.221 140.813 30.6768 140.667 31.165C140.537 31.637 140.293 32.1253 139.935 32.6299C139.593 33.1182 139.121 33.6227 138.519 34.1436C137.916 34.6481 137.151 35.1527 136.224 35.6572C134.824 36.4059 133.514 36.9593 132.293 37.3174C131.089 37.6755 129.998 37.8545 129.021 37.8545C127.752 37.8545 126.751 37.5697 126.019 37C125.286 36.4303 124.92 35.6165 124.92 34.5586C124.92 33.7773 125.066 33.11 125.359 32.5566C125.669 32.0033 126.027 31.5475 126.434 31.1895C126.84 30.8151 127.247 30.5465 127.654 30.3838C128.061 30.2048 128.37 30.1071 128.582 30.0908C128.68 30.0908 128.761 30.0827 128.826 30.0664C128.908 30.0501 128.989 30.042 129.07 30.042C129.217 30.042 129.29 30.1315 129.29 30.3105V30.5547C129.29 30.6523 129.314 30.7419 129.363 30.8232C129.412 30.8883 129.437 30.9616 129.437 31.043C129.437 31.1406 129.314 31.2871 129.07 31.4824C128.842 31.6777 128.59 31.9056 128.313 32.166C128.037 32.4264 127.776 32.7031 127.532 32.9961C127.304 33.2891 127.19 33.5739 127.19 33.8506C127.19 34.1761 127.451 34.3389 127.972 34.3389C128.623 34.3389 129.306 34.2168 130.022 33.9727C130.755 33.7122 131.463 33.3867 132.146 32.9961C132.846 32.6055 133.506 32.166 134.124 31.6777C134.759 31.1732 135.312 30.6849 135.784 30.2129C136.256 29.7409 136.631 29.3014 136.907 28.8945C137.184 28.4714 137.322 28.1377 137.322 27.8936C137.322 27.6006 137.151 27.3646 136.81 27.1855C136.484 27.0065 136.028 26.86 135.442 26.7461C134.873 26.6322 134.205 26.5589 133.44 26.5264C132.675 26.4775 131.87 26.4531 131.023 26.4531C130.145 26.4531 129.412 26.4938 128.826 26.5752C128.257 26.6566 127.907 26.6973 127.776 26.6973C127.679 26.6973 127.516 26.6891 127.288 26.6729C127.076 26.6403 126.857 26.5671 126.629 26.4531C126.417 26.3229 126.23 26.1357 126.067 25.8916C125.905 25.6475 125.823 25.2975 125.823 24.8418C125.823 24.5326 125.888 24.1826 126.019 23.792C126.165 23.4014 126.409 22.9863 126.751 22.5469C127.109 22.0911 127.589 21.6029 128.191 21.082C128.81 20.5612 129.591 20.016 130.535 19.4463C131.528 18.8441 132.456 18.3558 133.318 17.9814C134.197 17.5908 134.987 17.2897 135.687 17.0781C136.403 16.8665 137.029 16.7282 137.566 16.6631C138.104 16.5817 138.527 16.541 138.836 16.541C139.568 16.541 140.114 16.6387 140.472 16.834C140.83 17.013 141.098 17.3385 141.277 17.8105Z" fill="white"/>
</svg>
