<svg width="100" height="100" viewBox="0 0 100 100" fill="none" xmlns="http://www.w3.org/2000/svg">
<g clip-path="url(#clip0_1_62)">
<path d="M65.9999 7.96L67.9749 3.339L69.7009 4.139C70.0179 4.259 70.2979 4.459 70.5149 4.719C70.6909 4.941 70.8009 5.209 70.8329 5.491C70.8569 5.789 70.8039 6.088 70.6809 6.361C70.5695 6.63667 70.3886 6.87883 70.1559 7.064C69.9334 7.24963 69.658 7.36053 69.3689 7.381C69.0314 7.39812 68.6948 7.33183 68.3889 7.188L67.2429 6.705L67.5329 6.015L68.5689 6.457C68.7419 6.535 68.9309 6.572 69.1209 6.567C69.2768 6.54497 69.4242 6.48296 69.5489 6.387C69.6665 6.27902 69.7604 6.14795 69.8249 6.002C69.8889 5.849 69.9219 5.684 69.9219 5.519C69.909 5.36498 69.8458 5.2195 69.7419 5.105C69.6152 4.96038 69.4533 4.85085 69.2719 4.787L68.5129 4.457L66.843 8.278L65.9999 7.96ZM72.6279 11.134L75.2919 6.898L76.0649 7.381L73.8009 11.037L75.6649 12.224L75.2649 12.859L72.6279 11.134ZM78.2049 14.983L81.4639 11.189L83.9349 13.328L83.4379 13.908L81.6839 12.418L80.7869 13.452L82.4439 14.832L81.9469 15.412L80.2899 14.032L79.3929 15.066L81.1869 16.556L80.6909 17.136L78.2049 14.983ZM83.7699 20.337L83.1619 19.577L88.1459 17.757L88.8639 18.612L86.1029 23.179L85.4809 22.419L87.7039 18.846L83.7689 20.336L83.7699 20.337ZM85.3159 19.109L86.9859 21.137L86.4199 21.606L84.7359 19.564L85.3159 19.109ZM92.6199 26.656C92.704 26.6018 92.7741 26.5286 92.8245 26.4422C92.8748 26.3559 92.9041 26.2588 92.9099 26.159C92.9191 25.9251 92.8562 25.6941 92.7299 25.497C92.6583 25.347 92.5487 25.2184 92.4119 25.124C92.315 25.0396 92.1947 24.9866 92.0669 24.972C91.9554 24.932 91.8335 24.932 91.7219 24.972C91.6345 25.0137 91.5622 25.0815 91.5149 25.166C91.4946 25.2569 91.4946 25.3511 91.5149 25.442C91.5019 25.542 91.5019 25.644 91.5149 25.745C91.507 25.8462 91.507 25.9478 91.5149 26.049L91.6529 26.518C91.7031 26.7034 91.7399 26.8923 91.7629 27.083C91.7909 27.266 91.7909 27.453 91.7629 27.635C91.7399 27.815 91.6729 27.985 91.5699 28.132C91.4616 28.2942 91.3145 28.4269 91.1419 28.518C90.9048 28.6595 90.6307 28.7267 90.3549 28.711C90.0736 28.6859 89.8054 28.5808 89.5819 28.408C89.3052 28.1891 89.075 27.9171 88.9049 27.608C88.722 27.3145 88.6043 26.985 88.5599 26.642C88.5115 26.3553 88.5549 26.0606 88.6839 25.8C88.8119 25.521 89.0239 25.29 89.2919 25.138L89.7339 25.924C89.5935 26.0046 89.4859 26.132 89.4299 26.284C89.3888 26.4278 89.3888 26.5802 89.4299 26.724C89.4639 26.901 89.5299 27.069 89.6229 27.221C89.7069 27.374 89.8199 27.511 89.9549 27.621C90.0649 27.714 90.1989 27.776 90.3409 27.801C90.4783 27.8266 90.6204 27.8018 90.7409 27.731C90.8424 27.672 90.9205 27.5798 90.9619 27.47C90.991 27.3426 90.991 27.2104 90.9619 27.083C90.9393 26.9203 90.9072 26.759 90.8659 26.6L90.6999 26.035C90.6132 25.6768 90.6132 25.3032 90.6999 24.945C90.7354 24.7856 90.8059 24.6361 90.9062 24.5073C91.0065 24.3785 91.1341 24.2735 91.2799 24.2C91.5149 24.053 91.7919 23.99 92.0669 24.02C92.3529 24.054 92.6249 24.164 92.8539 24.338C93.1089 24.531 93.3209 24.775 93.4749 25.055C93.6429 25.333 93.7509 25.643 93.7929 25.965C93.8129 26.24 93.7649 26.515 93.6549 26.766C93.5461 27.0103 93.3622 27.2135 93.1299 27.346L92.6199 26.656ZM91.4999 32.657L96.1949 30.891L97.3409 33.941L96.6369 34.203L95.7949 32.009L94.5249 32.492L95.2699 34.492L94.5519 34.754L93.7789 32.713L92.4949 33.195L93.3369 35.417L92.6189 35.679L91.4999 32.657ZM98.4449 46.316C98.543 46.2997 98.6362 46.2617 98.7175 46.2045C98.7989 46.1474 98.8663 46.0727 98.9149 45.986C99.0179 45.776 99.0569 45.54 99.0249 45.309C99.0167 45.1413 98.9745 44.9769 98.9009 44.826C98.8395 44.7125 98.7491 44.6173 98.6389 44.55C98.5373 44.4818 98.4145 44.4523 98.2929 44.467C98.1981 44.4737 98.1072 44.5073 98.0309 44.564C97.9536 44.6213 97.8917 44.6969 97.8509 44.784C97.8069 44.874 97.7699 44.966 97.7409 45.061V45.861C97.7129 46.052 97.6709 46.241 97.6169 46.427C97.5567 46.6028 97.4729 46.7697 97.3679 46.923C97.2725 47.0691 97.1454 47.1919 96.9959 47.282C96.8296 47.3867 96.64 47.4486 96.4439 47.462C96.1675 47.4985 95.8867 47.4452 95.6429 47.31C95.3977 47.1703 95.1967 46.9645 95.0629 46.716C94.8995 46.4033 94.8008 46.0608 94.7729 45.709C94.7416 45.3668 94.7697 45.0217 94.8559 44.689C94.9248 44.396 95.0875 44.1336 95.3193 43.9417C95.5511 43.7498 95.8393 43.639 96.1399 43.626L96.2359 44.509C96.0745 44.5295 95.9242 44.6022 95.8079 44.716C95.698 44.8257 95.6217 44.9644 95.5879 45.116C95.5594 45.2848 95.5594 45.4572 95.5879 45.626C95.6069 45.803 95.6539 45.975 95.7259 46.136C95.7999 46.265 95.8979 46.377 96.0159 46.468C96.1326 46.5367 96.2666 46.5704 96.4019 46.565C96.5223 46.5525 96.6346 46.4988 96.7199 46.413C96.8017 46.316 96.863 46.2034 96.8999 46.082C96.9469 45.923 96.9839 45.762 97.0099 45.599L97.1059 45.019C97.1419 44.651 97.2759 44.299 97.4929 43.999C97.5885 43.8675 97.7127 43.7594 97.8561 43.6829C97.9996 43.6063 98.1585 43.5633 98.3209 43.557C98.5939 43.525 98.8709 43.583 99.1079 43.722C99.3509 43.872 99.5509 44.08 99.6879 44.33C99.8489 44.613 99.9439 44.929 99.9639 45.254C99.9969 45.57 99.9639 45.889 99.8679 46.192C99.7824 46.4562 99.6301 46.6938 99.4259 46.882C99.2168 47.0524 98.9623 47.1577 98.6939 47.185L98.4449 46.316ZM98.0309 55.809V54.898C98.1749 54.878 98.3149 54.837 98.4449 54.774C98.5629 54.713 98.6699 54.634 98.7629 54.539C98.8479 54.435 98.9179 54.319 98.9699 54.194C99.0248 54.0577 99.0575 53.9136 99.0669 53.767C99.0812 53.5139 99.0288 53.2615 98.9149 53.035C98.782 52.8049 98.5855 52.6181 98.3489 52.497C98.0571 52.3477 97.7364 52.2631 97.4089 52.249C97.0781 52.21 96.7428 52.2476 96.4289 52.359C96.1799 52.443 95.9589 52.596 95.7949 52.801C95.649 53.008 95.5628 53.2513 95.5459 53.504C95.5236 53.6458 95.5236 53.7902 95.5459 53.932C95.5739 54.065 95.6259 54.191 95.6979 54.305C95.8502 54.5349 96.0808 54.7016 96.3469 54.774V55.684C96.111 55.633 95.8864 55.5394 95.6839 55.408C95.4852 55.2803 95.3123 55.1165 95.1739 54.925C95.0239 54.725 94.9129 54.502 94.8419 54.263C94.7916 53.9893 94.7916 53.7087 94.8419 53.435C94.8629 53.019 95.0019 52.617 95.2419 52.276C95.4731 51.9387 95.8007 51.679 96.1819 51.531C96.6208 51.3607 97.0932 51.2946 97.5619 51.338C98.0489 51.351 98.5239 51.489 98.9419 51.738C99.2959 51.95 99.5819 52.256 99.7709 52.621C99.9509 52.995 100.027 53.409 99.9909 53.821C99.9691 54.0818 99.9088 54.3379 99.8119 54.581C99.7216 54.8092 99.5908 55.0192 99.4259 55.201C99.2609 55.381 99.0579 55.523 98.8319 55.615C98.5821 55.7359 98.3084 55.802 98.0309 55.809ZM95.5879 62.32L93.0749 62.983L93.3229 61.99L95.8229 61.355L95.5879 62.32ZM94.0139 59.327L98.8739 60.541L98.4179 62.376C98.3519 62.702 98.2049 63.006 97.9899 63.259C97.8098 63.4724 97.5692 63.6262 97.2999 63.7C97.0149 63.7762 96.7149 63.7762 96.4299 63.7C96.1481 63.6297 95.8874 63.4925 95.6699 63.3C95.4753 63.1028 95.3414 62.854 95.2839 62.583C95.2102 62.2558 95.2102 61.9162 95.2839 61.589L95.6149 60.292L96.3469 60.472L96.0429 61.645C96.0039 61.8313 96.0039 62.0237 96.0429 62.21C96.0669 62.3514 96.1344 62.4817 96.2359 62.583C96.3544 62.6889 96.4968 62.7644 96.6509 62.803C96.8045 62.8446 96.9664 62.8446 97.1199 62.803C97.2626 62.7679 97.3892 62.6854 97.4789 62.569C97.5889 62.411 97.6629 62.233 97.6989 62.045L97.9069 61.245L93.7649 60.21L94.0139 59.327ZM92.3979 71.427C91.9511 71.2473 91.5569 70.9577 91.2519 70.585C90.9886 70.2668 90.8251 69.8778 90.7819 69.467C90.7319 69.057 90.7979 68.641 90.9759 68.267C91.1419 67.885 91.4099 67.557 91.7489 67.315C92.0812 67.0792 92.4748 66.945 92.8819 66.929C93.3617 66.9243 93.8368 67.0228 94.2751 67.218C94.7133 67.4131 95.1045 67.7003 95.4219 68.06C95.6789 68.382 95.8419 68.769 95.8919 69.178C95.9299 69.589 95.8589 70.004 95.6839 70.378C95.5229 70.758 95.2599 71.088 94.9239 71.33C94.5912 71.5635 94.1989 71.6973 93.7929 71.716C93.3109 71.735 92.8329 71.637 92.3979 71.427ZM92.7709 70.599C93.0699 70.738 93.3939 70.813 93.7239 70.819C93.9869 70.823 94.2459 70.751 94.4689 70.613C94.681 70.4782 94.8454 70.2802 94.9389 70.047C95.0489 69.815 95.0869 69.556 95.0489 69.302C95.0119 69.0406 94.8908 68.7984 94.7039 68.612C94.4812 68.3679 94.2083 68.1748 93.9039 68.046C93.605 67.9074 93.2804 67.8324 92.9509 67.826C92.6876 67.8225 92.4288 67.8943 92.2049 68.033C91.9894 68.1669 91.8207 68.3643 91.7219 68.598C91.6169 68.8313 91.5788 69.0893 91.6119 69.343C91.6579 69.601 91.7779 69.841 91.9559 70.033C92.1871 70.2742 92.4642 70.4667 92.7709 70.599ZM88.2429 73.62L92.3849 76.38L91.8869 77.125L88.3669 74.807L87.1379 76.642L86.5029 76.214L88.2429 73.62ZM84.2249 79.125L87.9389 82.505L87.3309 83.182L84.2249 80.312L82.6919 81.954L82.1259 81.402L84.2249 79.125ZM74.3399 87.762L75.7199 86.852L78.4679 91.06L77.0039 91.984C76.6339 92.233 76.2059 92.384 75.7619 92.426C75.344 92.4655 74.9241 92.3735 74.5609 92.163C74.167 91.9221 73.8356 91.5914 73.5939 91.198C73.3361 90.8082 73.1709 90.3645 73.1109 89.901C73.0739 89.489 73.1609 89.076 73.3589 88.714C73.5989 88.317 73.9369 87.989 74.3399 87.762ZM75.4299 87.997L74.7949 88.397C74.5379 88.557 74.3209 88.774 74.1599 89.031C74.0353 89.2682 73.9918 89.5397 74.0359 89.804C74.0829 90.127 74.2059 90.434 74.3949 90.701C74.5609 90.986 74.7869 91.231 75.0579 91.418C75.2779 91.566 75.5379 91.638 75.8029 91.625C76.0989 91.588 76.3819 91.485 76.6309 91.322L77.2809 90.908L75.4299 87.997ZM65.7799 94.812C65.5888 94.3782 65.5035 93.9052 65.5309 93.432C65.5639 93.022 65.7129 92.63 65.9589 92.302C66.2139 91.974 66.553 91.722 66.939 91.57C67.3166 91.4047 67.734 91.3519 68.1409 91.418C68.5479 91.476 68.9309 91.648 69.2449 91.915C69.5989 92.239 69.8729 92.64 70.0449 93.088C70.2389 93.521 70.3249 93.994 70.2949 94.468C70.2575 94.8727 70.1091 95.2593 69.8659 95.585C69.612 95.9134 69.2731 96.1662 68.8859 96.316C68.5028 96.4779 68.0835 96.5352 67.6709 96.482C67.2647 96.4252 66.8849 96.2475 66.5809 95.972C66.218 95.6612 65.942 95.2615 65.7799 94.812ZM66.622 94.454C66.7319 94.766 66.912 95.049 67.147 95.281C67.332 95.467 67.5669 95.597 67.8229 95.654C68.0789 95.694 68.3409 95.665 68.5829 95.571C68.8149 95.471 69.0159 95.309 69.1629 95.102C69.3129 94.888 69.3949 94.632 69.3969 94.371C69.4001 94.0391 69.3344 93.7102 69.2039 93.405C69.0756 93.0988 68.893 92.8183 68.6649 92.577C68.4807 92.3925 68.2451 92.2677 67.9889 92.219C67.7375 92.177 67.4793 92.2054 67.2429 92.301C67.0016 92.3965 66.794 92.5615 66.6466 92.7752C66.4992 92.9888 66.4185 93.2415 66.4149 93.501C66.4159 93.83 66.487 94.154 66.622 94.454ZM60.257 93.819L62.59 98.482L61.624 98.662L60.05 95.199L59.774 98.993L58.904 99.158L57.275 95.709L57.082 99.503L56.115 99.683L56.571 94.495L57.455 94.329L59.097 97.599L59.374 93.957L60.257 93.819ZM47.376 99.917L47.459 94.895H48.329L50.634 98.358V94.937H51.545L51.463 99.959H50.648L48.328 96.579V100L47.376 99.917ZM43.082 94.357C43.222 94.381 43.35 94.454 43.442 94.564C43.4844 94.6218 43.5148 94.6874 43.5315 94.7571C43.5482 94.8268 43.5508 94.8991 43.5391 94.9698C43.5275 95.0405 43.5018 95.1082 43.4637 95.1688C43.4255 95.2295 43.3757 95.2819 43.317 95.323C43.2004 95.404 43.0576 95.4383 42.917 95.419C42.7777 95.3928 42.6538 95.314 42.571 95.199C42.5282 95.1451 42.4975 95.0827 42.481 95.0159C42.4644 94.9492 42.4624 94.8796 42.475 94.812C42.4887 94.7167 42.5266 94.6265 42.585 94.55C42.649 94.4832 42.7237 94.4275 42.806 94.385C42.8948 94.3555 42.989 94.3459 43.082 94.357ZM34.301 92.163L32.368 96.8L30.628 96.083C30.3152 95.9556 30.0365 95.757 29.814 95.503C29.6362 95.2815 29.5262 95.0135 29.497 94.731C29.4716 94.4348 29.5185 94.1368 29.6339 93.8628C29.7492 93.5888 29.9294 93.3469 30.159 93.158C30.3778 92.9744 30.6483 92.8633 30.933 92.84C31.273 92.817 31.615 92.878 31.927 93.02L33.072 93.503L32.782 94.193L31.761 93.82C31.5892 93.7382 31.3984 93.7047 31.209 93.723C31.0528 93.7337 30.9035 93.7916 30.781 93.889C30.663 94.002 30.569 94.139 30.505 94.289C30.4385 94.4409 30.41 94.6067 30.422 94.772C30.4339 94.9263 30.4973 95.0721 30.602 95.186C30.728 95.33 30.89 95.439 31.071 95.503L31.844 95.821L33.473 91.888L34.301 92.163ZM27.619 89.06L24.996 93.336L24.223 92.867L26.446 89.238L24.568 88.079L24.968 87.431L27.619 89.06ZM22.096 85.251L18.838 89.073L16.284 86.921L16.781 86.341L18.576 87.859L19.459 86.824L17.803 85.444L18.286 84.864L19.956 86.244L20.84 85.21L19.032 83.664L19.529 83.085L22.096 85.251ZM16.436 80.022L17.057 80.767L12.087 82.644L11.355 81.788L14.116 77.208L14.738 77.938L12.501 81.498L16.436 80.022ZM14.903 81.264L13.205 79.194L13.758 78.725L15.47 80.753L14.903 81.264ZM7.51699 73.703C7.43345 73.7608 7.36399 73.8366 7.31378 73.9249C7.26358 74.0132 7.23391 74.1117 7.22699 74.213C7.21699 74.443 7.27899 74.671 7.40699 74.862C7.49099 75.007 7.59699 75.138 7.72399 75.248C7.82937 75.328 7.95316 75.3803 8.08399 75.4C8.20399 75.407 8.32399 75.379 8.42799 75.317C8.51222 75.2712 8.58345 75.2048 8.63499 75.124C8.64925 75.0326 8.64925 74.9394 8.63499 74.848C8.64116 74.7471 8.64116 74.6459 8.63499 74.545L8.55299 74.241L8.41399 73.772C8.3595 73.5865 8.31806 73.3973 8.28999 73.206C8.26912 73.0226 8.26912 72.8374 8.28999 72.654C8.31461 72.4779 8.37593 72.3089 8.46999 72.158C8.59836 71.9859 8.76333 71.8445 8.95299 71.744C9.18799 71.597 9.46299 71.525 9.73999 71.537C10.026 71.562 10.299 71.667 10.527 71.84C10.803 72.054 11.033 72.322 11.203 72.627C11.384 72.923 11.506 73.251 11.563 73.593C11.6235 73.8878 11.5861 74.1943 11.4562 74.4658C11.3264 74.7374 11.1114 74.959 10.844 75.097L10.389 74.324C10.5264 74.2403 10.6331 74.1144 10.693 73.965C10.7282 73.8154 10.7282 73.6596 10.693 73.51C10.6606 73.3749 10.6095 73.2449 10.541 73.124C10.4526 72.9696 10.3351 72.8337 10.195 72.724C10.0846 72.6308 9.95134 72.5687 9.80899 72.544C9.67029 72.5298 9.53058 72.5587 9.40899 72.627C9.30736 72.6863 9.2293 72.7788 9.18799 72.889C9.16599 73.012 9.16599 73.139 9.18799 73.262C9.21399 73.429 9.25099 73.595 9.29799 73.758L9.46399 74.324C9.54999 74.682 9.54999 75.056 9.46399 75.414C9.42967 75.5702 9.36264 75.7173 9.26733 75.8458C9.17201 75.9742 9.05056 76.0809 8.91099 76.159C8.67099 76.304 8.38999 76.367 8.11099 76.339C7.83043 76.31 7.56313 76.2049 7.33799 76.035C7.07375 75.8435 6.85236 75.5989 6.688 75.317C6.51982 75.0403 6.41625 74.7293 6.385 74.407C6.35072 74.1353 6.38866 73.8594 6.49499 73.607C6.60499 73.359 6.79499 73.155 7.03399 73.027L7.51699 73.703ZM8.57999 67.701L3.9 69.523L2.768 66.473L3.472 66.198L4.328 68.391L5.529 67.908L4.742 65.867L5.446 65.591L6.275 67.605L7.54499 67.108L6.68899 64.901L7.39299 64.625L8.57999 67.701ZM1.511 54.125C1.41286 54.1464 1.32031 54.1881 1.23935 54.2476C1.15838 54.307 1.09081 54.3828 1.041 54.47C0.927725 54.6912 0.889132 54.9431 0.930999 55.188C0.948999 55.351 0.995999 55.51 1.07 55.657C1.13105 55.7745 1.22127 55.8744 1.332 55.947C1.44446 55.9812 1.56454 55.9812 1.677 55.947C1.77181 55.9404 1.86274 55.9067 1.939 55.85C2.01632 55.7927 2.07818 55.7171 2.119 55.63C2.16734 55.5395 2.19981 55.4414 2.215 55.34C2.22143 55.2388 2.22143 55.1372 2.215 55.036L2.285 54.553C2.3 54.361 2.337 54.171 2.395 53.987C2.495 53.814 2.621 53.656 2.768 53.518C2.864 53.364 2.998 53.237 3.154 53.146C3.32 53.039 3.51 52.977 3.707 52.966C3.977 52.926 4.253 52.975 4.494 53.104C4.748 53.236 4.956 53.444 5.087 53.698C5.252 54.01 5.351 54.353 5.377 54.705C5.441 55.042 5.441 55.388 5.377 55.725C5.2929 56.0086 5.1299 56.2625 4.907 56.457C4.67263 56.6448 4.39093 56.7642 4.093 56.802L4.01 55.905C4.16645 55.8816 4.31143 55.8092 4.424 55.698C4.53389 55.5938 4.61074 55.4595 4.645 55.312C4.674 55.138 4.674 54.962 4.645 54.788C4.6323 54.6107 4.58544 54.4375 4.507 54.278C4.4174 54.1423 4.29357 54.0326 4.148 53.96C4.09156 53.9057 4.02419 53.8641 3.95039 53.8378C3.87658 53.8116 3.79804 53.8015 3.72 53.808C3.59998 53.8206 3.48801 53.8743 3.403 53.96C3.32132 54.0567 3.26009 54.169 3.223 54.29C3.18 54.45 3.148 54.61 3.127 54.774L3.03 55.367C2.99332 55.7332 2.86504 56.0844 2.657 56.388C2.56134 56.5194 2.43714 56.6275 2.29373 56.704C2.15032 56.7806 1.99144 56.8237 1.829 56.83C1.55312 56.8609 1.27433 56.8079 1.029 56.678C0.786332 56.5293 0.586466 56.3202 0.448999 56.071C0.293309 55.8004 0.198761 55.499 0.172 55.188C0.126959 54.8685 0.155345 54.5429 0.255 54.236C0.34 53.972 0.492999 53.734 0.696999 53.546C0.895999 53.388 1.135 53.287 1.387 53.256L1.511 54.125ZM1.912 44.605V45.516C1.76912 45.5309 1.62944 45.568 1.498 45.626C1.37814 45.6896 1.27048 45.7739 1.18 45.875C1.09207 45.9775 1.02209 46.0942 0.972999 46.22C0.918146 46.3563 0.885401 46.5004 0.875999 46.647C0.8664 46.9061 0.929972 47.1626 1.05943 47.3872C1.1889 47.6118 1.37901 47.7954 1.608 47.917C1.903 48.055 2.222 48.134 2.547 48.151C2.877 48.183 3.212 48.146 3.527 48.041C3.77297 47.9513 3.98835 47.7935 4.148 47.586C4.274 47.383 4.341 47.148 4.342 46.91C4.362 46.772 4.362 46.633 4.342 46.496C4.30657 46.3461 4.24052 46.2051 4.148 46.082C4.07425 45.9652 3.97755 45.8645 3.86376 45.7861C3.74997 45.7077 3.62146 45.6533 3.486 45.626L3.555 44.702C3.79 44.753 4.015 44.847 4.217 44.978C4.416 45.1 4.589 45.26 4.728 45.447C4.882 45.643 4.995 45.869 5.06 46.109C5.144 46.377 5.172 46.659 5.142 46.937C5.12419 47.3497 4.9957 47.75 4.77 48.096C4.53274 48.4309 4.20739 48.6936 3.83 48.855C3.395 49.036 2.92 49.107 2.45 49.062C1.96522 49.049 1.49117 48.9164 1.07 48.676C0.713718 48.468 0.425669 48.1609 0.241 47.792C0.0564578 47.4253 -0.0247802 47.0153 0.00599981 46.606C0.0287202 46.341 0.0893378 46.0807 0.186 45.833C0.271 45.603 0.403 45.391 0.571999 45.213C0.731871 45.0298 0.929814 44.8837 1.152 44.785C1.392 44.678 1.65 44.618 1.912 44.605ZM5.819 41.17L0.929999 40.011L1.386 38.176C1.446 37.839 1.589 37.521 1.8 37.252C1.97797 37.033 2.21879 36.8739 2.49 36.796C2.7715 36.727 3.0655 36.727 3.347 36.796C3.65 36.873 3.927 37.03 4.147 37.252C4.349 37.438 4.485 37.685 4.534 37.955C4.615 38.282 4.615 38.623 4.534 38.949L4.147 40.232L3.416 40.012L3.706 38.824C3.74499 38.6377 3.74499 38.4453 3.706 38.259C3.68171 38.1175 3.61389 37.9871 3.512 37.886C3.39251 37.7849 3.25055 37.714 3.098 37.679C2.94411 37.6373 2.78189 37.6373 2.628 37.679C2.484 37.7193 2.35784 37.807 2.27 37.928C2.15754 38.0801 2.07755 38.2537 2.035 38.438L1.842 39.252L5.984 40.246L5.819 41.17ZM4.217 38.12L6.71699 37.445L6.48199 38.425L3.982 39.087L4.217 38.12ZM7.30999 28.974C7.75499 29.157 8.15199 29.44 8.46999 29.801C8.73099 30.122 8.89799 30.509 8.95299 30.919C8.99699 31.329 8.92999 31.744 8.75999 32.119C8.60521 32.5114 8.3475 32.8548 8.01399 33.113C7.67788 33.3546 7.28099 33.4977 6.86799 33.526C6.3931 33.5401 5.92123 33.446 5.488 33.251C5.04118 33.0713 4.64698 32.7817 4.342 32.409C4.07319 32.0981 3.9045 31.7133 3.858 31.305C3.80895 30.8961 3.87114 30.4815 4.038 30.105C4.20318 29.7225 4.46511 29.3896 4.798 29.139C5.132 28.907 5.523 28.769 5.929 28.739C6.40099 28.711 6.87399 28.791 7.30999 28.974ZM6.90999 29.815C6.61102 29.6764 6.28648 29.6014 5.957 29.595C5.69378 29.5912 5.43497 29.6627 5.211 29.801C4.99793 29.9467 4.83433 30.1539 4.742 30.395C4.632 30.622 4.594 30.877 4.632 31.125C4.682 31.385 4.807 31.625 4.991 31.815C5.216 32.06 5.495 32.248 5.805 32.368C6.104 32.506 6.42799 32.582 6.75799 32.588C7.02098 32.5914 7.27946 32.5196 7.50299 32.381C7.73544 32.2222 7.91374 31.9961 8.01399 31.733C8.12012 31.5 8.15391 31.2404 8.11099 30.988C8.05444 30.7494 7.93536 30.5303 7.76599 30.353C7.52456 30.1118 7.23202 29.928 6.90999 29.815ZM11.466 26.71L7.25499 23.951L7.75199 23.193L11.314 25.524L12.529 23.675L13.164 24.089L11.466 26.711V26.71ZM15.428 21.164L11.687 17.826L12.294 17.136L15.469 19.978L16.933 18.322L17.513 18.832L15.428 21.164ZM25.217 12.417L23.837 13.342L21.075 9.202L22.455 8.251C22.827 8.001 23.253 7.844 23.698 7.795C24.104 7.768 24.508 7.865 24.858 8.071C25.256 8.311 25.591 8.643 25.838 9.037C26.108 9.422 26.278 9.867 26.335 10.334C26.3763 10.7397 26.2944 11.1485 26.1 11.507C25.883 11.8768 25.5801 12.189 25.217 12.417ZM24.112 12.197L24.747 11.783C25.004 11.626 25.217 11.408 25.369 11.148C25.489 10.909 25.537 10.641 25.507 10.375C25.4418 10.0526 25.31 9.74744 25.12 9.479C24.9502 9.20085 24.7245 8.9611 24.457 8.775C24.2388 8.62571 23.9752 8.55744 23.712 8.582C23.413 8.606 23.127 8.712 22.884 8.885L22.234 9.299L24.112 12.197ZM33.735 5.326C33.934 5.757 34.023 6.231 33.998 6.706C33.965 7.1134 33.8215 7.50409 33.583 7.836C33.33 8.169 32.991 8.426 32.603 8.582C32.2249 8.74437 31.8099 8.80139 31.402 8.747C30.994 8.69 30.6107 8.51796 30.297 8.251C29.9355 7.93614 29.6561 7.538 29.483 7.091C29.2914 6.65739 29.2018 6.18565 29.221 5.712C29.249 5.301 29.398 4.908 29.648 4.581C29.8932 4.26153 30.2161 4.01012 30.586 3.85067C30.9558 3.69121 31.3603 3.62902 31.761 3.67C32.169 3.727 32.552 3.9 32.865 4.167C33.247 4.475 33.546 4.873 33.735 5.326ZM32.893 5.671C32.7699 5.36643 32.5869 5.08964 32.355 4.857C32.1678 4.6755 31.9331 4.55069 31.678 4.497C31.4255 4.4544 31.1661 4.48817 30.933 4.594C30.6913 4.68581 30.4839 4.84994 30.339 5.064C30.1981 5.28169 30.1215 5.53472 30.118 5.794C30.1134 6.1278 30.1841 6.45833 30.325 6.761C30.448 7.065 30.631 7.341 30.863 7.575C31.051 7.755 31.285 7.88 31.54 7.933C31.797 7.973 32.06 7.94 32.3 7.837C32.537 7.744 32.74 7.58 32.88 7.367C33.0428 7.15782 33.1342 6.90197 33.141 6.637C33.1326 6.30036 33.0478 5.97002 32.893 5.671ZM39.258 6.291L36.883 1.641L37.836 1.449L39.451 4.898L39.727 1.076L40.597 0.911L42.267 4.332L42.475 0.538L43.427 0.345L43.027 5.519L42.143 5.684L40.473 2.456L40.169 6.098L39.258 6.291ZM52.111 0.069L52.029 5.077H51.214L48.908 1.628V5.05H47.998L47.982 0H48.797L51.089 3.477V0.055L52.11 0.07L52.111 0.069ZM56.419 5.519C56.3475 5.51323 56.2783 5.49166 56.2162 5.45587C56.1541 5.42007 56.1007 5.37093 56.06 5.312C56.0145 5.25705 55.9821 5.19248 55.9653 5.12318C55.9485 5.05388 55.9477 4.98166 55.963 4.912C55.9676 4.8422 55.9888 4.77451 56.0248 4.71452C56.0608 4.65453 56.1106 4.60396 56.17 4.567C56.2339 4.52349 56.3067 4.49465 56.3831 4.48255C56.4595 4.47045 56.5377 4.47538 56.612 4.497C56.749 4.522 56.872 4.596 56.958 4.705C57.0319 4.79948 57.0721 4.91601 57.0721 5.036C57.0721 5.15599 57.0319 5.27252 56.958 5.367C56.8939 5.4341 56.8192 5.49019 56.737 5.533C56.6315 5.55536 56.5221 5.55055 56.419 5.519Z" fill="white"/>
</g>
<defs>
<clipPath id="clip0_1_62">
<rect width="100" height="100" fill="white"/>
</clipPath>
</defs>
</svg>
