<svg width="40" height="40" viewBox="0 0 40 40" fill="none" xmlns="http://www.w3.org/2000/svg">
<rect width="40" height="40" rx="5" fill="#EC6C4E"/>
<path d="M22.5244 32.1172C22.29 32.0391 21.8066 32 21.0742 32H12.9736C12.4658 32 12.0557 31.9219 11.7432 31.7656C11.4404 31.5996 11.2891 31.3018 11.2891 30.8721C11.2891 30.5693 11.3672 30.3203 11.5234 30.125C11.875 30.2227 12.2217 30.2715 12.5635 30.2715C12.915 30.2715 13.2031 30.2373 13.4277 30.1689C13.6523 30.0908 13.8525 29.959 14.0283 29.7734C14.4287 29.3535 14.6289 28.7041 14.6289 27.8252V13.2061C14.6289 12.3564 14.2871 11.8145 13.6035 11.5801C13.4082 11.5117 13.2031 11.4531 12.9883 11.4043C12.7832 11.3457 12.583 11.292 12.3877 11.2432C12.2021 11.1846 12.0361 11.1211 11.8896 11.0527C11.5576 10.877 11.3916 10.6377 11.3916 10.335C11.3916 9.93457 11.4697 9.64648 11.626 9.4707C11.792 9.51953 11.9629 9.54395 12.1387 9.54395H26.9629C27.8418 9.54395 28.3838 9.62695 28.5889 9.79297C28.9502 10.0664 29.1309 10.7109 29.1309 11.7266C29.1309 12.7031 29.0527 13.4844 28.8965 14.0703C28.7402 14.6465 28.623 14.998 28.5449 15.125C28.418 15.3398 28.2324 15.4473 27.9883 15.4473C27.5879 15.4473 27.2998 15.3789 27.124 15.2422C26.958 15.1055 26.875 15.0078 26.875 14.9492C26.7773 13.5625 26.5234 12.6299 26.1133 12.1514C25.6738 11.624 24.79 11.3604 23.4619 11.3604H20.6494C19.6045 11.3604 18.9502 11.4531 18.6865 11.6387C18.4326 11.8145 18.2715 12.0244 18.2031 12.2686C18.1348 12.5029 18.0957 12.8057 18.0859 13.1768V19.9297H18.7744C21.1279 19.9297 23.1885 19.7441 24.9561 19.373C25.3076 19.5195 25.4834 20.0469 25.4834 20.9551C25.4834 21.4238 25.3955 21.8633 25.2197 22.2734C24.585 22.332 23.9014 22.3613 23.1689 22.3613C22.4365 22.3613 21.6455 22.3174 20.7959 22.2295L18.0859 21.9365V28.543C18.0859 29.3828 18.7451 29.8809 20.0635 30.0371C21.1572 30.1738 21.8359 30.3105 22.0996 30.4473C22.373 30.5742 22.5488 30.7012 22.627 30.8281C22.7051 30.9453 22.7441 31.0918 22.7441 31.2676C22.7441 31.6289 22.6709 31.9121 22.5244 32.1172Z" fill="white"/>
</svg>
