<svg width="358" height="29" viewBox="0 0 358 29" fill="none" xmlns="http://www.w3.org/2000/svg">
<g clip-path="url(#clip0_14_889)">
<path d="M12.2601 20.33C10.0454 20.33 8.40274 19.7213 7.33207 18.504C6.26141 17.272 5.72607 15.4166 5.72607 12.938C5.72607 10.43 6.24674 8.55262 7.28807 7.30596C8.34407 6.05929 10.0014 5.43596 12.2601 5.43596C14.5041 5.43596 16.1467 6.05929 17.1881 7.30596C18.2441 8.55262 18.7721 10.43 18.7721 12.938C18.7721 15.4166 18.2367 17.272 17.1661 18.504C16.0954 19.7213 14.4601 20.33 12.2601 20.33ZM12.2601 18.702C13.6974 18.702 14.7607 18.2546 15.4501 17.36C16.1394 16.4653 16.4841 14.9913 16.4841 12.938C16.4841 10.8406 16.1394 9.33729 15.4501 8.42796C14.7754 7.51862 13.7121 7.06396 12.2601 7.06396C10.7934 7.06396 9.71541 7.51862 9.02607 8.42796C8.35141 9.33729 8.01407 10.8406 8.01407 12.938C8.01407 14.9913 8.35874 16.4653 9.04807 17.36C9.73741 18.2546 10.8081 18.702 12.2601 18.702Z" fill="white"/>
<path d="M25.354 20.33C24.1807 20.33 23.286 20.0733 22.67 19.56C22.0687 19.0466 21.768 18.3206 21.768 17.382C21.768 16.326 22.098 15.556 22.758 15.072C23.4327 14.5733 24.4007 14.28 25.662 14.192L27.8062 14.0541C28.3325 14.0203 28.742 13.5836 28.742 13.0562V12.652C28.742 11.9626 28.5954 11.464 28.302 11.156C28.0087 10.848 27.51 10.694 26.806 10.694C26.322 10.694 25.9187 10.738 25.596 10.826C25.3781 10.8779 25.1711 10.9555 24.9752 11.0588C24.8226 11.1392 24.738 11.3036 24.738 11.4761V11.4761C24.738 11.761 24.5071 11.992 24.2221 11.992H23.692C23.1397 11.992 22.692 11.5442 22.692 10.992V10.811C22.692 10.4647 22.8689 10.1385 23.1759 9.97816C24.2837 9.39936 25.5084 9.10996 26.85 9.10996C29.666 9.10996 31.074 10.3566 31.074 12.85V17.668C31.074 17.9613 31.1254 18.174 31.228 18.306C31.3454 18.438 31.5287 18.504 31.778 18.504V18.504C32.0453 18.504 32.262 18.7207 32.262 18.988V19.252C32.262 19.6651 31.9271 20 31.514 20H30.1193C29.8938 20 29.6993 19.8415 29.6538 19.6207V19.6207C29.5719 19.2239 29.0462 19.0943 28.7338 19.3524C28.4441 19.5919 28.1315 19.7857 27.796 19.934C27.18 20.198 26.366 20.33 25.354 20.33ZM25.882 18.746C26.762 18.746 27.4587 18.5553 27.972 18.174C28.4854 17.7926 28.742 17.2133 28.742 16.436V16.436C28.742 15.8661 28.2573 15.4167 27.689 15.4597L25.838 15.6C25.1194 15.644 24.6207 15.798 24.342 16.062C24.0634 16.3113 23.924 16.7146 23.924 17.272C23.924 17.756 24.078 18.1226 24.386 18.372C24.694 18.6213 25.1927 18.746 25.882 18.746Z" fill="white"/>
<path d="M39.2305 20.33C38.0132 20.33 37.0965 20.0293 36.4805 19.428C35.8645 18.8266 35.5565 17.9466 35.5565 16.788V11.882C35.5565 11.4081 35.1724 11.024 34.6985 11.024H34.6325C34.1951 11.024 33.8405 10.6694 33.8405 10.232V10.232C33.8405 9.79455 34.1951 9.43996 34.6325 9.43996H34.6985C35.1724 9.43996 35.5565 9.05582 35.5565 8.58196V7.79339C35.5565 7.35877 35.8373 6.97391 36.2511 6.84117L36.5831 6.73468C37.2285 6.52767 37.8885 7.00911 37.8885 7.6869V8.43996C37.8885 8.99224 38.3362 9.43996 38.8885 9.43996H40.2645C40.7019 9.43996 41.0565 9.79455 41.0565 10.232V10.232C41.0565 10.6694 40.7019 11.024 40.2645 11.024H38.8885C38.3362 11.024 37.8885 11.4717 37.8885 12.024V16.942C37.8885 17.5873 38.0059 18.0493 38.2405 18.328C38.4899 18.6066 38.8639 18.746 39.3625 18.746C39.8623 18.746 40.2697 18.6624 40.5847 18.4953C40.7542 18.4054 40.8365 18.2169 40.8365 18.0251V18.0251C40.8365 17.6699 41.1245 17.382 41.4796 17.382H41.8385C42.3908 17.382 42.8385 17.8297 42.8385 18.382V18.591C42.8385 18.8847 42.7124 19.1677 42.474 19.3392C42.0926 19.6137 41.6861 19.834 41.2545 20C40.6825 20.22 40.0079 20.33 39.2305 20.33Z" fill="white"/>
<path d="M45.3811 18.922C45.3811 18.6182 45.6273 18.372 45.9311 18.372V18.372C46.2244 18.372 46.4297 18.3133 46.5471 18.196C46.6791 18.064 46.7451 17.8513 46.7451 17.558V11.882C46.7451 11.6033 46.6791 11.4053 46.5471 11.288C46.4297 11.156 46.2244 11.09 45.9311 11.09V11.09C45.6881 11.09 45.4911 10.893 45.4911 10.65V10.265C45.4911 9.80932 45.8604 9.43996 46.3161 9.43996H47.8799C48.0851 9.43996 48.257 9.59514 48.2781 9.79927V9.79927C48.3168 10.1758 48.848 10.3176 49.1326 10.068C49.3587 9.86977 49.6042 9.70442 49.8691 9.57196C50.4704 9.26396 51.1964 9.10996 52.0471 9.10996C52.6924 9.10996 53.2497 9.25662 53.7191 9.54996V9.54996C54.3166 9.9234 55.3268 9.98853 55.9326 9.62869C55.993 9.59284 56.0545 9.55927 56.1171 9.52796C56.6597 9.24929 57.3344 9.10996 58.1411 9.10996C59.3437 9.10996 60.2091 9.41062 60.7371 10.012C61.2797 10.6133 61.5511 11.5153 61.5511 12.718V17.558C61.5511 17.8366 61.6171 18.042 61.7491 18.174C61.8811 18.306 62.0864 18.372 62.3651 18.372V18.372C62.7053 18.372 62.9811 18.6478 62.9811 18.988V19.186C62.9811 19.6355 62.6166 20 62.1671 20H60.2411C59.6888 20 59.2411 19.5522 59.2411 19V12.718C59.2411 11.9846 59.1017 11.464 58.8231 11.156C58.5444 10.848 58.0751 10.694 57.4151 10.694C56.7404 10.694 56.2051 10.8846 55.8091 11.266C55.4277 11.6473 55.2371 12.2046 55.2371 12.938V17.558C55.2371 17.8513 55.2884 18.064 55.3911 18.196C55.5084 18.3133 55.7064 18.372 55.9851 18.372V18.372C56.3131 18.372 56.5791 18.6379 56.5791 18.966V19.186C56.5791 19.6355 56.2146 20 55.7651 20H54.0591C53.5068 20 53.0591 19.5522 53.0591 19V12.784C53.0591 12.0653 52.9197 11.5373 52.6411 11.2C52.3624 10.8626 51.9224 10.694 51.3211 10.694C50.5877 10.694 50.0231 10.8993 49.6271 11.31C49.2311 11.7206 49.0331 12.322 49.0331 13.114V17.558C49.0331 17.8513 49.0844 18.064 49.1871 18.196C49.3044 18.3133 49.5024 18.372 49.7811 18.372V18.372C50.1091 18.372 50.3751 18.6379 50.3751 18.966V19.186C50.3751 19.6355 50.0106 20 49.5611 20H46.1951C45.7455 20 45.3811 19.6355 45.3811 19.186V18.922Z" fill="white"/>
<path d="M71.5049 20.33C69.8329 20.33 68.4909 19.868 67.4789 18.944C66.4815 18.0053 65.9829 16.6413 65.9829 14.852C65.9829 12.9453 66.4449 11.5153 67.3689 10.562C68.3075 9.59396 69.6349 9.10996 71.3509 9.10996C73.0082 9.10996 74.2622 9.57929 75.1129 10.518C75.9635 11.4566 76.3889 12.7253 76.3889 14.324V14.336C76.3889 14.8882 75.9412 15.336 75.3889 15.336H69.3149C68.7626 15.336 68.2995 15.7876 68.3938 16.3318C68.5146 17.0294 68.7743 17.5774 69.1729 17.976C69.7595 18.5333 70.5442 18.812 71.5269 18.812C72.0842 18.812 72.5535 18.7753 72.9349 18.702C73.2172 18.6368 73.4794 18.5435 73.7216 18.4221C73.879 18.3431 73.9689 18.1768 73.9689 18.0006V18.0006C73.9689 17.7197 74.1966 17.492 74.4775 17.492H75.0149C75.5672 17.492 76.0149 17.9397 76.0149 18.492V18.5173C76.0149 18.8403 75.8615 19.1478 75.5851 19.3149C75.0916 19.6131 74.5675 19.8415 74.0129 20C73.3089 20.22 72.4729 20.33 71.5049 20.33ZM73.1229 13.906C73.6752 13.906 74.1392 13.4536 74.0427 12.9098C73.7806 11.4326 72.876 10.694 71.3289 10.694C70.3462 10.694 69.5982 10.98 69.0849 11.552C68.7561 11.9183 68.5326 12.3719 68.4144 12.9127C68.2965 13.4523 68.7626 13.906 69.3149 13.906H73.1229Z" fill="white"/>
<path d="M82.7534 20.33C81.5801 20.33 80.6854 20.0733 80.0694 19.56C79.4681 19.0466 79.1674 18.3206 79.1674 17.382C79.1674 16.326 79.4974 15.556 80.1574 15.072C80.8321 14.5733 81.8001 14.28 83.0614 14.192L85.2056 14.0541C85.7318 14.0203 86.1414 13.5836 86.1414 13.0562V12.652C86.1414 11.9626 85.9947 11.464 85.7014 11.156C85.4081 10.848 84.9094 10.694 84.2054 10.694C83.7214 10.694 83.3181 10.738 82.9954 10.826C82.7774 10.8779 82.5705 10.9555 82.3745 11.0588C82.222 11.1392 82.1374 11.3036 82.1374 11.4761V11.4761C82.1374 11.761 81.9064 11.992 81.6215 11.992H81.0914C80.5391 11.992 80.0914 11.5442 80.0914 10.992V10.811C80.0914 10.4647 80.2683 10.1385 80.5753 9.97816C81.6831 9.39936 82.9078 9.10996 84.2494 9.10996C87.0654 9.10996 88.4734 10.3566 88.4734 12.85V17.668C88.4734 17.9613 88.5247 18.174 88.6274 18.306C88.7447 18.438 88.9281 18.504 89.1774 18.504V18.504C89.4447 18.504 89.6614 18.7207 89.6614 18.988V19.252C89.6614 19.6651 89.3265 20 88.9134 20H87.5187C87.2932 20 87.0987 19.8415 87.0531 19.6207V19.6207C86.9713 19.2239 86.4455 19.0943 86.1332 19.3524C85.8434 19.5919 85.5308 19.7857 85.1954 19.934C84.5794 20.198 83.7654 20.33 82.7534 20.33ZM83.2814 18.746C84.1614 18.746 84.8581 18.5553 85.3714 18.174C85.8847 17.7926 86.1414 17.2133 86.1414 16.436V16.436C86.1414 15.8661 85.6566 15.4167 85.0884 15.4597L83.2374 15.6C82.5187 15.644 82.0201 15.798 81.7414 16.062C81.4627 16.3113 81.3234 16.7146 81.3234 17.272C81.3234 17.756 81.4774 18.1226 81.7854 18.372C82.0934 18.6213 82.5921 18.746 83.2814 18.746Z" fill="white"/>
<path d="M92.663 19.01C92.663 18.6576 92.9487 18.372 93.301 18.372V18.372C93.5944 18.372 93.7997 18.306 93.917 18.174C94.049 18.042 94.115 17.8293 94.115 17.536V7.87796C94.115 7.59929 94.049 7.40129 93.917 7.28396C93.7997 7.15196 93.5944 7.08596 93.301 7.08596V7.08596C92.9487 7.08596 92.663 6.80032 92.663 6.44796V6.26096C92.663 5.80532 93.0324 5.43596 93.488 5.43596H95.469C96.0213 5.43596 96.469 5.88367 96.469 6.43596V17.558C96.469 17.8366 96.535 18.042 96.667 18.174C96.799 18.306 97.0044 18.372 97.283 18.372V18.372C97.6354 18.372 97.921 18.6576 97.921 19.01V19.186C97.921 19.6355 97.5566 20 97.107 20H93.477C93.0275 20 92.663 19.6355 92.663 19.186V19.01Z" fill="white"/>
<path d="M111.248 15.6824C110.892 15.3201 110.894 14.7383 111.254 14.3789L111.662 13.9707C112.051 13.5819 112.053 12.9521 111.666 12.5609L111.235 12.1241C110.876 11.7607 110.883 11.1741 111.25 10.8191V10.8191C111.612 10.4694 112.187 10.4761 112.541 10.834L112.96 11.2584C113.348 11.6514 113.981 11.6553 114.374 11.2671L114.825 10.8221C115.181 10.4704 115.753 10.4697 116.11 10.8205V10.8205C116.471 11.1756 116.476 11.7566 116.12 12.1169L115.686 12.5565C115.297 12.9494 115.301 13.5826 115.694 13.9707L116.099 14.37C116.465 14.7318 116.464 15.3234 116.097 15.6844V15.6844C115.736 16.0396 115.156 16.0372 114.798 15.679L114.392 15.2731C114.001 14.8825 113.368 14.8825 112.978 15.2731L112.563 15.6879C112.199 16.0516 111.609 16.0491 111.248 15.6824V15.6824Z" fill="white"/>
<path d="M136.692 20.33C135.182 20.33 133.898 20.022 132.842 19.406C131.786 18.7753 130.987 17.91 130.444 16.81C129.916 15.6953 129.652 14.412 129.652 12.96C129.652 11.4933 129.902 10.1953 130.4 9.06596C130.899 7.93662 131.662 7.04929 132.688 6.40396C133.73 5.75862 135.02 5.43596 136.56 5.43596C137.616 5.43596 138.526 5.53862 139.288 5.74396C139.884 5.89007 140.424 6.10509 140.907 6.38901C141.184 6.55122 141.334 6.85766 141.334 7.17812V7.91196C141.334 8.46424 140.887 8.91196 140.334 8.91196H139.849C139.381 8.91196 139.002 8.53304 139.002 8.06562V8.06562C139.002 7.74787 138.826 7.45007 138.526 7.34672C137.978 7.15821 137.323 7.06396 136.56 7.06396C135.094 7.06396 133.957 7.58462 133.15 8.62596C132.344 9.66729 131.94 11.112 131.94 12.96C131.94 14.764 132.366 16.172 133.216 17.184C134.067 18.196 135.255 18.702 136.78 18.702C137.535 18.702 138.222 18.6188 138.841 18.4525C139.237 18.3463 139.486 17.9706 139.486 17.5605V15.126C139.486 14.5737 139.039 14.126 138.486 14.126H137.242C136.793 14.126 136.428 13.7615 136.428 13.312V13.312C136.428 12.8624 136.793 12.498 137.242 12.498H140.796C141.349 12.498 141.796 12.9457 141.796 13.498V18.4118C141.796 18.7445 141.633 19.0594 141.345 19.2264C140.758 19.5675 140.138 19.8253 139.486 20C138.665 20.22 137.734 20.33 136.692 20.33Z" fill="white"/>
<path d="M149.1 20.33C147.898 20.33 146.988 20.0146 146.372 19.384C145.756 18.7533 145.448 17.8513 145.448 16.678V11.882C145.448 11.6033 145.382 11.398 145.25 11.266C145.133 11.134 144.935 11.068 144.656 11.068V11.068C144.304 11.068 144.018 10.7823 144.018 10.43V10.254C144.018 9.8044 144.383 9.43996 144.832 9.43996H146.802C147.355 9.43996 147.802 9.88767 147.802 10.44V16.656C147.802 18.0786 148.492 18.79 149.87 18.79C150.618 18.79 151.22 18.57 151.674 18.13C152.129 17.69 152.356 17.0593 152.356 16.238V11.882C152.356 11.6033 152.298 11.398 152.18 11.266C152.078 11.134 151.894 11.068 151.63 11.068V11.068C151.29 11.068 151.014 10.7922 151.014 10.452V10.254C151.014 9.8044 151.379 9.43996 151.828 9.43996H153.688C154.241 9.43996 154.688 9.88767 154.688 10.44V17.558C154.688 17.8366 154.754 18.042 154.886 18.174C155.018 18.2913 155.224 18.35 155.502 18.35V18.35C155.745 18.35 155.942 18.5469 155.942 18.7899V19.175C155.942 19.6306 155.573 20 155.117 20H153.525C153.312 20 153.133 19.8375 153.114 19.625V19.625C153.079 19.2503 152.578 19.0964 152.289 19.3371C152.003 19.5748 151.696 19.7664 151.366 19.912C150.75 20.1906 149.995 20.33 149.1 20.33Z" fill="white"/>
<path d="M158.932 19.01C158.932 18.6576 159.218 18.372 159.57 18.372V18.372C159.863 18.372 160.069 18.306 160.186 18.174C160.318 18.042 160.384 17.8293 160.384 17.536V7.87796C160.384 7.59929 160.318 7.40129 160.186 7.28396C160.069 7.15196 159.863 7.08596 159.57 7.08596V7.08596C159.218 7.08596 158.932 6.80032 158.932 6.44796V6.26096C158.932 5.80532 159.301 5.43596 159.757 5.43596H161.738C162.29 5.43596 162.738 5.88367 162.738 6.43596V17.558C162.738 17.8366 162.804 18.042 162.936 18.174C163.068 18.306 163.273 18.372 163.552 18.372V18.372C163.904 18.372 164.19 18.6576 164.19 19.01V19.186C164.19 19.6355 163.826 20 163.376 20H159.746C159.296 20 158.932 19.6355 158.932 19.186V19.01Z" fill="white"/>
<path d="M172.35 20.33C171.133 20.33 170.216 20.0293 169.6 19.428C168.984 18.8266 168.676 17.9466 168.676 16.788V11.882C168.676 11.4081 168.292 11.024 167.818 11.024H167.752C167.315 11.024 166.96 10.6694 166.96 10.232V10.232C166.96 9.79455 167.315 9.43996 167.752 9.43996H167.818C168.292 9.43996 168.676 9.05582 168.676 8.58196V7.79339C168.676 7.35877 168.957 6.97391 169.371 6.84117L169.703 6.73468C170.348 6.52767 171.008 7.00911 171.008 7.68689V8.43996C171.008 8.99224 171.456 9.43996 172.008 9.43996H173.384C173.822 9.43996 174.176 9.79455 174.176 10.232V10.232C174.176 10.6694 173.822 11.024 173.384 11.024H172.008C171.456 11.024 171.008 11.4717 171.008 12.024V16.942C171.008 17.5873 171.126 18.0493 171.36 18.328C171.61 18.6066 171.984 18.746 172.482 18.746C172.982 18.746 173.389 18.6624 173.704 18.4953C173.874 18.4054 173.956 18.2169 173.956 18.0251V18.0251C173.956 17.6699 174.244 17.382 174.599 17.382H174.958C175.511 17.382 175.958 17.8297 175.958 18.382V18.591C175.958 18.8847 175.832 19.1677 175.594 19.3392C175.212 19.6137 174.806 19.834 174.374 20C173.802 20.22 173.128 20.33 172.35 20.33Z" fill="white"/>
<path d="M184.023 20.33C182.351 20.33 181.009 19.868 179.997 18.944C179 18.0053 178.501 16.6413 178.501 14.852C178.501 12.9453 178.963 11.5153 179.887 10.562C180.826 9.59396 182.153 9.10996 183.869 9.10996C185.526 9.10996 186.78 9.57929 187.631 10.518C188.482 11.4566 188.907 12.7253 188.907 14.324V14.336C188.907 14.8882 188.459 15.336 187.907 15.336H181.833C181.281 15.336 180.817 15.7876 180.912 16.3318C181.033 17.0294 181.292 17.5774 181.691 17.976C182.278 18.5333 183.062 18.812 184.045 18.812C184.602 18.812 185.072 18.7753 185.453 18.702C185.735 18.6368 185.997 18.5435 186.24 18.4221C186.397 18.3431 186.487 18.1768 186.487 18.0006V18.0006C186.487 17.7197 186.715 17.492 186.995 17.492H187.533C188.085 17.492 188.533 17.9397 188.533 18.492V18.5173C188.533 18.8403 188.379 19.1478 188.103 19.3149C187.61 19.6131 187.086 19.8415 186.531 20C185.827 20.22 184.991 20.33 184.023 20.33ZM185.641 13.906C186.193 13.906 186.657 13.4536 186.561 12.9098C186.299 11.4326 185.394 10.694 183.847 10.694C182.864 10.694 182.116 10.98 181.603 11.552C181.274 11.9183 181.051 12.3719 180.932 12.9127C180.814 13.4523 181.281 13.906 181.833 13.906H185.641Z" fill="white"/>
<path d="M192.12 18.922C192.12 18.6182 192.366 18.372 192.67 18.372V18.372C192.964 18.372 193.169 18.3133 193.286 18.196C193.418 18.064 193.484 17.8513 193.484 17.558V11.904C193.484 11.6106 193.426 11.4053 193.308 11.288C193.191 11.156 192.986 11.09 192.692 11.09V11.09C192.437 11.09 192.23 10.8831 192.23 10.628V10.265C192.23 9.80932 192.6 9.43996 193.055 9.43996H194.651C194.875 9.43996 195.061 9.61074 195.081 9.83361V9.83361C195.116 10.2228 195.63 10.3851 195.931 10.1361C196.227 9.892 196.54 9.69661 196.872 9.54996C197.518 9.25662 198.295 9.10996 199.204 9.10996C201.551 9.10996 202.724 10.3273 202.724 12.762V17.558C202.724 17.8513 202.783 18.064 202.9 18.196C203.032 18.3133 203.245 18.372 203.538 18.372V18.372C203.878 18.372 204.154 18.6477 204.154 18.988V19.186C204.154 19.6355 203.79 20 203.34 20H201.37C200.818 20 200.37 19.5522 200.37 19V12.784C200.37 12.0506 200.216 11.5226 199.908 11.2C199.6 10.8626 199.102 10.694 198.412 10.694C197.664 10.694 197.048 10.9066 196.564 11.332C196.08 11.7573 195.838 12.3513 195.838 13.114V17.558C195.838 17.8513 195.89 18.064 195.992 18.196C196.11 18.3133 196.308 18.372 196.586 18.372V18.372C196.902 18.372 197.158 18.628 197.158 18.9439V19.186C197.158 19.6355 196.794 20 196.344 20H192.934C192.485 20 192.12 19.6355 192.12 19.186V18.922Z" fill="white"/>
<path d="M216.697 18.922C216.697 18.6182 216.944 18.372 217.247 18.372V18.372C217.541 18.372 217.753 18.3133 217.885 18.196C218.017 18.064 218.083 17.8513 218.083 17.558V11.904C218.083 11.4301 217.699 11.046 217.225 11.046H217.17C216.727 11.046 216.367 10.6864 216.367 10.243V10.243C216.367 9.79947 216.727 9.43996 217.17 9.43996H217.511C217.827 9.43996 218.083 9.18386 218.083 8.86796V8.86796C218.083 7.69462 218.413 6.77796 219.073 6.11796C219.748 5.44329 220.723 5.10596 221.999 5.10596C223.316 5.10596 224.399 5.4013 225.248 5.992C225.486 6.15741 225.607 6.43825 225.607 6.72783V6.99795C225.607 7.53257 225.174 7.96596 224.639 7.96596H224.236C223.924 7.96596 223.671 7.71317 223.671 7.40133V7.40133C223.671 7.22981 223.596 7.06276 223.447 6.9783C223.107 6.78607 222.676 6.68996 222.153 6.68996C221.581 6.68996 221.149 6.85862 220.855 7.19596C220.562 7.53329 220.415 8.01729 220.415 8.64796V8.64796C220.415 9.08537 220.77 9.43996 221.207 9.43996H222.78C223.224 9.43996 223.583 9.79947 223.583 10.243V10.243C223.583 10.6864 223.224 11.046 222.78 11.046H221.415C220.863 11.046 220.415 11.4937 220.415 12.046V17.558C220.415 17.8513 220.474 18.064 220.591 18.196C220.709 18.3133 220.914 18.372 221.207 18.372V18.372C221.499 18.372 221.735 18.6084 221.735 18.9V19.186C221.735 19.6355 221.371 20 220.921 20H217.511C217.062 20 216.697 19.6355 216.697 19.186V18.922Z" fill="white"/>
<path d="M227.543 18.922C227.543 18.6182 227.789 18.372 228.093 18.372V18.372C228.386 18.372 228.591 18.3133 228.709 18.196C228.841 18.064 228.907 17.8513 228.907 17.558V11.882C228.907 11.6033 228.848 11.398 228.731 11.266C228.613 11.134 228.415 11.068 228.137 11.068V11.068C227.882 11.068 227.675 10.8611 227.675 10.606V10.254C227.675 9.8044 228.039 9.43996 228.489 9.43996H230.395C230.581 9.43996 230.743 9.56606 230.789 9.74622V9.74622C230.876 10.0903 231.362 10.1786 231.65 9.97053C231.801 9.86085 231.965 9.77199 232.141 9.70396C232.61 9.52796 233.16 9.43996 233.791 9.43996H233.989C234.438 9.43996 234.803 9.8044 234.803 10.254V10.254C234.803 10.7035 234.438 11.068 233.989 11.068H233.571C232.735 11.068 232.141 11.2586 231.789 11.64C231.437 12.0066 231.261 12.5786 231.261 13.356V17.558C231.261 17.8513 231.319 18.064 231.437 18.196C231.554 18.3133 231.752 18.372 232.031 18.372V18.372C232.335 18.372 232.581 18.6182 232.581 18.9219V19.186C232.581 19.6355 232.216 20 231.767 20H228.357C227.907 20 227.543 19.6355 227.543 19.186V18.922Z" fill="white"/>
<path d="M243.311 20.33C241.639 20.33 240.297 19.868 239.285 18.944C238.288 18.0053 237.789 16.6413 237.789 14.852C237.789 12.9453 238.251 11.5153 239.175 10.562C240.114 9.59396 241.441 9.10996 243.157 9.10996C244.814 9.10996 246.068 9.57929 246.919 10.518C247.77 11.4566 248.195 12.7253 248.195 14.324V14.336C248.195 14.8882 247.747 15.336 247.195 15.336H241.121C240.569 15.336 240.106 15.7876 240.2 16.3318C240.321 17.0294 240.581 17.5774 240.979 17.976C241.566 18.5333 242.35 18.812 243.333 18.812C243.89 18.812 244.36 18.7753 244.741 18.702C245.023 18.6368 245.286 18.5435 245.528 18.4221C245.685 18.3431 245.775 18.1768 245.775 18.0006V18.0006C245.775 17.7197 246.003 17.492 246.284 17.492H246.821C247.373 17.492 247.821 17.9397 247.821 18.492V18.5173C247.821 18.8403 247.668 19.1478 247.391 19.3149C246.898 19.6131 246.374 19.8415 245.819 20C245.115 20.22 244.279 20.33 243.311 20.33ZM244.929 13.906C245.481 13.906 245.945 13.4536 245.849 12.9098C245.587 11.4326 244.682 10.694 243.135 10.694C242.152 10.694 241.404 10.98 240.891 11.552C240.562 11.9183 240.339 12.3719 240.221 12.9127C240.103 13.4523 240.569 13.906 241.121 13.906H244.929Z" fill="white"/>
<path d="M256.93 20.33C255.258 20.33 253.916 19.868 252.904 18.944C251.907 18.0053 251.408 16.6413 251.408 14.852C251.408 12.9453 251.87 11.5153 252.794 10.562C253.733 9.59396 255.06 9.10996 256.776 9.10996C258.434 9.10996 259.688 9.57929 260.538 10.518C261.389 11.4566 261.814 12.7253 261.814 14.324V14.336C261.814 14.8882 261.367 15.336 260.814 15.336H254.74C254.188 15.336 253.725 15.7876 253.819 16.3318C253.94 17.0294 254.2 17.5774 254.598 17.976C255.185 18.5333 255.97 18.812 256.952 18.812C257.51 18.812 257.979 18.7753 258.36 18.702C258.643 18.6368 258.905 18.5435 259.147 18.4221C259.305 18.3431 259.395 18.1768 259.395 18.0006V18.0006C259.395 17.7197 259.622 17.492 259.903 17.492H260.44C260.993 17.492 261.44 17.9397 261.44 18.492V18.5173C261.44 18.8403 261.287 19.1478 261.011 19.3149C260.517 19.6131 259.993 19.8415 259.438 20C258.734 20.22 257.898 20.33 256.93 20.33ZM258.548 13.906C259.101 13.906 259.565 13.4536 259.468 12.9098C259.206 11.4326 258.302 10.694 256.754 10.694C255.772 10.694 255.024 10.98 254.51 11.552C254.182 11.9183 253.958 12.3719 253.84 12.9127C253.722 13.4523 254.188 13.906 254.74 13.906H258.548Z" fill="white"/>
<path d="M278.901 20.33C277.335 20.33 276.002 19.9985 274.904 19.3357C274.63 19.17 274.479 18.8643 274.479 18.5438V18.338C274.479 17.7857 274.927 17.338 275.479 17.338H276.076C276.385 17.338 276.635 17.5884 276.635 17.8973V17.8973C276.635 18.0959 276.739 18.2828 276.919 18.3666C277.463 18.6195 278.102 18.746 278.835 18.746C279.495 18.746 279.987 18.6433 280.309 18.438C280.647 18.2326 280.815 17.8953 280.815 17.426C280.815 17.118 280.727 16.8686 280.551 16.678C280.39 16.4726 280.163 16.304 279.869 16.172C279.576 16.0253 278.997 15.776 278.131 15.424C277.266 15.072 276.599 14.7713 276.129 14.522C275.675 14.258 275.301 13.928 275.007 13.532C274.729 13.136 274.589 12.6373 274.589 12.036C274.589 11.068 274.963 10.342 275.711 9.85796C276.459 9.35929 277.479 9.10996 278.769 9.10996C279.591 9.10996 280.361 9.21996 281.079 9.43996C281.618 9.5939 282.103 9.80142 282.535 10.0625C282.804 10.2254 282.949 10.5272 282.949 10.842V10.992C282.949 11.5442 282.502 11.992 281.949 11.992H281.359C281.071 11.992 280.837 11.7585 280.837 11.4704V11.4704C280.837 11.2888 280.744 11.1171 280.581 11.0378C280.108 10.8086 279.563 10.694 278.945 10.694C278.285 10.694 277.787 10.7966 277.449 11.002C277.127 11.2073 276.965 11.552 276.965 12.036C276.965 12.476 277.141 12.8206 277.493 13.07C277.845 13.3046 278.388 13.554 279.121 13.818C279.327 13.8766 279.554 13.9573 279.803 14.06C280.566 14.3533 281.175 14.6246 281.629 14.874C282.084 15.1233 282.458 15.4533 282.751 15.864C283.045 16.2746 283.191 16.7953 283.191 17.426C283.191 18.3646 282.832 19.0833 282.113 19.582C281.409 20.0806 280.339 20.33 278.901 20.33Z" fill="white"/>
<path d="M286.401 18.9219C286.401 18.6182 286.648 18.372 286.951 18.372V18.372C287.245 18.372 287.45 18.3133 287.567 18.196C287.699 18.064 287.765 17.8513 287.765 17.558V11.904C287.765 11.6106 287.707 11.4053 287.589 11.288C287.472 11.156 287.267 11.09 286.973 11.09V11.09C286.718 11.09 286.511 10.8831 286.511 10.628V10.265C286.511 9.80932 286.881 9.43996 287.336 9.43996H288.932C289.156 9.43996 289.343 9.61074 289.363 9.83361V9.83361C289.398 10.2228 289.911 10.3851 290.213 10.1361C290.508 9.892 290.822 9.69661 291.153 9.54996C291.799 9.25662 292.576 9.10996 293.485 9.10996C295.832 9.10996 297.005 10.3273 297.005 12.762V17.558C297.005 17.8513 297.064 18.064 297.181 18.196C297.313 18.3133 297.526 18.372 297.819 18.372V18.372C298.16 18.372 298.435 18.6477 298.435 18.988V19.186C298.435 19.6355 298.071 20 297.621 20H295.651C295.099 20 294.651 19.5522 294.651 19V12.784C294.651 12.0506 294.497 11.5226 294.189 11.2C293.881 10.8626 293.383 10.694 292.693 10.694C291.945 10.694 291.329 10.9066 290.845 11.332C290.361 11.7573 290.119 12.3513 290.119 13.114V17.558C290.119 17.8513 290.171 18.064 290.273 18.196C290.391 18.3133 290.589 18.372 290.867 18.372V18.372C291.183 18.372 291.439 18.628 291.439 18.9439V19.186C291.439 19.6355 291.075 20 290.625 20H287.215C286.766 20 286.401 19.6355 286.401 19.186V18.9219Z" fill="white"/>
<path d="M304.783 20.33C303.61 20.33 302.715 20.0733 302.099 19.56C301.498 19.0466 301.197 18.3206 301.197 17.382C301.197 16.326 301.527 15.556 302.187 15.072C302.862 14.5733 303.83 14.28 305.091 14.192L307.235 14.0541C307.762 14.0203 308.171 13.5836 308.171 13.0562V12.652C308.171 11.9626 308.025 11.464 307.731 11.156C307.438 10.848 306.939 10.694 306.235 10.694C305.751 10.694 305.348 10.738 305.025 10.826C304.807 10.8779 304.6 10.9555 304.404 11.0588C304.252 11.1392 304.167 11.3036 304.167 11.4761V11.4761C304.167 11.761 303.936 11.992 303.651 11.992H303.121C302.569 11.992 302.121 11.5442 302.121 10.992V10.811C302.121 10.4647 302.298 10.1385 302.605 9.97816C303.713 9.39936 304.938 9.10996 306.279 9.10996C309.095 9.10996 310.503 10.3566 310.503 12.85V17.668C310.503 17.9613 310.555 18.174 310.657 18.306C310.775 18.438 310.958 18.504 311.207 18.504V18.504C311.475 18.504 311.691 18.7206 311.691 18.9879V19.252C311.691 19.6651 311.356 20 310.943 20H309.548C309.323 20 309.129 19.8415 309.083 19.6207V19.6207C309.001 19.2239 308.475 19.0943 308.163 19.3524C307.873 19.5919 307.561 19.7857 307.225 19.934C306.609 20.198 305.795 20.33 304.783 20.33ZM305.311 18.746C306.191 18.746 306.888 18.5553 307.401 18.174C307.915 17.7926 308.171 17.2133 308.171 16.436V16.436C308.171 15.8661 307.686 15.4167 307.118 15.4597L305.267 15.6C304.549 15.644 304.05 15.798 303.771 16.062C303.493 16.3113 303.353 16.7146 303.353 17.272C303.353 17.756 303.507 18.1226 303.815 18.372C304.123 18.6213 304.622 18.746 305.311 18.746Z" fill="white"/>
<path d="M319.573 20.33C318.517 20.33 317.557 20.1173 316.691 19.692C315.841 19.2666 315.166 18.636 314.667 17.8C314.169 16.964 313.919 15.9666 313.919 14.808C313.919 12.96 314.411 11.552 315.393 10.584C316.391 9.60129 317.762 9.10996 319.507 9.10996C320.461 9.10996 321.26 9.21262 321.905 9.41796C322.406 9.57736 322.894 9.81191 323.369 10.1216C323.631 10.2929 323.775 10.5921 323.775 10.9055V11.52C323.775 12.0722 323.328 12.52 322.775 12.52H322.494C322.072 12.52 321.729 12.1778 321.729 11.7558V11.7558C321.729 11.4803 321.584 11.2205 321.331 11.1092C321.136 11.023 320.946 10.9579 320.761 10.914C320.453 10.8406 320.035 10.804 319.507 10.804C318.525 10.804 317.725 11.134 317.109 11.794C316.508 12.4393 316.207 13.444 316.207 14.808C316.207 16.0986 316.552 17.0593 317.241 17.69C317.945 18.306 318.84 18.614 319.925 18.614C320.6 18.614 321.172 18.5553 321.641 18.438C321.861 18.3848 322.074 18.3151 322.281 18.2289C322.696 18.0564 323.199 18.1625 323.432 18.5464V18.5464C323.649 18.9056 323.552 19.3781 323.182 19.5763C322.77 19.7966 322.352 19.9598 321.927 20.066C321.297 20.242 320.512 20.33 319.573 20.33Z" fill="white"/>
<path d="M326.465 19.032C326.465 18.7039 326.731 18.438 327.059 18.438V18.438C327.352 18.438 327.55 18.3866 327.653 18.284C327.77 18.1666 327.829 17.9686 327.829 17.69V7.70196C327.829 7.42329 327.777 7.23262 327.675 7.12996C327.572 7.01262 327.381 6.95396 327.103 6.95396V6.95396C326.823 6.95396 326.597 6.72741 326.597 6.44794V6.19496C326.597 5.77577 326.936 5.43596 327.356 5.43596H330.568C330.987 5.43596 331.327 5.77577 331.327 6.19496V6.33796C331.327 6.67817 331.051 6.95396 330.711 6.95396V6.95396C330.447 6.95396 330.263 7.01262 330.161 7.12996C330.058 7.23262 330.007 7.42329 330.007 7.70196V11.9654C330.007 12.8173 331.014 13.2678 331.649 12.6997L332.989 11.5001C333.193 11.3177 333.064 10.98 332.791 10.98V10.98C332.626 10.98 332.493 10.8465 332.493 10.6819V10.21C332.493 9.7847 332.837 9.43996 333.263 9.43996H336.739C337.164 9.43996 337.509 9.7847 337.509 10.21V10.21C337.509 10.6352 337.164 10.98 336.739 10.98H336.497C336.262 10.98 336.086 11.0093 335.969 11.068C335.851 11.1266 335.69 11.244 335.485 11.42L333.928 12.7875C333.568 13.1045 333.483 13.6333 333.727 14.0469L335.969 17.844C336.115 18.0786 336.255 18.24 336.387 18.328C336.533 18.4013 336.753 18.438 337.047 18.438H337.19C337.621 18.438 337.971 18.7876 337.971 19.219V19.219C337.971 19.6503 337.621 20 337.19 20H335.587C335.237 20 334.912 19.8168 334.731 19.517L332.388 15.6383C332.065 15.1033 331.335 14.9926 330.868 15.4074L330.343 15.8736C330.129 16.0633 330.007 16.3356 330.007 16.6215V17.69C330.007 17.9686 330.058 18.1666 330.161 18.284C330.278 18.3866 330.483 18.438 330.777 18.438V18.438C331.153 18.438 331.459 18.7433 331.459 19.1199V19.219C331.459 19.6503 331.109 20 330.678 20H327.246C326.814 20 326.465 19.6503 326.465 19.219V19.032Z" fill="white"/>
<path d="M344.613 20.33C343.047 20.33 341.715 19.9985 340.617 19.3357C340.342 19.17 340.191 18.8643 340.191 18.5438V18.338C340.191 17.7857 340.639 17.338 341.191 17.338H341.788C342.097 17.338 342.347 17.5884 342.347 17.8973V17.8973C342.347 18.0959 342.451 18.2828 342.631 18.3666C343.175 18.6195 343.814 18.746 344.547 18.746C345.207 18.746 345.699 18.6433 346.021 18.438C346.359 18.2326 346.527 17.8953 346.527 17.426C346.527 17.118 346.439 16.8686 346.263 16.678C346.102 16.4726 345.875 16.304 345.581 16.172C345.288 16.0253 344.709 15.776 343.843 15.424C342.978 15.072 342.311 14.7713 341.841 14.522C341.387 14.258 341.013 13.928 340.719 13.532C340.441 13.136 340.301 12.6373 340.301 12.036C340.301 11.068 340.675 10.342 341.423 9.85796C342.171 9.35929 343.191 9.10996 344.481 9.10996C345.303 9.10996 346.073 9.21996 346.791 9.43996C347.33 9.5939 347.815 9.80142 348.247 10.0625C348.516 10.2254 348.661 10.5272 348.661 10.842V10.992C348.661 11.5442 348.214 11.992 347.661 11.992H347.071C346.783 11.992 346.549 11.7585 346.549 11.4704V11.4704C346.549 11.2888 346.456 11.1171 346.293 11.0378C345.821 10.8086 345.275 10.694 344.657 10.694C343.997 10.694 343.499 10.7966 343.161 11.002C342.839 11.2073 342.677 11.552 342.677 12.036C342.677 12.476 342.853 12.8206 343.205 13.07C343.557 13.3046 344.1 13.554 344.833 13.818C345.039 13.8766 345.266 13.9573 345.515 14.06C346.278 14.3533 346.887 14.6246 347.341 14.874C347.796 15.1233 348.17 15.4533 348.463 15.864C348.757 16.2746 348.903 16.7953 348.903 17.426C348.903 18.3646 348.544 19.0833 347.825 19.582C347.121 20.0806 346.051 20.33 344.613 20.33Z" fill="white"/>
</g>
<defs>
<clipPath id="clip0_14_889">
<rect width="358" height="29" fill="white"/>
</clipPath>
</defs>
</svg>
